<?xml version="1.0" encoding="UTF-8"?>
<svg width="21px" height="19px" viewBox="0 0 21 19" version="1.1" xmlns="http://www.w3.org/2000/svg" xmlns:xlink="http://www.w3.org/1999/xlink">
    <!-- Generator: Sketch 63.1 (92452) - https://sketch.com -->
    <title>流程</title>
    <desc>Created with Sketch.</desc>
    <g id="页面-1" stroke="none" stroke-width="1" fill="none" fill-rule="evenodd">
        <g id="画板" transform="translate(-879.000000, -62.000000)" fill="#6ABF4B">
            <g id="流程" transform="translate(879.000000, 62.000000)">
                <g id="形状">
                    <path d="M2.60044014,18.592723 L2.60044003,18.592723 C1.1642537,18.592723 -1.13669012e-07,17.436577 -1.13669012e-07,16.0104044 C-1.13669012e-07,14.5842264 1.16425919,13.4280858 2.60044003,13.4280858 C4.03662636,13.4280858 5.20088017,14.5842318 5.20088017,16.0104044 L5.20088017,16.0104044 C5.20088017,17.4365825 4.03662087,18.592723 2.60044003,18.592723 L2.60044014,18.592723 Z M2.60044014,14.4609987 L2.60044009,14.4609987 C1.73872866,14.4609987 1.04017418,15.1546852 1.04017418,16.0103917 C1.04017418,16.8660982 1.73872866,17.5597847 2.60044009,17.5597847 C3.46215153,17.5597847 4.16070601,16.8660982 4.16070601,16.0103917 L4.16070601,16.0103917 C4.16070601,15.1546852 3.46215153,14.4609987 2.60044009,14.4609987 C2.60044007,14.4609987 2.60044008,14.4609987 2.60044006,14.4609987 L2.60044014,14.4609987 Z M2.60044014,11.8786801 L2.60044003,11.8786801 C1.1642537,11.8786801 -1.13669012e-07,10.7225341 -1.13669012e-07,9.29636152 C-1.13669012e-07,7.87018346 1.16425919,6.71404291 2.60044003,6.71404291 C4.03662636,6.71404291 5.20088017,7.87018891 5.20088017,9.29636152 L5.20088017,9.29636152 C5.20088017,10.7225396 4.03662087,11.8786801 2.60044003,11.8786801 L2.60044014,11.8786801 Z M2.60044014,7.74695583 L2.60044009,7.74695583 C1.73872866,7.74695583 1.04017418,8.44064234 1.04017418,9.29634881 C1.04017418,10.1520553 1.73872866,10.8457418 2.60044009,10.8457418 C3.46215153,10.8457418 4.16070601,10.1520553 4.16070601,9.29634881 L4.16070601,9.29634881 C4.16070601,8.44064234 3.46215153,7.74695583 2.60044009,7.74695583 C2.60044009,7.74695583 2.60044008,7.74695583 2.60044008,7.74695583 L2.60044014,7.74695583 Z M2.60044014,5.16463722 L2.60044003,5.16463722 C1.1642537,5.16463722 -1.13669012e-07,4.00849123 -1.13669012e-07,2.58231861 C-1.13669012e-07,1.15614055 1.16425919,-3.09631038e-15 2.60044003,-3.09631038e-15 C4.03662636,-3.09631038e-15 5.20088017,1.156146 5.20088017,2.58231861 L5.20088017,2.58231861 C5.20088017,4.00849667 4.03662087,5.16463722 2.60044003,5.16463722 L2.60044014,5.16463722 Z M2.60044014,1.03291292 L2.60044009,1.03291292 C1.73872866,1.03291292 1.04017418,1.72659943 1.04017418,2.5823059 C1.04017418,3.43801237 1.73872866,4.13169888 2.60044009,4.13169888 C3.46215153,4.13169888 4.16070601,3.43801237 4.16070601,2.5823059 L4.16070601,2.5823059 C4.16070601,1.72659943 3.46215153,1.03291292 2.60044009,1.03291292 C2.60044009,1.03291292 2.60044008,1.03291292 2.60044008,1.03291292 L2.60044014,1.03291292 Z M20.5434991,2.32407404 L20.5434991,2.32407404 C20.5434991,2.03883915 20.3106476,1.80761032 20.0234111,1.80761032 C20.023411,1.80761032 20.023411,1.80761032 20.023411,1.80761032 L6.50109303,1.80761032 L6.50109303,2.84053958 L20.023411,2.84053958 L20.023411,2.84053958 C20.3106476,2.84053958 20.5434991,2.60931074 20.5434991,2.32407585 C20.5434991,2.32407585 20.5434991,2.32407584 20.5434991,2.32407584 L20.5434991,2.32407404 Z M20.0234111,8.52164233 L6.50109305,8.52164233 L6.50109305,9.55457159 L20.0234111,9.55457159 L20.023411,9.55457159 C20.3106476,9.55457159 20.5434991,9.32334276 20.5434991,9.03810787 C20.5434991,8.75287299 20.3106476,8.52164233 20.023411,8.52164233 L20.0234111,8.52164233 Z M20.0234111,15.7521417 L6.50109305,15.7521417 L6.50109305,16.785071 L20.0234111,16.785071 L20.0234111,16.785071 C20.3106476,16.785071 20.5434991,16.5538421 20.5434991,16.2686072 C20.5434991,15.9833724 20.3106476,15.7521417 20.0234111,15.7521417 L20.0234111,15.7521417 Z" fill-rule="nonzero"></path>
                </g>
            </g>
        </g>
    </g>
</svg>