<?xml version="1.0" encoding="UTF-8"?>
<svg width="154px" height="141px" viewBox="0 0 154 141" version="1.1" xmlns="http://www.w3.org/2000/svg" xmlns:xlink="http://www.w3.org/1999/xlink">
    <!-- Generator: Sketch 60 (88103) - https://sketch.com -->
    <title>卖家</title>
    <desc>Created with Sketch.</desc>
    <g id="页面-1" stroke="none" stroke-width="1" fill="none" fill-rule="evenodd">
        <g id="icon_卖家售后" transform="translate(-3.000000, -9.000000)" fill="#6ABF4B">
            <g id="卖家" transform="translate(3.000000, 7.000000)">
                <g id="形状">
                    <path d="M67.400048,75.2597713 C87.8142008,75.2597713 103.977232,59.147812 103.977232,38.7983383 C103.977232,18.4255841 87.3469769,2.33690523 67.400048,2.33690523 C47.4531772,2.33690523 30.8228644,18.9145325 30.8228644,38.7983383 C30.8228644,58.682086 46.9859728,75.2597713 67.400048,75.2597713 L67.400048,75.2597713 Z M89.9630385,139.824089 C83.7967587,135.563275 79.1019807,129.393228 76.7429145,122.128862 C74.66414,117.029854 73.4962841,111.441877 73.4962841,105.597796 C73.4962841,96.4474976 76.2991421,87.9491304 81.1106921,80.9175699 L47.7800419,80.9175699 C21.6667555,80.9175699 0.762237844,102.221737 0.762237844,128.27559 L0.762237844,131.116139 C0.762237844,142.012668 21.6667555,142.012668 47.3129538,142.012668 L92.9527706,142.012668 C91.9250585,141.337456 90.9440592,140.592393 89.9630579,139.82405 L89.9630385,139.824089 Z M138.802874,103.665263 C138.802874,106.645515 136.443769,109.066957 133.547493,109.066957 C130.651218,109.066957 128.292151,106.645515 128.292151,103.665263 C128.292151,106.645515 125.933085,109.066957 123.03681,109.066957 C120.140534,109.066957 117.781468,106.645515 117.781468,103.665263 C117.781468,106.645515 115.445756,109.066957 112.526126,109.066957 C109.62985,109.066957 107.270784,106.645515 107.270784,103.665263 C107.270784,106.645515 104.935072,109.066957 102.015442,109.066957 C99.1191668,109.066957 96.7601006,106.645515 96.7601006,103.665263 L100.450523,93.5137877 L135.042388,93.5137877 L138.802874,103.665263 L138.802874,103.665263 Z M132.239492,91.4881525 L103.370037,91.4881525 C102.272254,91.4881525 101.408034,90.5801088 101.408034,89.4625174 C101.408034,88.344924 102.295604,87.4368822 103.370037,87.4368822 L132.216021,87.4368822 C133.313804,87.4368822 134.178023,88.3449259 134.178023,89.4625174 C134.20138,90.5801107 133.31381,91.4881525 132.239383,91.4881525 L132.239492,91.4881525 Z M102.739429,111.069292 C102.926286,111.046009 103.113142,111.022726 103.299999,110.97616 C103.346713,110.97616 103.37007,110.97616 103.416784,110.952876 C103.510213,110.929593 103.580284,110.90631 103.673712,110.883027 C104.024068,110.789894 104.374425,110.696761 104.701424,110.557063 L104.701424,120.545556 L130.931482,120.545556 L130.931482,110.557063 C131.258481,110.696762 131.608837,110.789895 131.959194,110.883027 C132.052623,110.90631 132.122694,110.929593 132.216122,110.952876 C132.262836,110.952876 132.286193,110.952876 132.332907,110.97616 C132.519764,110.999443 132.70662,111.046009 132.893479,111.069292 C133.103692,111.092576 133.337265,111.092576 133.547478,111.092576 C133.991264,111.092576 134.435048,111.046009 134.855475,110.97616 L134.855475,124.620116 C134.855475,125.737709 133.967905,126.645751 132.893473,126.645751 L102.739526,126.645751 C101.641743,126.645751 100.777523,125.737707 100.777523,124.620116 L100.777523,110.952879 C101.197951,111.046012 101.641737,111.069295 102.085521,111.069295 C102.295734,111.092578 102.505949,111.092578 102.73952,111.069295 L102.739429,111.069292 Z" fill-rule="nonzero"></path>
                    <path d="M117.50106,142.059132 C97.6007427,142.059132 81.4377119,125.923892 81.4377119,106.109909 C81.4377119,86.2725674 97.6241747,70.1606853 117.50106,70.1606853 C137.377906,70.1606853 153.564408,86.2959252 153.564408,106.109909 C153.564408,125.923854 137.377945,142.059132 117.50106,142.059132 Z M117.50106,75.9813894 C100.847451,75.9813894 87.3003651,89.4856432 87.3003651,106.086512 C87.3003651,122.68742 100.84749,136.191635 117.50106,136.191635 C134.154669,136.191635 147.701755,122.687381 147.701755,106.086512 C147.701755,89.4856045 134.15463,75.9813894 117.50106,75.9813894 L117.50106,75.9813894 Z" fill-rule="nonzero"></path>
                </g>
            </g>
        </g>
    </g>
</svg>