<?xml version="1.0" encoding="UTF-8"?>
<svg width="18px" height="16px" viewBox="0 0 18 16" version="1.1" xmlns="http://www.w3.org/2000/svg" xmlns:xlink="http://www.w3.org/1999/xlink">
    <!-- Generator: Sketch 63.1 (92452) - https://sketch.com -->
    <title>交易商管理_green</title>
    <desc>Created with Sketch.</desc>
    <g id="页面-1" stroke="none" stroke-width="1" fill="none" fill-rule="evenodd">
        <g id="画板" transform="translate(-282.000000, -128.000000)" fill="#6ABF4B">
            <g id="交易商管理_green" transform="translate(282.000000, 128.000000)">
                <g id="形状">
                    <path d="M0.514292297,0.0768075366 L0.514292297,15.5648256 L17.4857406,15.5648256 L17.4857406,0.0768075366 L0.514292297,0.0768075366 Z M16.0714533,14.0160238 L1.92857966,14.0160238 L1.92857966,3.87841196 L16.0714533,3.87841196 L16.0714533,14.0160238 Z M10.2728751,9.08801802 L11.9700199,9.08801802 L11.9700199,7.96161671 L14.2328797,7.96161671 L14.2328797,6.97601556 L11.9700199,6.97601556 L11.9700199,5.70881409 L10.2728751,5.70881409 L10.2728751,6.8352154 L3.76715323,6.8352154 L3.76715323,7.82081655 L10.2728751,7.82081655 L10.2728751,9.08801802 L10.2728751,9.08801802 Z M7.30287163,9.51041851 L5.60572679,9.51041851 L5.60572679,10.6368198 L3.76715323,10.6368198 L3.76715323,11.622421 L5.60572679,11.622421 L5.60572679,12.7488223 L7.30287163,12.7488223 L7.30287163,11.622421 L14.3743084,11.622421 L14.3743084,10.6368198 L7.30287163,10.6368198 L7.30287163,9.51041851 Z" fill-rule="nonzero"></path>
                </g>
            </g>
        </g>
    </g>
</svg>