<?xml version="1.0" encoding="UTF-8"?>
<svg width="16px" height="16px" viewBox="0 0 16 16" version="1.1" xmlns="http://www.w3.org/2000/svg" xmlns:xlink="http://www.w3.org/1999/xlink">
    <!-- Generator: Sketch 63.1 (92452) - https://sketch.com -->
    <title>交易商审核_grey</title>
    <desc>Created with Sketch.</desc>
    <g id="页面-1" stroke="none" stroke-width="1" fill="none" fill-rule="evenodd">
        <g id="画板" transform="translate(-211.000000, -128.000000)" fill="#666666">
            <g id="交易商审核_grey" transform="translate(211.000000, 128.000000)">
                <g>
                    <path d="M10.2350119,3.76698156 L2.71500316,3.76698156 C2.50000291,3.76698156 2.39000278,3.65953958 2.39000278,3.43953932 C2.39000278,3.21953906 2.50000291,3.10698079 2.71500316,3.10698079 L10.2350119,3.10698079 C10.4500122,3.10698079 10.5550123,3.21442278 10.5550123,3.43442303 C10.5550123,3.65953958 10.4500122,3.76698156 10.2350119,3.76698156 Z M10.2350119,6.51442662 L2.71500316,6.51442662 C2.50000291,6.51442662 2.39500279,6.40698463 2.39500279,6.18698438 C2.39500279,5.96698412 2.50000291,5.85954214 2.71500316,5.85954214 L10.2350119,5.85954214 C10.4500122,5.85954214 10.5550123,5.96698412 10.5550123,6.18698438 C10.5550123,6.40698463 10.4500122,6.51442662 10.2350119,6.51442662 Z M7.01000816,9.26698796 L2.71000315,9.26698796 C2.4950029,9.26698796 2.39000278,9.15954598 2.39000278,8.93954572 C2.39000278,8.71954546 2.4950029,8.61210348 2.71000315,8.61210348 L7.01000816,8.61210348 C7.22500841,8.61210348 7.33000853,8.71954546 7.33000853,8.93954572 C7.33500854,9.15442969 7.22500841,9.26698796 7.01000816,9.26698796 Z M7.01000816,12.014433 L2.71000315,12.014433 C2.4950029,12.014433 2.39000278,11.906991 2.39000278,11.6869908 C2.39000278,11.4669905 2.4950029,11.3595485 2.71000315,11.3595485 L7.01000816,11.3595485 C7.22500841,11.3595485 7.33000853,11.4669905 7.33000853,11.6869908 C7.33500854,11.9018747 7.22500841,12.014433 7.01000816,12.014433 Z" id="形状" fill-rule="nonzero"></path>
                    <path d="M7.12000829,15.5344371 L2.71500316,15.5344371 C1.32000154,15.5344371 0.244982915,14.5469941 0.244982915,13.3344346 L0.244982915,2.33953804 C0.240000279,1.12697849 1.31500153,0.139535479 2.71500316,0.139535479 L11.3100132,0.139535479 C12.7050148,0.139535479 13.780016,1.12697849 13.780016,2.33953804 L13.780016,5.85954214 C13.780016,6.07954239 13.6750159,6.18698438 13.4600157,6.18698438 C13.2450154,6.18698438 13.1400153,6.07954239 13.1400153,5.85954214 L13.1400153,2.33953804 C13.1400153,1.45953702 12.2800143,0.799536247 11.3150132,0.799536247 L2.71500316,0.799536247 C1.75000204,0.799536247 0.890001036,1.45953702 0.890001036,2.33953804 L0.890001036,13.3344346 C0.890001036,14.2144356 1.75000204,14.8744363 2.71500316,14.8744363 L7.12000829,14.8744363 C7.33500854,14.8744363 7.44000866,14.9818783 7.44000866,15.2018786 C7.44000866,15.4218788 7.33500854,15.5344371 7.12000829,15.5344371 Z" id="路径" fill-rule="nonzero"></path>
                    <path d="M11.7400137,15.7493211 C9.48501104,15.7493211 7.65500891,13.8818771 7.65500891,11.5693162 C7.65500891,9.26187168 9.48001103,7.38931136 11.7400137,7.38931136 C13.9950163,7.38931136 15.8250184,9.25675539 15.8250184,11.5693162 C15.8200184,13.8818771 13.9950163,15.7493211 11.7400137,15.7493211 L11.7400137,15.7493211 Z M11.7400137,8.05442841 C9.80501141,8.05442841 8.30000966,9.5944302 8.30000966,11.5744325 C8.30000966,13.5544284 9.80501141,15.0944366 11.7400137,15.0944366 C13.6750159,15.0944366 15.1800177,13.5544284 15.1800177,11.5744325 C15.1750177,9.5944302 13.6750159,8.05442841 11.7400137,8.05442841 Z" id="形状" fill-rule="nonzero"></path>
                    <polygon id="路径" fill-rule="nonzero" points="10.8400126 12.5209452 9.73001132 11.3902462 9.27001079 11.8609445 10.7900126 13.4214114 14.3100167 10.5409429 13.9000162 10.0139656 10.8400126 12.5209452"></polygon>
                </g>
            </g>
        </g>
    </g>
</svg>