<?xml version="1.0" encoding="UTF-8"?>
<svg width="17px" height="16px" viewBox="0 0 17 16" version="1.1" xmlns="http://www.w3.org/2000/svg" xmlns:xlink="http://www.w3.org/1999/xlink">
    <!-- Generator: Sketch 63.1 (92452) - https://sketch.com -->
    <title>交易商审核_green</title>
    <desc>Created with Sketch.</desc>
    <g id="页面-1" stroke="none" stroke-width="1" fill="none" fill-rule="evenodd">
        <g id="画板" transform="translate(-230.000000, -128.000000)" fill="#6ABF4B">
            <g id="交易商审核_green" transform="translate(230.000000, 128.000000)">
                <g>
                    <path d="M10.8747002,3.76698156 L2.88469086,3.76698156 C2.65625309,3.76698156 2.53937795,3.65953958 2.53937795,3.43953932 C2.53937795,3.21953906 2.65625309,3.10698079 2.88469086,3.10698079 L10.8747002,3.10698079 C11.1031379,3.10698079 11.2147005,3.21442278 11.2147005,3.43442303 C11.2147005,3.65953958 11.1031379,3.76698156 10.8747002,3.76698156 Z M10.8747002,6.51442662 L2.88469086,6.51442662 C2.65625309,6.51442662 2.54469046,6.40698463 2.54469046,6.18698438 C2.54469046,5.96698412 2.65625309,5.85954214 2.88469086,5.85954214 L10.8747002,5.85954214 C11.1031379,5.85954214 11.2147005,5.96698412 11.2147005,6.18698438 C11.2147005,6.40698463 11.1031379,6.51442662 10.8747002,6.51442662 Z M7.44813367,9.26698796 L2.87937835,9.26698796 C2.65094058,9.26698796 2.53937795,9.15954598 2.53937795,8.93954572 C2.53937795,8.71954546 2.65094058,8.61210348 2.87937835,8.61210348 L7.44813367,8.61210348 C7.67657143,8.61210348 7.78813406,8.71954546 7.78813406,8.93954572 C7.79344657,9.15442969 7.67657143,9.26698796 7.44813367,9.26698796 Z M7.44813367,12.014433 L2.87937835,12.014433 C2.65094058,12.014433 2.53937795,11.906991 2.53937795,11.6869908 C2.53937795,11.4669905 2.65094058,11.3595485 2.87937835,11.3595485 L7.44813367,11.3595485 C7.67657143,11.3595485 7.78813406,11.4669905 7.78813406,11.6869908 C7.79344657,11.9018747 7.67657143,12.014433 7.44813367,12.014433 Z" id="形状" fill-rule="nonzero"></path>
                    <path d="M7.5650088,15.5344371 L2.88469086,15.5344371 C1.40250163,15.5344371 0.260294347,14.5469941 0.260294347,13.3344346 L0.260294347,2.33953804 C0.255000297,1.12697849 1.39718913,0.139535479 2.88469086,0.139535479 L12.016889,0.139535479 C13.4990782,0.139535479 14.641267,1.12697849 14.641267,2.33953804 L14.641267,5.85954214 C14.641267,6.07954239 14.5297044,6.18698438 14.3012666,6.18698438 C14.0728289,6.18698438 13.9612662,6.07954239 13.9612662,5.85954214 L13.9612662,2.33953804 C13.9612662,1.45953702 13.0475152,0.799536247 12.0222015,0.799536247 L2.88469086,0.799536247 C1.85937716,0.799536247 0.9456261,1.45953702 0.9456261,2.33953804 L0.9456261,13.3344346 C0.9456261,14.2144356 1.85937716,14.8744363 2.88469086,14.8744363 L7.5650088,14.8744363 C7.79344657,14.8744363 7.9050092,14.9818783 7.9050092,15.2018786 C7.9050092,15.4218788 7.79344657,15.5344371 7.5650088,15.5344371 Z" id="路径" fill-rule="nonzero"></path>
                    <path d="M12.4737645,15.7493211 C10.0778242,15.7493211 8.13344696,13.8818771 8.13344696,11.5693162 C8.13344696,9.26187168 10.0725117,7.38931136 12.4737645,7.38931136 C14.8697048,7.38931136 16.8140821,9.25675539 16.8140821,11.5693162 C16.8087696,13.8818771 14.8697048,15.7493211 12.4737645,15.7493211 L12.4737645,15.7493211 Z M12.4737645,8.05442841 C10.4178246,8.05442841 8.81876026,9.5944302 8.81876026,11.5744325 C8.81876026,13.5544284 10.4178246,15.0944366 12.4737645,15.0944366 C14.5297044,15.0944366 16.1287688,13.5544284 16.1287688,11.5744325 C16.1234563,9.5944302 14.5297044,8.05442841 12.4737645,8.05442841 Z" id="形状" fill-rule="nonzero"></path>
                    <polygon id="路径" fill-rule="nonzero" points="11.5175134 12.5209452 10.338137 11.3902462 9.84938646 11.8609445 11.4643883 13.4214114 15.2043927 10.5409429 14.7687672 10.0139656 11.5175134 12.5209452"></polygon>
                </g>
            </g>
        </g>
    </g>
</svg>