<?xml version="1.0" encoding="UTF-8"?>
<svg width="18px" height="16px" viewBox="0 0 18 16" version="1.1" xmlns="http://www.w3.org/2000/svg" xmlns:xlink="http://www.w3.org/1999/xlink">
    <!-- Generator: Sketch 63.1 (92452) - https://sketch.com -->
    <title>企业</title>
    <desc>Created with Sketch.</desc>
    <g id="Page" stroke="none" stroke-width="1" fill="none" fill-rule="evenodd">
        <g id="画板" transform="translate(-127.000000, -63.000000)" fill="#6ABF4B">
            <g id="企业" transform="translate(127.000000, 63.000000)">
                <g id="qiye-2">
                    <path d="M7.51128967,7.0530998 L4.55644836,7.0530998 C4.25829389,7.0530998 4.01659194,7.30292094 4.01659194,7.61109093 C4.01659194,7.91926093 4.25829389,8.16908207 4.55644836,8.16908207 L7.51128967,8.16908207 C7.80944414,8.16908207 8.0511461,7.91926093 8.0511461,7.61109093 C8.0511461,7.30292094 7.80944414,7.0530998 7.51128967,7.0530998 Z M7.51128967,10.7433191 L4.55644836,10.7433191 C4.25828972,10.7433191 4.01658438,10.9931437 4.01658438,11.301318 C4.01658438,11.6094923 4.25828972,11.859317 4.55644836,11.859317 L7.51128967,11.859317 C7.80944832,11.859317 8.05115365,11.6094923 8.05115365,11.301318 C8.05115365,10.9931437 7.80944832,10.7433191 7.51128967,10.7433191 L7.51128967,10.7433191 Z M13.690927,10.7433191 L11.6502469,10.7433191 C11.3520882,10.7433191 11.1103829,10.9931437 11.1103829,11.301318 C11.1103829,11.6094923 11.3520882,11.859317 11.6502469,11.859317 L13.690927,11.859317 C13.9890856,11.859317 14.2307909,11.6094923 14.2307909,11.301318 C14.2307909,10.9931437 13.9890856,10.7433191 13.690927,10.7433191 L13.690927,10.7433191 Z" id="形状" fill-rule="nonzero"></path>
                    <path d="M16.1059043,14.8799406 L16.1059043,7.99796927 C16.1060489,7.80620421 16.0109101,7.62779781 15.8539647,7.52552672 L9.85071537,3.59722727 L9.85071537,0.557983325 C9.85011412,0.359709475 9.74775989,0.176657962 9.58184592,0.0771340497 C9.41593195,-0.0223898623 9.21138219,-0.0234354815 9.04452393,0.0743873626 L2.07306801,4.16637963 C1.9045426,4.26516983 1.800158,4.44972567 1.7995466,4.64997559 L1.7995466,14.8799406 L0,14.8799406 L0,15.9959385 L17.9954358,15.9959385 L17.9954358,14.8799406 L16.1059043,14.8799406 Z M2.87927456,14.8799406 L2.87927456,4.97362779 L8.77456927,1.51403745 L8.77456927,14.8762228 L2.87927456,14.8799406 Z M9.85429723,14.8799406 L9.85429723,4.92898288 L15.0297884,8.31417023 L15.0297884,14.8873763 L9.85429723,14.8799406 Z" id="形状" fill-rule="nonzero"></path>
                </g>
            </g>
        </g>
    </g>
</svg>