<?xml version="1.0" encoding="UTF-8"?>
<svg width="21px" height="19px" viewBox="0 0 21 19" version="1.1" xmlns="http://www.w3.org/2000/svg" xmlns:xlink="http://www.w3.org/1999/xlink">
    <!-- Generator: Sketch 63.1 (92452) - https://sketch.com -->
    <title>用户</title>
    <desc>Created with Sketch.</desc>
    <g id="页面-1" stroke="none" stroke-width="1" fill="none" fill-rule="evenodd">
        <g id="画板" transform="translate(-561.000000, -96.000000)" fill="#6ABF4B">
            <g id="用户" transform="translate(561.000000, 96.000000)">
                <g id="形状">
                    <path d="M8.25139484,0.14778102 C11.3077061,0.14778102 13.771709,2.50483932 13.771709,5.40762047 C13.771709,7.23056704 12.788477,8.83290224 11.3077061,9.77340333 C14.1389402,10.9112935 16.1409425,13.5818522 16.1409425,16.6820225 L16.1409425,18.0869686 C16.1527887,18.4933579 15.7974036,18.8300805 15.3590954,18.8300805 C14.9326334,18.8300805 14.5654022,18.504969 14.5654022,18.0869686 L14.5654022,16.6820225 C14.5654022,13.372852 11.7341681,10.6790711 8.26324101,10.6790711 C4.7923139,10.6790711 1.94923366,13.372852 1.94923366,16.6820225 L1.94923366,18.0869686 C1.94923366,18.4933579 1.6056948,18.8300805 1.15554043,18.8300805 C0.729078398,18.8300805 0.361847201,18.504969 0.361847201,18.0869686 L0.361847201,16.6820225 C0.361847201,13.5702411 2.35200336,10.9112935 5.19508359,9.77340333 C3.71431264,8.83290224 2.73108073,7.23056704 2.73108073,5.40762047 C2.7429269,2.50483932 5.20692976,0.14778102 8.25139484,0.14778102 L8.25139484,0.14778102 Z M17.6572519,3.37567367 C19.4460233,4.5716195 19.8724853,6.91706668 18.6167915,8.60067975 C18.3917143,8.91418011 18.1074063,9.18123598 17.799406,9.41345847 C19.6592543,10.4120152 20.9031019,12.3046285 20.9031019,14.4759088 L20.9031019,15.5325211 C20.9031019,15.9505216 20.5477168,16.2756331 20.1094086,16.2756331 C19.6829466,16.2756331 19.3157154,15.9505216 19.3157154,15.5325211 L19.3157154,14.4759088 C19.3157154,12.0840171 17.2781746,10.1565704 14.766787,10.1449593 C14.340325,10.1449593 13.9730938,9.81984783 13.9730938,9.40184734 C13.9730938,8.98384686 14.3166327,8.65873537 14.766787,8.65873537 C15.0510951,8.65873537 15.3354031,8.68195762 15.6197111,8.71679099 C15.6789419,8.69356874 15.7263266,8.68195762 15.7974036,8.67034649 C17.0886359,8.44973513 17.9534061,7.27701154 17.7164828,6.0346212 C17.5980211,5.45406497 17.2544822,4.93156436 16.7569432,4.59484175 C16.247558,4.25811914 15.6078649,4.11878564 14.9918642,4.22328576 C14.5654022,4.26973026 14.1626325,3.97945215 14.1152478,3.57306278 C14.0678632,3.18989567 14.3284788,2.84156193 14.7194024,2.76028406 C15.750019,2.57450607 16.8043279,2.80672856 17.6572519,3.37567367 Z M8.25139484,1.6456161 C6.0717,1.6456161 4.31846719,3.34084029 4.31846719,5.40762047 C4.31846719,7.47440066 6.08354617,9.15801373 8.25139484,9.15801373 C10.4310897,9.15801373 12.1961687,7.46278953 12.1961687,5.39600935 C12.1961687,3.32922917 10.4310897,1.6456161 8.25139484,1.6456161 Z" fill-rule="nonzero"></path>
                </g>
            </g>
        </g>
    </g>
</svg>