<?xml version="1.0" encoding="UTF-8"?>
<svg width="16px" height="16px" viewBox="0 0 16 16" version="1.1" xmlns="http://www.w3.org/2000/svg" xmlns:xlink="http://www.w3.org/1999/xlink">
    <!-- Generator: Sketch 63.1 (92452) - https://sketch.com -->
    <title>仓库配置</title>
    <desc>Created with Sketch.</desc>
    <g id="页面-1" stroke="none" stroke-width="1" fill="none" fill-rule="evenodd">
        <g id="画板" transform="translate(-34.000000, -96.000000)" fill="#666666">
            <g id="仓库配置" transform="translate(34.000000, 96.000000)">
                <g id="形状">
                    <path d="M8.95000764,12.5714365 L14.5373114,12.5714365 L14.5373114,13.7142956 L14.5373114,10.2857135 L14.5373114,11.4285727 L8.95000764,11.4285727 L8.95000764,12.5714318 L8.95000764,12.5714365 Z M8.95000764,13.7142956 L8.95000764,14.8571548 L14.5373114,14.8571548 L14.5373114,13.7142956 L8.95000764,13.7142956 Z M14.5373114,10.2857135 L14.5373114,9.14285439 L8.95000764,9.14285439 L8.95000764,10.2857135 L14.5373114,10.2857135 L14.5373114,10.2857135 Z M13.4198491,7.99999212 L15.0960371,7.99999212 L15.0960371,7.99999212 C15.404615,7.99999211 15.6547675,8.25582992 15.6547675,8.57142091 C15.6547675,8.57142091 15.6547675,8.57142091 15.6547675,8.57142091 L15.6547675,15.4285695 L15.6547675,15.4285695 C15.6547675,15.7441605 15.404615,15.9999983 15.0960371,15.9999983 L8.3912696,15.9999983 L8.39126959,15.9999983 C8.08269173,15.9999983 7.83253922,15.7441605 7.83253922,15.4285695 L7.83253922,14.8571407 L1.68649596,14.8571407 L1.68649595,14.8571407 C1.37791809,14.8571407 1.12776557,14.6013029 1.12776557,14.2857119 L1.12776557,7.42856333 L1.12776557,7.42865774 C1.12776557,7.11306674 1.37791808,6.85722895 1.68649594,6.85722895 C1.99500199,6.85722899 2.24512395,7.11295112 2.24522631,7.42846867 L2.24522631,13.7142885 L7.83253004,13.7142885 L7.83253004,8.57142313 L7.83253004,8.57142322 C7.83252999,8.25583222 8.08268255,7.99999443 8.39126041,7.99999443 L12.3023761,7.99999443 L12.3023761,7.42856564 L12.3023761,7.42847123 C12.302376,7.11288024 12.5525286,6.85704244 12.8611064,6.85704244 C13.1696843,6.85704244 13.4198368,7.11288024 13.4198368,7.42847123 C13.4198368,7.42853422 13.4198368,7.42859722 13.4198368,7.42866021 L13.4198368,7.99999525 L13.4198491,7.99999212 Z M13.620992,6.72456251 L7.27381652,1.31541559 L0.926641078,6.72456251 L0.926641067,6.72456252 C0.694394131,6.93235964 0.341411359,6.90826117 0.138230428,6.67073558 C-0.0649489752,6.43321031 -0.0413860312,6.0722052 0.190861211,5.86440652 C0.197590744,5.85838544 0.204460619,5.85253043 0.211464846,5.8468465 L6.91623237,0.132558601 L6.91623238,0.132558594 C7.12339929,-0.043918174 7.42424047,-0.043918174 7.63140738,0.132558609 L14.3361749,5.84684651 L14.3361749,5.8468465 C14.5684218,6.05464362 14.5919848,6.41565029 14.3888057,6.65317556 C14.1924891,6.88267739 13.8545641,6.91409618 13.6209987,6.72456252 L13.620992,6.72456251 Z" fill-rule="nonzero"></path>
                </g>
            </g>
        </g>
    </g>
</svg>