<?xml version="1.0" encoding="UTF-8"?>
<svg width="18px" height="18px" viewBox="0 0 18 18" version="1.1" xmlns="http://www.w3.org/2000/svg" xmlns:xlink="http://www.w3.org/1999/xlink">
    <!-- Generator: Sketch 63.1 (92452) - https://sketch.com -->
    <title>icon_管理</title>
    <desc>Created with Sketch.</desc>
    <g id="Page" stroke="none" stroke-width="1" fill="none" fill-rule="evenodd">
        <g id="画板" transform="translate(-239.000000, -62.000000)" fill="#6ABF4B" fill-rule="nonzero">
            <g id="icon_管理" transform="translate(239.000000, 62.000000)">
                <g id="guanli">
                    <path d="M17.155991,7.21123964 L15.4011568,7.21123964 C15.2561291,6.68499655 15.046875,6.18568715 14.7837535,5.72159876 L16.0247756,4.48057666 C16.34798,4.15737224 16.34798,3.63112914 16.0247756,3.30792472 L14.6760186,1.95916782 C14.3528142,1.6359634 13.8265711,1.6359634 13.5033667,1.95916782 L12.2623446,3.20018992 C11.7982562,2.93706837 11.2989468,2.72781423 10.7727037,2.5827866 L10.7727037,0.830024171 C10.7727037,0.374223066 10.3997756,0.00129488957 9.94397445,0.00129488957 L8.0378971,0.00129488957 C7.58209599,0.00129488957 7.20916782,0.374223066 7.20916782,0.830024171 L7.20916782,2.58485843 C6.68292472,2.72988605 6.18361533,2.93914019 5.71952693,3.20226174 L4.47850483,1.96123964 C4.15530041,1.63803522 3.62905732,1.63803522 3.3058529,1.96123964 L1.95709599,3.30999655 C1.63389157,3.63320097 1.63389157,4.15944406 1.95709599,4.48264848 L3.19811809,5.72367058 C2.93499655,6.18775898 2.7257424,6.68706837 2.58071478,7.21331146 L0.830024171,7.21331146 C0.374223066,7.21331146 0.00129488957,7.58623964 0.00129488957,8.04204075 L0.00129488957,9.94811809 C0.00129488957,10.4039192 0.374223066,10.7768474 0.830024171,10.7768474 L2.58485843,10.7768474 C2.72988605,11.3030905 2.93914019,11.8023999 3.20226174,12.2664883 L1.96123964,13.5075104 C1.63803522,13.8307148 1.63803522,14.3569579 1.96123964,14.6801623 L3.30999655,16.0289192 C3.63320097,16.3521236 4.15944406,16.3521236 4.48264848,16.0289192 L5.72367058,14.7878971 C6.18775898,15.0510186 6.68706837,15.2602728 7.21331146,15.4053004 L7.21331146,17.155991 C7.21331146,17.6117921 7.58623964,17.9847203 8.04204075,17.9847203 L9.94811809,17.9847203 C10.4039192,17.9847203 10.7768474,17.6117921 10.7768474,17.155991 L10.7768474,15.4011568 C11.3030905,15.2561291 11.8023999,15.046875 12.2664883,14.7837535 L13.5075104,16.0247756 C13.8307148,16.34798 14.3569579,16.34798 14.6801623,16.0247756 L16.0289192,14.6760186 C16.3521236,14.3528142 16.3521236,13.8265711 16.0289192,13.5033667 L14.7878971,12.2623446 C15.0510186,11.7982562 15.2602728,11.2989468 15.4053004,10.7727037 L17.155991,10.7727037 C17.6117921,10.7727037 17.9847203,10.3997756 17.9847203,9.94397445 L17.9847203,8.0378971 C17.9847203,7.58416782 17.6117921,7.21123964 17.155991,7.21123964 L17.155991,7.21123964 Z M8.9930076,12.6394164 C6.97919544,12.6394164 5.34659876,11.0068198 5.34659876,8.9930076 C5.34659876,6.97919544 6.97919544,5.34659876 8.9930076,5.34659876 C11.0068198,5.34659876 12.6394164,6.97919544 12.6394164,8.9930076 C12.6394164,11.0068198 11.0068198,12.6394164 8.9930076,12.6394164 Z" id="形状"></path>
                </g>
            </g>
        </g>
    </g>
</svg>