<?xml version="1.0" encoding="UTF-8"?>
<svg width="18px" height="18px" viewBox="0 0 18 18" version="1.1" xmlns="http://www.w3.org/2000/svg" xmlns:xlink="http://www.w3.org/1999/xlink">
    <!-- Generator: Sketch 63.1 (92452) - https://sketch.com -->
    <title>huiyuanzhongxin-5</title>
    <desc>Created with Sketch.</desc>
    <g id="Page" stroke="none" stroke-width="1" fill="none" fill-rule="evenodd">
        <g id="画板" transform="translate(-294.000000, -62.000000)" fill="#6ABF4B">
            <g id="huiyuanzhongxin-5" transform="translate(294.000000, 62.000000)">
                <g id="形状">
                    <path d="M8.99948435,0.0168905391 C4.03861582,0.0168905391 0.0163988906,4.03872373 0.0163988906,8.999976 C0.0163988906,13.9612283 4.03861582,17.9830855 8.99948435,17.9830855 C13.9608565,17.9830855 17.9828336,13.9612283 17.9828336,8.999976 C17.9828336,4.03872373 13.9608805,0.0168905391 8.99948435,0.0168905391 Z M14.2981639,13.1456612 C14.2981639,13.2003442 14.2915443,13.2534681 14.2794565,13.3044816 C14.2786171,13.3532885 14.2777537,13.3683263 14.2769622,13.3153222 C14.2011496,13.6138478 13.9299415,13.8349059 13.6070484,13.8349059 L4.39196824,13.8349059 C4.01036297,13.8349059 3.7008768,13.5261633 3.7008768,13.1456612 L3.7008768,12.915849 C3.7008768,12.8656271 3.70639305,12.8167242 3.71663412,12.7695482 C3.75294551,11.7303088 4.55328286,11.4785036 4.55328286,11.4785036 L6.92820066,10.6967296 L7.73163192,10.2645906 L7.72604372,9.37500973 C7.72604372,9.37500973 7.12585064,9.0889317 7.12462748,8.37493577 C7.09831732,8.37272927 7.07054416,8.37054675 7.03787829,8.36651749 C6.60972059,8.31205043 6.2427454,7.64410329 6.2113027,7.19085858 C6.17986003,6.73737403 6.55196773,6.69885616 6.55196773,6.69885616 L6.87656365,6.8057277 C6.87656365,6.8057277 6.73498765,6.38476512 6.73498765,5.2113127 C6.73498765,4.67215826 6.87948968,4.40814525 7.16727056,4.23596599 C7.16727056,4.23399933 7.16655105,4.2318168 7.16655105,4.22939445 C7.16655105,4.22939445 6.73498765,3.21056522 9.04143188,3.19008309 C11.2643168,3.2105652 11.2589684,5.10542449 11.2589684,5.10542449 L11.2516294,5.80090495 L11.1856021,6.71202321 C11.2092261,6.70312523 11.4994533,6.69885614 11.5289293,6.69885614 C11.7879537,6.69885614 11.7672558,7.21203621 11.7672558,7.21203621 C11.7672558,7.21203621 11.4550834,8.31202641 11.0269497,8.36649349 C10.9894391,8.37100245 10.9579965,8.37368862 10.9285204,8.3756313 C10.851029,8.96143413 10.2554647,9.35668615 10.2554647,9.35668615 L10.2554647,10.2880707 L11.0433066,10.697665 L13.4986419,11.4874495 C13.4986419,11.4874495 14.2062581,11.7223222 14.2695992,12.7195661 C14.2880906,12.7817799 14.2981639,12.8475913 14.2981639,12.915801 L14.2981639,13.1456612 L14.2981639,13.1456612 Z" fill-rule="nonzero"></path>
                </g>
            </g>
        </g>
    </g>
</svg>