<?xml version="1.0" encoding="UTF-8"?>
<svg width="18px" height="17px" viewBox="0 0 18 17" version="1.1" xmlns="http://www.w3.org/2000/svg" xmlns:xlink="http://www.w3.org/1999/xlink">
    <!-- Generator: Sketch 63.1 (92452) - https://sketch.com -->
    <title>信息发布</title>
    <desc>Created with Sketch.</desc>
    <g id="页面-1" stroke="none" stroke-width="1" fill="none" fill-rule="evenodd">
        <g id="画板" transform="translate(-494.000000, -63.000000)" fill="#666666" fill-rule="nonzero">
            <g id="信息发布" transform="translate(494.000000, 63.000000)">
                <path d="M0.454009927,8.92224149 L16.681018,0.109620499 L16.6810179,0.109620546 C17.1081545,-0.122239332 17.6481663,0.0257227169 17.8871623,0.440102356 C17.984292,0.608508081 18.0201984,0.803718155 17.9891035,0.994322054 L15.8621347,14.1436073 L15.8621347,14.1436074 C15.7862671,14.6127046 15.3327782,14.9333196 14.8492392,14.8597167 C14.8038502,14.8528079 14.7590835,14.8424853 14.7153446,14.8288425 L9.07888238,13.0731947 L9.07888243,13.0731947 C8.61281301,12.9281758 8.35616804,12.4440745 8.50565204,11.991925 C8.53261542,11.9103673 8.57198953,11.8331762 8.62247012,11.7629084 L12.9171725,5.78752924 L5.6695275,11.8093392 L5.66952749,11.8093392 C5.42668567,12.0109504 5.090755,12.0700854 4.79037907,11.9640976 L0.5834003,10.4801373 L0.583400346,10.4801373 C0.123457043,10.3177513 -0.113709401,9.82439037 0.0536755504,9.37818174 C0.126255234,9.18470218 0.267995074,9.02291644 0.453123465,8.92223791 L0.454009927,8.92224149 Z M7.61746935,14.4617349 L7.00153547,16.446081 L7.00153548,16.446081 C6.93092498,16.6734024 7.06363776,16.9132152 7.29795658,16.9817166 C7.41751761,17.0166692 7.54673066,17.0010599 7.65380439,16.9387289 L10.0351233,15.5502022 L10.0351233,15.5502022 C10.244666,15.4275523 10.3120465,15.163331 10.18562,14.9600462 C10.1323638,14.8744134 10.0499973,14.8094744 9.95270331,14.7764109 L8.18820522,14.1797311 L8.18820521,14.1797311 C7.95721504,14.1013048 7.70442628,14.2193896 7.62358482,14.4434818 C7.62140594,14.4495216 7.61936635,14.4556079 7.61746757,14.4617361 L7.61746935,14.4617349 Z" id="形状"></path>
            </g>
        </g>
    </g>
</svg>