<?xml version="1.0" encoding="UTF-8"?>
<svg width="18px" height="17px" viewBox="0 0 18 17" version="1.1" xmlns="http://www.w3.org/2000/svg" xmlns:xlink="http://www.w3.org/1999/xlink">
    <!-- Generator: Sketch 63.1 (92452) - https://sketch.com -->
    <title>信息发布</title>
    <desc>Created with Sketch.</desc>
    <g id="页面-1" stroke="none" stroke-width="1" fill="none" fill-rule="evenodd">
        <g id="画板" transform="translate(-520.000000, -63.000000)" fill="#6ABF4B" fill-rule="nonzero">
            <g id="信息发布" transform="translate(520.000000, 63.000000)">
                <path d="M0.91869948,9.15815987 L16.6130068,0.601233527 L16.6130067,0.601233573 C17.0261213,0.376101016 17.5484055,0.519770005 17.7795557,0.922126585 C17.8734969,1.08564609 17.9082245,1.27519222 17.8781504,1.46026582 L15.8210058,14.2280298 L15.8210058,14.2280299 C15.7476287,14.6835165 15.3090271,14.994829 14.8413617,14.9233617 C14.7974627,14.9166532 14.7541656,14.9066302 14.7118625,14.8933832 L9.26043432,13.1886749 L9.26043437,13.1886749 C8.80966509,13.0478636 8.56144527,12.5778083 8.706022,12.1387778 C8.73210024,12.0595864 8.77018176,11.984635 8.81900518,11.9164059 L12.972721,6.11440003 L5.96300186,11.9614896 L5.96300185,11.9614896 C5.72813205,12.1572511 5.40322932,12.2146704 5.11271414,12.1117577 L1.04384222,10.6708539 L1.04384226,10.6708539 C0.598997997,10.5131796 0.369617262,10.0341333 0.531507294,9.60087119 C0.601704329,9.41300536 0.738791129,9.25591377 0.917842118,9.15815639 L0.91869948,9.15815987 Z M7.8469966,14.5369271 L7.25128263,16.4636982 L7.25128264,16.4636982 C7.18299014,16.6844239 7.31134623,16.9172787 7.53797282,16.9837925 C7.65360889,17.017731 7.77858013,17.0025746 7.88213884,16.9420521 L10.1852837,15.593813 L10.1852837,15.5938129 C10.3879476,15.4747217 10.4531161,15.2181667 10.3308399,15.0207801 C10.279332,14.9376319 10.1996695,14.874577 10.1055694,14.8424729 L8.39899634,14.2631055 L8.39899633,14.2631055 C8.17558912,14.1869547 7.93109891,14.3016134 7.85291132,14.5192036 C7.85080397,14.5250682 7.84883134,14.5309779 7.84699489,14.5369283 L7.8469966,14.5369271 Z" id="形状"></path>
            </g>
        </g>
    </g>
</svg>