<?xml version="1.0" encoding="UTF-8"?>
<svg width="19px" height="19px" viewBox="0 0 19 19" version="1.1" xmlns="http://www.w3.org/2000/svg" xmlns:xlink="http://www.w3.org/1999/xlink">
    <!-- Generator: Sketch 63.1 (92452) - https://sketch.com -->
    <title>qiyexinxi-2</title>
    <desc>Created with Sketch.</desc>
    <g id="Page" stroke="none" stroke-width="1" fill="none" fill-rule="evenodd">
        <g id="画板" transform="translate(-376.000000, -62.000000)" fill="#666666" fill-rule="nonzero">
            <g id="qiyexinxi-2" transform="translate(376.000000, 62.000000)">
                <path d="M8.90630157,0.00124346543 L3.66457109,0.00124346543 C1.14774748,-0.0411603536 0,1.00784023 0,2.09344748 L0,2.64348125 L0,16.625169 L0,16.6437763 C0.204087907,17.9769889 1.78261526,19 3.66457109,19 L19,19 L19,16.6251473 L19,13.6566194 L19,0.00124346543 L8.90630157,0.00124346543 Z M8.13311696,1.36250812 L8.14288817,6.78648419 L6.79183448,5.93834267 L5.42857762,6.78648419 L5.42857762,1.35829595 L8.13311696,1.36250812 Z M17.6387625,17.6388873 L3.66457109,17.6388873 C2.34454641,17.6388873 1.36121574,17.1411581 1.36121574,16.350011 C1.36121574,15.5588639 2.34454641,14.9308835 3.66457109,14.9308835 L17.6387625,14.9308835 L17.6387625,17.6388873 Z M3.66457109,13.5828198 C2.70901236,13.5828198 2.01460538,13.9225932 1.36121574,14.360006 L1.36121574,2.64076724 L1.39302645,2.49631634 C1.52821649,1.86816226 1.82163494,1.35831768 4.07144409,1.35831768 L4.07144409,8.9794977 L6.79185619,7.21896842 L9.49991315,8.97202873 L9.49991315,1.35367127 L17.6387626,1.35367127 L17.6387626,13.5828198 L3.66457109,13.5828198 Z" id="形状"></path>
            </g>
        </g>
    </g>
</svg>