<?xml version="1.0" encoding="UTF-8"?>
<svg width="17px" height="18px" viewBox="0 0 17 18" version="1.1" xmlns="http://www.w3.org/2000/svg" xmlns:xlink="http://www.w3.org/1999/xlink">
    <!-- Generator: Sketch 63.1 (92452) - https://sketch.com -->
    <title>申请记录</title>
    <desc>Created with Sketch.</desc>
    <g id="Page" stroke="none" stroke-width="1" fill="none" fill-rule="evenodd">
        <g id="画板" transform="translate(-469.000000, -62.000000)" fill="#6ABF4B">
            <g id="申请记录" transform="translate(469.000000, 62.000000)">
                <g>
                    <path d="M15.9657754,12.4823253 C16.8616964,11.5446233 16.8763058,10.0375233 15.9778282,9.10645083 C15.0793506,8.17537832 13.6249856,8.18016627 12.7199338,9.11786825 L8.04492832,13.9603292 L8.04492831,13.9603293 C7.75523137,14.2629076 7.59225264,14.6663901 7.58984575,15.0869712 L7.58691459,16.2125082 C7.58400199,17.0898083 8.27137388,17.8028449 9.11835339,17.7995417 L10.2041964,17.7958471 L10.2041964,17.7958471 C10.6147239,17.7911952 11.0063579,17.6211839 11.2918656,17.3236814 L15.9657754,12.4823253 Z M9.193957,16.1797291 L9.19760935,15.092864 L9.19760935,15.092864 C9.19879264,15.090883 9.1997717,15.088785 9.20053123,15.0866029 L13.8707886,10.2474566 L13.8707886,10.2474566 C13.9959148,10.1113609 14.1710591,10.0331755 14.35509,10.0312487 L14.35509,10.0312487 C14.5297597,10.030123 14.6972639,10.101202 14.818573,10.2279365 L14.8258777,10.2356709 C15.112587,10.5328922 15.1052823,11.0459397 14.8105378,11.3564199 L10.1589074,16.1764144 L9.193957,16.1797291 Z" id="形状" fill-rule="nonzero"></path>
                    <path d="M5.64679662,17.8024768 L1.67012012,17.8024768 L1.67012006,17.8024768 C0.943951102,17.8024768 0.355274783,17.2088534 0.355274783,16.4765822 C0.355274783,16.4765822 0.355274783,16.4765822 0.355274783,16.4765822 L0.355274783,1.52343977 L0.355274783,1.52343997 C0.355274783,0.791168751 0.943951102,0.197545572 1.67012006,0.197545572 L14.4533381,0.197545572 L14.453338,0.197545572 C15.179507,0.197545572 15.7681833,0.791168751 15.7681833,1.52343997 L15.7681833,6.58467354 L15.7681833,6.58467354 C15.7681833,7.03217211 15.4084361,7.39494234 14.9646667,7.39494234 C14.5208973,7.39494234 14.1611502,7.03217211 14.1611502,6.58467354 L14.1611502,1.81808317 L1.96230785,1.81808317 L1.96230785,16.1819392 L5.64679651,16.1819392 L5.64679647,16.1819392 C6.09056589,16.1819392 6.45031303,16.5447094 6.45031303,16.992208 C6.45031305,17.4397065 6.09056589,17.8024768 5.64679647,17.8024768 L5.64679662,17.8024768 Z" id="路径" fill-rule="nonzero"></path>
                    <path d="M4.2632872,5.00796392 L11.860171,5.00796392 C12.3958481,5.00796392 12.6636876,5.27805413 12.6636876,5.81823272 L12.6636876,5.81823272 C12.6636876,6.3584113 12.3958481,6.62850152 11.860171,6.62850152 L4.2632872,6.62850152 C3.7276101,6.62850152 3.45977064,6.3584113 3.45977064,5.81823272 L3.45977064,5.81823272 C3.45977064,5.27805413 3.7276101,5.00796392 4.2632872,5.00796392 Z" id="路径" fill-rule="nonzero"></path>
                    <path d="M4.2632872,8.17537832 L9.59571528,8.17537832 C10.1313924,8.17537832 10.3992318,8.44546853 10.3992318,8.98564712 L10.3992318,8.98564712 C10.3992318,9.5258257 10.1313924,9.79591592 9.59571528,9.79591592 L4.2632872,9.79591592 C3.7276101,9.79591592 3.45977064,9.5258257 3.45977064,8.98564712 L3.45977064,8.98564712 C3.45977064,8.44546853 3.7276101,8.17537832 4.2632872,8.17537832 Z" id="路径" fill-rule="nonzero"></path>
                </g>
            </g>
        </g>
    </g>
</svg>