<?xml version="1.0" encoding="UTF-8"?>
<svg width="157px" height="157px" viewBox="0 0 157 157" version="1.1" xmlns="http://www.w3.org/2000/svg" xmlns:xlink="http://www.w3.org/1999/xlink">
    <!-- Generator: Sketch 60 (88103) - https://sketch.com -->
    <title>icon_卖家售后</title>
    <desc>Created with Sketch.</desc>
    <g id="icon_卖家售后" stroke="none" stroke-width="1" fill="none" fill-rule="evenodd">
        <g id="卖家" transform="translate(4.000000, 11.000000)" fill="#6ABF4B" fill-rule="nonzero">
            <path d="M147.585741,43.2122271 C147.585741,43.1248737 147.558179,43.0653145 147.558179,42.9779616 L147.558179,42.9779624 C147.502121,42.6706916 147.415046,42.3700084 147.298314,42.0806051 L134.675126,10.5618297 C132.482015,4.03415004 126.245233,0.0278009869 118.909856,0 L30.5159804,0 C23.090117,0 17.3100542,3.97457838 15.2351156,10.2441757 L1.69060273,42.3982327 C1.63154231,42.6007342 1.54492023,42.8627941 1.48585915,43.1526484 L1.48585727,43.1526541 C-3.01149957,56.887766 2.98151057,71.8901439 15.6642556,78.6459948 C19.6213124,80.7623251 24.2988956,81.8343908 29.5553326,81.8343908 L29.555331,81.8343908 C38.2538303,81.8314486 46.5074198,77.9560871 52.1085508,71.2447733 L52.1085493,71.2447715 C57.690652,77.9118781 65.8987958,81.7645568 74.5515225,81.7788002 L74.5515211,81.7788002 C83.1695522,81.7377137 91.3332049,77.8748585 96.8724776,71.2169705 L96.8724791,71.2169724 C102.487303,77.9369378 110.771011,81.7959469 119.484811,81.7510011 C124.855379,81.7192362 129.592022,80.5876116 133.604228,78.3839165 L133.604231,78.3839149 C143.089183,73.1908805 148.996519,63.1808107 148.999642,52.2970145 L148.999642,52.2970422 C149.015006,49.2115679 148.536359,46.1437923 147.581818,43.2122784 L147.585741,43.2122271 Z M128.497378,68.9497689 C126.071965,70.2878694 123.040195,70.9827226 119.488684,70.9827226 L119.488684,70.9827226 C112.963273,71.0054089 106.898348,67.5951829 103.487228,61.9853183 C103.227362,61.4651682 102.82575,60.5638412 102.046148,59.72207 C101.14843,58.7373585 99.5616756,57.5461812 96.9039468,57.5461812 C94.7659597,57.5461812 92.832707,58.4197151 91.7341901,59.7816417 C91.0136518,60.5956171 90.6081037,61.4095952 90.3167426,62.0171022 L90.3167423,62.0171027 C86.9601701,67.5653119 80.9962322,70.967517 74.5514723,71.0105373 L74.5514726,71.0105373 C68.0626272,70.9858416 62.0505756,67.5696904 58.6681092,61.985332 L58.6681092,61.9853318 C58.3482461,61.249004 57.9209024,60.5651076 57.400278,59.9563478 C54.8843005,56.9386878 49.2263068,57.0816228 47.0292599,59.7220822 L47.0292592,59.722083 C46.3995808,60.4348328 45.893741,61.2496734 45.5330566,62.1322493 L45.5330568,62.1322489 C42.1093035,67.6969962 36.0807215,71.0864878 29.5867888,71.0978957 C26.1219055,71.0978957 23.1491957,70.4308329 20.7513377,69.1523014 L20.7513388,69.152302 C12.5837757,64.8016322 8.79259898,55.0866907 11.8292728,46.2895511 C11.8843959,46.1466094 11.9158948,45.9719024 11.9473936,45.8249897 L25.2872375,14.1395139 C25.547103,13.3255384 26.3818245,10.855819 30.5436222,10.855819 L118.964961,10.855819 C120.665898,10.9749374 123.611053,11.2647916 124.65051,14.3420206 L137.12801,45.5946557 C137.187071,45.8249515 137.246131,46.0314226 137.301255,46.2021587 C137.994231,48.2351124 138.340718,50.295854 138.340718,52.3566087 L138.340718,52.3565795 C138.280805,59.2790384 134.513996,65.627858 128.493392,68.9536896 L128.497378,68.9497689 Z M132.513495,86.2457282 L132.513495,86.2457282 C129.556138,86.2347636 127.149897,88.6435369 127.13903,91.6258654 C127.139005,91.6324952 127.138993,91.6391251 127.138993,91.645755 L127.138993,121.099766 L127.138994,121.099743 C127.136833,122.786094 125.779481,124.151376 124.10725,124.1492 C124.107248,124.1492 124.107247,124.1492 124.107245,124.1492 L23.0351366,124.204789 L23.0351366,124.204789 C21.3733679,124.211413 20.0185243,122.862877 20.003367,121.187129 L19.971868,92.2532647 L19.971868,92.2541099 C19.971868,89.2629848 17.5673796,86.8381928 14.6013002,86.8381928 C11.6358748,86.8381928 9.23073245,89.2619561 9.23073245,92.2524218 L9.25829398,121.186286 C9.25829398,128.790001 15.4399527,135 23.0350702,135 L124.134773,134.940441 C131.702388,134.912646 137.884086,128.730402 137.884086,121.098899 L137.884086,91.6448877 C137.884086,88.6828165 135.482291,86.2448625 132.509581,86.2448625 L132.513495,86.2457282 Z" id="形状"></path>
        </g>
    </g>
</svg>