<?xml version="1.0" encoding="UTF-8"?>
<svg width="115px" height="142px" viewBox="0 0 115 142" version="1.1" xmlns="http://www.w3.org/2000/svg" xmlns:xlink="http://www.w3.org/1999/xlink">
    <!-- Generator: Sketch 60 (88103) - https://sketch.com -->
    <title>售后管理</title>
    <desc>Created with Sketch.</desc>
    <g id="页面-1" stroke="none" stroke-width="1" fill="none" fill-rule="evenodd">
        <g id="icon_售后管理" transform="translate(-21.000000, -8.000000)" fill="#6ABF4B" fill-rule="nonzero">
            <g id="售后管理" transform="translate(21.000000, 8.000000)">
                <path d="M55.3034752,141.002467 C54.8153597,140.734863 54.05878,140.321295 53.0581425,139.78609 L52.2039405,139.323866 C43.2226097,134.531335 22.2336803,123.3407 13.7160498,114.777395 C3.4168012,104.486834 0.780979581,93.8800403 0.366086857,91.8608773 L0.366086857,91.8365498 L0.292869542,91.1067235 L0,18.5619591 L57.5,0 L115,18.5619591 L114.633913,91.8609573 C114.341044,93.3206042 111.851655,104.219361 101.28395,114.777475 C91.4240125,124.654459 64.7729083,138.180645 59.5256688,140.783622 L57.158303,142 L55.3034593,141.00257 L55.3034752,141.002467 Z M7.88296205,24.2544805 L8.15155408,90.6931047 L8.17596,90.7660873 C8.5908584,92.3960272 11.0314441,101.007983 19.2805903,109.25507 C26.9928249,116.991235 48.0306612,128.206238 55.9380552,132.439168 C56.2553299,132.609461 56.5481995,132.755426 56.8654756,132.925719 L57.3291858,133.168995 L57.5732436,133.047357 C64.4312747,129.568519 87.4702924,117.575027 95.743885,109.254978 C104.017449,100.983608 106.458026,92.3959493 106.848515,90.7659952 L106.872921,90.6930126 L107.141386,24.2543884 L57.4999719,8.22257057 L7.88296205,24.2543884 L7.88296205,24.2544805 Z M31.0928204,102.175618 L39.0736243,102.175618 L39.0736243,99.0130407 L79.6115748,99.0130407 L79.6115748,102.175618 L87.5190539,102.175618 L87.5190539,80.2807744 L31.0928204,80.2807744 L31.0928204,102.175618 L31.0928204,102.175618 Z M39.0736243,85.8275681 L79.6115748,85.8275681 L79.6115748,93.7097006 L39.0736243,93.7097006 L39.0736243,85.8275681 Z M58.4761943,36.3452746 L60.2090049,39.7997872 L42.2952077,39.7997872 L45.8340404,32.8177853 L37.5604761,31.917666 C34.2900994,39.8727752 29.408945,47.0980892 22.8926662,53.5935799 L24.332603,58.3131206 L25.2356169,61.7676332 C26.3582832,60.6485655 27.4809495,59.4808466 28.5548012,58.3131206 C29.6042505,57.1697259 30.5560819,56.0993107 31.4102853,55.0775522 L31.4102853,77.5805352 L39.0736981,77.5805352 L39.0736981,75.2450833 L92.2539444,75.2450833 L92.2539444,69.6984027 L67.2868858,69.6984027 L67.2868858,64.6626013 L89.0325028,64.6626013 L89.0325028,60.0160372 L67.2868858,60.0160372 L67.2868858,55.0775381 L89.0325028,55.0775381 L89.0325028,50.0417367 L67.2868858,50.0417367 L67.2868858,45.1032376 L91.0581589,45.1032376 L91.0581589,39.7755012 L69.0196964,39.7755012 C68.4583639,38.4861404 67.823813,37.1238029 67.0672375,35.6884674 C66.3106578,34.2531462 65.5052676,32.8908016 64.6510642,31.6014337 L56.6703737,32.7934838 L58.4763957,36.3453128 L58.4761943,36.3452746 Z M59.6232658,69.6983065 L39.0979799,69.6983065 L39.0979799,64.6625052 L59.6232658,64.6625052 L59.6232658,69.6983065 Z M59.6232658,60.0402666 L39.0979799,60.0402666 L39.0979799,55.1017675 L59.6232658,55.1017675 L59.6232658,60.0402666 Z M59.6232658,50.0659661 L39.0979799,50.0659661 L39.0979799,45.127467 L59.6232658,45.127467 L59.6232658,50.0659661 Z" id="形状"></path>
            </g>
        </g>
    </g>
</svg>