<?xml version="1.0" encoding="UTF-8"?>
<svg width="12px" height="19px" viewBox="0 0 12 19" version="1.1" xmlns="http://www.w3.org/2000/svg" xmlns:xlink="http://www.w3.org/1999/xlink">
    <!-- Generator: Sketch 63.1 (92452) - https://sketch.com -->
    <title>商品分类管理_grey</title>
    <desc>Created with Sketch.</desc>
    <g id="页面-1" stroke="none" stroke-width="1" fill="none" fill-rule="evenodd">
        <g id="画板" transform="translate(-940.000000, -95.000000)" fill="#666666">
            <g id="商品分类管理_grey" transform="translate(940.000000, 95.000000)">
                <g id="形状">
                    <path d="M4.21476782,1.03377376 L4.21476782,4.10626659 L1.16537644,4.10626659 L1.16537644,1.03377376 L4.21476782,1.03377376 Z M4.72633103,0.00540498676 L0.65380955,0.00540498676 C0.348369518,0.00540498676 0.144717662,0.210581104 0.144717662,0.518335076 L0.144717662,4.62170899 C0.144717662,4.87816476 0.348351103,5.13463908 0.653791134,5.13463908 L4.72633103,5.13463908 C4.98085856,5.13463908 5.2354045,4.87816476 5.2354045,4.62170899 L5.2354045,0.518335076 C5.2354045,0.210581104 4.98085856,0.00540498676 4.72633103,0.00540498676 L4.72633103,0.00540498676 Z M10.8326272,7.70176843 L10.8326272,10.7742613 L7.78323581,10.7742613 L7.78323581,7.70176843 L10.8326272,7.70176843 Z M11.3441904,6.67339966 L7.27166892,6.67339966 C7.0171414,6.67339966 6.76259545,6.92987398 6.76259545,7.18632975 L6.76259545,11.2897037 C6.76259545,11.5461594 7.0171414,11.8026338 7.27166892,11.8026338 L11.3441904,11.8026338 C11.5987363,11.8026338 11.8532639,11.5461594 11.8532639,11.2897037 L11.8532639,7.18632975 C11.8532639,6.92987398 11.5987363,6.67339966 11.3441904,6.67339966 Z M10.8326272,14.8826895 L10.8326272,17.9551823 L7.78323581,17.9551823 L7.78323581,14.8826895 L10.8326272,14.8826895 Z M11.3441904,13.8543022 L7.27166892,13.8543022 C7.0171414,13.8543022 6.76259545,14.1107765 6.76259545,14.3672341 L6.76259545,18.4706266 C6.76259545,18.7270823 7.0171414,18.98354 7.27166892,18.98354 L11.3441904,18.98354 C11.5987363,18.98354 11.8532639,18.7270842 11.8532639,18.4706266 L11.8532639,14.3672155 C11.8532639,14.1107598 11.5987363,13.8543022 11.3441904,13.8543022 L11.3441904,13.8543022 Z M6.78385028,16.5728175 L2.56675106,16.5728175 L2.07918102,15.9059835 L2.07918102,5.13464094 L3.09494319,5.13464094 L3.09494319,15.4298512 L6.78385028,15.4298512 L6.78385028,16.5728175 L6.78385028,16.5728175 Z M2.7113288,8.90002784 L6.78385028,8.90002784 L6.78385028,9.96774929 L2.7113288,9.96774929 L2.7113288,8.90002784 Z" fill-rule="nonzero"></path>
                </g>
            </g>
        </g>
    </g>
</svg>