<?xml version="1.0" encoding="UTF-8"?>
<svg width="11px" height="19px" viewBox="0 0 11 19" version="1.1" xmlns="http://www.w3.org/2000/svg" xmlns:xlink="http://www.w3.org/1999/xlink">
    <!-- Generator: Sketch 63.1 (92452) - https://sketch.com -->
    <title>商品分类管理_green</title>
    <desc>Created with Sketch.</desc>
    <g id="页面-1" stroke="none" stroke-width="1" fill="none" fill-rule="evenodd">
        <g id="画板" transform="translate(-964.000000, -95.000000)" fill="#6ABF4B">
            <g id="商品分类管理_green" transform="translate(964.000000, 95.000000)">
                <g id="形状">
                    <path d="M3.86353717,1.03377376 L3.86353717,4.10626659 L1.06826174,4.10626659 L1.06826174,1.03377376 L3.86353717,1.03377376 Z M4.33247011,0.00540498676 L0.59932542,0.00540498676 C0.319338725,0.00540498676 0.132657857,0.210581104 0.132657857,0.518335076 L0.132657857,4.62170899 C0.132657857,4.87816476 0.319321844,5.13463908 0.59930854,5.13463908 L4.33247011,5.13463908 C4.56578701,5.13463908 4.79912079,4.87816476 4.79912079,4.62170899 L4.79912079,0.518335076 C4.79912079,0.210581104 4.56578701,0.00540498676 4.33247011,0.00540498676 L4.33247011,0.00540498676 Z M9.92990826,7.70176843 L9.92990826,10.7742613 L7.13463283,10.7742613 L7.13463283,7.70176843 L9.92990826,7.70176843 Z M10.3988412,6.67339966 L6.66569651,6.67339966 C6.43237961,6.67339966 6.19904583,6.92987398 6.19904583,7.18632975 L6.19904583,11.2897037 C6.19904583,11.5461594 6.43237961,11.8026338 6.66569651,11.8026338 L10.3988412,11.8026338 C10.632175,11.8026338 10.8654919,11.5461594 10.8654919,11.2897037 L10.8654919,7.18632975 C10.8654919,6.92987398 10.632175,6.67339966 10.3988412,6.67339966 Z M9.92990826,14.8826895 L9.92990826,17.9551823 L7.13463283,17.9551823 L7.13463283,14.8826895 L9.92990826,14.8826895 Z M10.3988412,13.8543022 L6.66569651,13.8543022 C6.43237961,13.8543022 6.19904583,14.1107765 6.19904583,14.3672341 L6.19904583,18.4706266 C6.19904583,18.7270823 6.43237961,18.98354 6.66569651,18.98354 L10.3988412,18.98354 C10.632175,18.98354 10.8654919,18.7270842 10.8654919,18.4706266 L10.8654919,14.3672155 C10.8654919,14.1107598 10.632175,13.8543022 10.3988412,13.8543022 L10.3988412,13.8543022 Z M6.21852942,16.5728175 L2.35285514,16.5728175 L1.90591593,15.9059835 L1.90591593,5.13464094 L2.83703126,5.13464094 L2.83703126,15.4298512 L6.21852942,15.4298512 L6.21852942,16.5728175 L6.21852942,16.5728175 Z M2.48538473,8.90002784 L6.21852942,8.90002784 L6.21852942,9.96774929 L2.48538473,9.96774929 L2.48538473,8.90002784 Z" fill-rule="nonzero"></path>
                </g>
            </g>
        </g>
    </g>
</svg>