<?xml version="1.0" encoding="UTF-8"?>
<svg width="22px" height="20px" viewBox="0 0 22 20" version="1.1" xmlns="http://www.w3.org/2000/svg" xmlns:xlink="http://www.w3.org/1999/xlink">
    <!-- Generator: Sketch 63.1 (92452) - https://sketch.com -->
    <title>商品属性_grey</title>
    <desc>Created with Sketch.</desc>
    <g id="页面-1" stroke="none" stroke-width="1" fill="none" fill-rule="evenodd">
        <g id="画板" transform="translate(-878.000000, -95.000000)" fill="#666666">
            <g id="商品属性_grey" transform="translate(878.000000, 95.000000)">
                <g id="形状">
                    <path d="M21.5286579,10.6285819 L13.3572167,1.51427636 C13.04293,1.19998967 12.5715021,0.885705124 12.1000721,0.728561777 C11.628642,0.414275083 11.1572142,0.414275083 10.6857841,0.414275083 L8.17148627,0.414275083 C8.64291631,0.414275083 9.1143442,0.571418215 9.58577424,0.728561777 C10.0572043,0.885704909 10.5286322,1.19999182 10.8429189,1.51427636 L19.1714969,10.6285819 C19.4857836,10.9428686 19.642927,11.4142965 19.642927,11.7285832 C19.642927,12.2000132 19.4857838,12.5142978 19.1714969,12.8285845 L13.6714863,18.800023 C13.8286337,19.1143097 13.9857772,19.2714531 14.1429206,19.4285943 C14.3000637,19.5857374 14.6143506,19.5857374 14.7714918,19.5857374 C15.2429218,19.5857374 15.5572064,19.4285943 15.8714931,19.1143074 L21.5286364,12.828595 C21.8429231,12.5143083 22.0000664,12.2000237 22.0000664,11.7285937 C22.0000664,11.2571637 21.8429233,10.9428791 21.5286364,10.6285924 L21.5286579,10.6285819 Z M4.71434338,5.60000768 C4.40005668,5.91429437 4.08577214,6.07143772 3.77148544,6.07143772 C3.45719875,6.07143772 2.98577086,5.91429459 2.67148416,5.60000768 C2.35719747,5.28572099 2.20005412,4.97143644 2.20005412,4.5000064 C2.20005412,4.02857636 2.35719725,3.71429181 2.67148416,3.40000512 C2.98577086,3.08571843 3.3000554,2.92857508 3.77148544,2.92857508 C4.24291548,2.92857508 4.40005668,2.92857508 4.71434338,3.24286177 C5.02863007,3.55714847 5.18577342,3.87143301 5.18577342,4.34286305 C5.18577342,4.97143429 5.02863029,5.28572099 4.71434338,5.60000768 Z M17.6000634,11.7285832 C17.6000634,11.2571531 17.4429203,10.9428686 17.1286334,10.6285819 L8.80005536,1.51427636 C8.48576866,1.19998967 8.17148412,0.885705124 7.70005408,0.728561777 C7.22862404,0.414275083 6.75719614,0.414275083 6.2857661,0.414275083 L1.41432879,0.414275083 C1.1000421,0.414275083 0.785757555,0.571418215 0.471470861,0.885705124 C0.157184167,1.19999182 4.082036e-05,1.51427636 4.082036e-05,1.9857064 L4.082036e-05,7.3285759 C4.082036e-05,7.80000594 0.157183952,8.27143384 0.314327514,8.74286388 C0.471470646,9.37143512 0.785757555,9.68572181 1.1000421,10.0000085 L9.42862015,19.114314 C9.74290684,19.4286007 10.0571914,19.5857441 10.5286214,19.5857441 C11.0000515,19.5857441 11.314336,19.4286009 11.6286227,19.114314 L17.285766,12.8286016 C17.4429091,12.6714585 17.6000634,12.2000304 17.6000634,11.7286004 L17.6000634,11.7285832 Z" fill-rule="nonzero"></path>
                </g>
            </g>
        </g>
    </g>
</svg>