<?xml version="1.0" encoding="UTF-8"?>
<svg width="18px" height="19px" viewBox="0 0 18 19" version="1.1" xmlns="http://www.w3.org/2000/svg" xmlns:xlink="http://www.w3.org/1999/xlink">
    <!-- Generator: Sketch 63.1 (92452) - https://sketch.com -->
    <title>基础数据_green</title>
    <desc>Created with Sketch.</desc>
    <g id="页面-1" stroke="none" stroke-width="1" fill="none" fill-rule="evenodd">
        <g id="画板" transform="translate(-851.000000, -96.000000)" fill="#6ABF4B">
            <g id="基础数据_green" transform="translate(851.000000, 96.000000)">
                <g id="路径">
                    <path d="M4.14424131,1.23500195 L14.6682335,1.23500195 C15.3185221,1.23500195 16.632767,1.00869767 16.632767,2.03873016 L16.632767,12.7626754 C16.632767,13.1414997 16.6576585,13.5199368 16.318983,13.7810409 C16.0806277,13.9648639 15.7861742,13.9331736 15.5077474,13.9331736 L3.798774,13.9331736 C3.19232832,13.9331736 2.45755815,14.0508942 1.86195534,13.8930261 C1.12134019,13.6965663 1.33584044,12.3900717 1.33584044,11.8181937 L1.33584044,7.97132091 L1.33584044,2.02871189 C1.33584044,1.40180799 0.392962772,1.40180799 0.392962772,2.02871189 L0.392962772,12.6406765 C0.392962772,12.942318 0.390719343,13.2267524 0.43503368,13.5265466 C0.556379535,14.3461188 1.37657155,14.9052685 2.13613778,14.9052685 L15.7232038,14.9052685 C16.8805623,14.9052685 17.575552,14.0486599 17.575552,12.900704 L17.575552,9.57847734 L17.575552,2.08235934 C17.575552,1.25782984 17.0959207,0.616441353 16.3572852,0.337742719 C16.0810277,0.233534225 15.7449927,0.262794259 15.4527066,0.262794259 L4.14415329,0.262794259 C3.53619756,0.262891469 3.53619756,1.23498524 4.14424757,1.23498524 L4.14424131,1.23500195 Z" fill-rule="nonzero"></path>
                    <line x1="9.02510073" y1="18.4112222" x2="9.02510073" y2="14.3890877" fill-rule="nonzero"></line>
                    <path d="M9.45573745,18.4112222 L9.45573745,14.3890877 C9.45573745,13.7622806 8.51306704,13.7622806 8.51306704,14.3890877 L8.51306704,18.4112222 C8.51306704,19.0381261 9.45573745,19.0381261 9.45573745,18.4112222 Z" fill-rule="nonzero"></path>
                    <line x1="2.87902499" y1="18.451729" x2="15.0897942" y2="18.451729" fill-rule="nonzero"></line>
                    <path d="M2.87902499,18.8973072 L15.0897022,18.8973072 C15.6976579,18.8973072 15.6976579,17.9252131 15.0897022,17.9252131 L2.87902499,17.9252131 C2.27106927,17.9252131 2.27106927,18.8973072 2.87902499,18.8973072 Z" fill-rule="nonzero"></path>
                    <line x1="4.93922823" y1="6.8584717" x2="4.93922823" y2="10.960804" fill-rule="nonzero"></line>
                    <path d="M4.42700671,6.8584717 L4.42700671,10.960804 C4.42700671,11.587611 5.36986495,11.587611 5.36986495,10.960804 L5.36986495,6.8584717 C5.36986495,6.2315678 4.42700671,6.2315678 4.42700671,6.8584717 Z" fill-rule="nonzero"></path>
                    <line x1="10.7260207" y1="6.8584717" x2="10.7260207" y2="10.960804" fill-rule="nonzero"></line>
                    <path d="M10.2137992,6.8584717 L10.2137992,10.960804 C10.2137992,11.587611 11.1566574,11.587611 11.1566574,10.960804 L11.1566574,6.8584717 C11.1566574,6.2315678 10.2137992,6.2315678 10.2137992,6.8584717 Z" fill-rule="nonzero"></path>
                    <line x1="13.3505734" y1="6.8584717" x2="13.3505734" y2="10.960804" fill-rule="nonzero"></line>
                    <path d="M12.8383519,6.8584717 L12.8383519,10.960804 C12.8383519,11.587611 13.7812101,11.587611 13.7812101,10.960804 L13.7812101,6.8584717 C13.7812101,6.2315678 12.8383519,6.2315678 12.8383519,6.8584717 Z" fill-rule="nonzero"></path>
                    <line x1="8.03340538" y1="4.58006907" x2="8.03340538" y2="10.960804" fill-rule="nonzero"></line>
                    <path d="M7.52118386,4.58006907 L7.52118386,10.960804 C7.52118386,11.587611 8.46394818,11.587611 8.46394818,10.960804 L8.46394818,4.58006907 C8.46394818,3.95316517 7.52118386,3.95316517 7.52118386,4.58006907 Z" fill-rule="nonzero"></path>
                </g>
            </g>
        </g>
    </g>
</svg>