<?xml version="1.0" encoding="UTF-8"?>
<svg width="18px" height="18px" viewBox="0 0 18 18" version="1.1" xmlns="http://www.w3.org/2000/svg" xmlns:xlink="http://www.w3.org/1999/xlink">
    <!-- Generator: Sketch 63.1 (92452) - https://sketch.com -->
    <title>基础配置</title>
    <desc>Created with Sketch.</desc>
    <g id="页面-1" stroke="none" stroke-width="1" fill="none" fill-rule="evenodd">
        <g id="画板" transform="translate(-986.000000, -62.000000)" fill="#6ABF4B">
            <g id="基础配置" transform="translate(986.000000, 62.000000)">
                <g id="形状">
                    <path d="M17.3610202,3.70800431 L9.34201087,0.144000168 C9.1080106,0.0450000524 8.84701029,0.0450000524 8.62201003,0.144000168 L0.603000702,3.70800431 C0.279000325,3.85200448 0.0720000838,4.16700485 0.0720000838,4.51800526 C0.0720000838,4.86900567 0.279000325,5.19300604 0.603000702,5.3280062 L8.62201003,8.89201035 C8.85601031,8.99101046 9.11701061,8.99101046 9.34201087,8.89201035 L17.3610202,5.3280062 C17.6850206,5.18400603 17.8920208,4.86900567 17.8920208,4.51800526 C17.8920208,4.17600486 17.6850206,3.85200448 17.3610202,3.70800431 Z M8.98201045,13.4370156 C8.85601031,13.4370156 8.73001016,13.4100156 8.62201003,13.3560155 L0.603000702,9.79201139 C0.153000178,9.59401116 -0.0450000524,9.06301055 0.153000178,8.61301002 C0.351000408,8.1630095 0.882001026,7.96500927 1.33200155,8.1630095 L8.99101046,11.5650135 L16.6500194,8.1630095 C17.1000199,7.96500927 17.6220205,8.1630095 17.8290207,8.61301002 C18.027021,9.06301055 17.8290207,9.58501115 17.3790202,9.79201139 L9.36001089,13.3560155 C9.22501073,13.4100156 9.1080106,13.4370156 8.98201045,13.4370156 Z M8.98201045,17.8920208 C8.85601031,17.8920208 8.73001016,17.8650208 8.62201003,17.8110207 L0.603000702,14.2470166 C0.153000178,14.0490163 -0.0450000524,13.5180157 0.153000178,13.0680152 C0.351000408,12.6180147 0.882001026,12.4200145 1.33200155,12.6180147 L8.98201045,16.0200186 L16.6410194,12.6180147 C17.0910199,12.4290145 17.6040205,12.6360147 17.7930207,13.0770152 C17.9910209,13.5180157 17.8020207,14.0400163 17.3610202,14.2470166 L9.34201087,17.8110207 C9.22501073,17.8650208 9.1080106,17.8920208 8.98201045,17.8920208 Z" fill-rule="nonzero"></path>
                </g>
            </g>
        </g>
    </g>
</svg>