<?xml version="1.0" encoding="UTF-8"?>
<svg width="19px" height="19px" viewBox="0 0 19 19" version="1.1" xmlns="http://www.w3.org/2000/svg" xmlns:xlink="http://www.w3.org/1999/xlink">
    <!-- Generator: Sketch 63.1 (92452) - https://sketch.com -->
    <title>基础数据_grey</title>
    <desc>Created with Sketch.</desc>
    <g id="页面-1" stroke="none" stroke-width="1" fill="none" fill-rule="evenodd">
        <g id="画板" transform="translate(-822.000000, -96.000000)" fill="#666666">
            <g id="基础数据_grey" transform="translate(822.000000, 96.000000)">
                <g id="路径">
                    <path d="M4.37447694,1.23500195 L15.4831353,1.23500195 C16.1695511,1.23500195 17.5568096,1.00869767 17.5568096,2.03873016 L17.5568096,12.7626754 C17.5568096,13.1414997 17.5830839,13.5199368 17.2255932,13.7810409 C16.973996,13.9648639 16.6631839,13.9331736 16.369289,13.9331736 L4.009817,13.9331736 C3.36967989,13.9331736 2.59408916,14.0508942 1.9653973,13.8930261 C1.18363687,13.6965663 1.4100538,12.3900717 1.4100538,11.8181937 L1.4100538,7.97132091 L1.4100538,2.02871189 C1.4100538,1.40180799 0.414794037,1.40180799 0.414794037,2.02871189 L0.414794037,12.6406765 C0.414794037,12.942318 0.412425973,13.2267524 0.459202218,13.5265466 C0.58728951,14.3461188 1.45304775,14.9052685 2.2548121,14.9052685 L16.5967151,14.9052685 C17.8183713,14.9052685 18.5519715,14.0486599 18.5519715,12.900704 L18.5519715,9.57847734 L18.5519715,2.08235934 C18.5519715,1.25782984 18.0456941,0.616441353 17.2660233,0.337742719 C16.9744182,0.233534225 16.6197145,0.262794259 16.3111903,0.262794259 L4.37438402,0.262794259 C3.73265298,0.262891469 3.73265298,1.23498524 4.37448355,1.23498524 L4.37447694,1.23500195 Z" fill-rule="nonzero"></path>
                    <line x1="9.52371743" y1="18.4112222" x2="9.52371743" y2="14.3890877" fill-rule="nonzero"></line>
                    <path d="M9.98105619,18.4112222 L9.98105619,14.3890877 C9.98105619,13.7622806 8.98601521,13.7622806 8.98601521,14.3890877 L8.98601521,18.4112222 C8.98601521,19.0381261 9.98105619,19.0381261 9.98105619,18.4112222 Z" fill-rule="nonzero"></path>
                    <line x1="3.03897083" y1="18.451729" x2="15.9281161" y2="18.451729" fill-rule="nonzero"></line>
                    <path d="M3.03897083,18.8973072 L15.9280189,18.8973072 C16.56975,18.8973072 16.56975,17.9252131 15.9280189,17.9252131 L3.03897083,17.9252131 C2.39723978,17.9252131 2.39723978,18.8973072 3.03897083,18.8973072 Z" fill-rule="nonzero"></path>
                    <line x1="5.21085202" y1="6.8584717" x2="5.21085202" y2="10.960804" fill-rule="nonzero"></line>
                    <path d="M4.67295152,6.8584717 L4.67295152,10.960804 C4.67295152,11.587611 5.66819078,11.587611 5.66819078,10.960804 L5.66819078,6.8584717 C5.66819078,6.2315678 4.67295152,6.2315678 4.67295152,6.8584717 Z" fill-rule="nonzero"></path>
                    <line x1="11.3191329" y1="6.8584717" x2="11.3191329" y2="10.960804" fill-rule="nonzero"></line>
                    <path d="M10.7812324,6.8584717 L10.7812324,10.960804 C10.7812324,11.587611 11.7764717,11.587611 11.7764717,10.960804 L11.7764717,6.8584717 C11.7764717,6.2315678 10.7812324,6.2315678 10.7812324,6.8584717 Z" fill-rule="nonzero"></path>
                    <line x1="14.0894941" y1="6.8584717" x2="14.0894941" y2="10.960804" fill-rule="nonzero"></line>
                    <path d="M13.5515936,6.8584717 L13.5515936,10.960804 C13.5515936,11.587611 14.5468329,11.587611 14.5468329,10.960804 L14.5468329,6.8584717 C14.5468329,6.2315678 13.5515936,6.2315678 13.5515936,6.8584717 Z" fill-rule="nonzero"></path>
                    <line x1="8.4769279" y1="4.58006907" x2="8.4769279" y2="10.960804" fill-rule="nonzero"></line>
                    <path d="M7.9390274,4.58006907 L7.9390274,10.960804 C7.9390274,11.587611 8.93416752,11.587611 8.93416752,10.960804 L8.93416752,4.58006907 C8.93416752,3.95316517 7.9390274,3.95316517 7.9390274,4.58006907 Z" fill-rule="nonzero"></path>
                </g>
            </g>
        </g>
    </g>
</svg>