<?xml version="1.0" encoding="UTF-8"?>
<svg width="19px" height="19px" viewBox="0 0 19 19" version="1.1" xmlns="http://www.w3.org/2000/svg" xmlns:xlink="http://www.w3.org/1999/xlink">
    <!-- Generator: Sketch 63.1 (92452) - https://sketch.com -->
    <title>我是卖家</title>
    <desc>Created with Sketch.</desc>
    <g id="页面-1" stroke="none" stroke-width="1" fill="none" fill-rule="evenodd">
        <g id="画板" transform="translate(-749.000000, -62.000000)" fill="#666666">
            <g id="我是卖家" transform="translate(749.000000, 62.000000)">
                <g id="形状">
                    <path d="M18.8588208,5.95786142 L18.8493208,5.94836141 L18.8493208,5.91714701 C18.8398208,5.88593261 18.8398208,5.85471839 18.8289636,5.83436128 L17.082318,1.30150151 C16.8570323,0.578144325 16.2205315,0.00950001105 15.4401724,0.00950001105 L3.54615856,-5.19116604e-16 C2.78480133,-5.19116604e-16 2.17951332,0.536071522 1.96372762,1.24857235 L1.96372762,1.25942949 L0.166869179,5.86558036 C0.166869179,5.87508037 0.157369167,5.90629477 0.157369167,5.93750899 L0.157369167,5.9578661 L0.157369138,5.9578662 C0.051789875,6.31656398 -0.00123762813,6.68867125 -7.87933308e-05,7.06258204 C-7.87933308e-05,8.35322719 0.635084802,9.53123042 1.65972779,10.1500856 L1.77779938,10.2220143 C2.21751445,10.4513709 2.70201501,10.5680856 3.19330103,10.5641176 C4.14058758,10.5641176 5.61444936,9.88272841 6.21974108,9.08744204 L6.33781267,8.92187039 L6.45452717,9.08744204 C7.56738481,10.1093723 8.58388414,10.4500145 9.52167625,10.4717291 L9.52167638,10.4717291 C10.6717269,10.4547806 11.7608772,9.95186882 12.5196164,9.08744204 L12.6363309,8.92187039 L12.7530454,9.08744204 C13.3596898,9.88272841 14.8715479,10.5641176 15.8106945,10.5641176 C16.3861242,10.5641176 16.9045521,10.4283001 17.3347671,10.1704433 C18.359412,9.56244259 18.9945545,8.36408485 18.9945545,7.07343969 L18.9945545,7.07343926 C19.0170289,6.69643726 18.9710489,6.31848341 18.85884,5.95786707 L18.8588208,5.95786142 Z M16.915382,8.96121941 C16.5788107,9.15121963 16.2028812,9.24757609 15.8215244,9.24079064 C15.0208089,9.24079064 13.6731674,8.61107535 13.2538124,7.85650358 L13.2443124,7.84700356 L13.2443124,7.83750355 L13.2443124,7.83750365 C13.2148902,7.74644641 13.1678557,7.6620609 13.1058837,7.58914701 C13.0285265,7.49686127 12.8819543,7.33129036 12.6376686,7.33129036 L12.6376686,7.33129036 C12.450832,7.34270184 12.2789746,7.4373476 12.1694535,7.58914701 C12.1015964,7.67057565 12.062239,7.76557576 12.033739,7.81579093 L12.033739,7.83750532 C11.613024,8.57986253 10.314237,9.26250698 9.5230271,9.26250698 C8.73181163,9.26250698 7.3651701,8.55814981 6.94446063,7.81714895 L6.94446063,7.80357751 L6.93360349,7.79543463 L6.93360349,7.79543464 C6.89595098,7.7112703 6.84355526,7.63451522 6.77888895,7.56879073 C6.67031737,7.4330762 6.53460321,7.29871951 6.32967387,7.29871951 L6.32967385,7.29871952 C6.15912935,7.30560467 6.00090853,7.38945705 5.8994588,7.52671978 C5.82074434,7.61900552 5.76238718,7.74386369 5.73253006,7.80493466 L5.73253006,7.81579181 L5.72303005,7.82664897 C5.30231501,8.56900618 4.12159908,9.16886508 3.33038176,9.1783651 L3.33038172,9.1783651 C2.9698062,9.18975262 2.61274866,9.10447115 2.29623686,8.93136481 L2.25552245,8.9110077 C1.50366523,8.4875781 1.19152121,7.87957739 1.19152121,6.93906888 C1.19152121,6.65949765 1.22952126,6.38128278 1.31773572,6.11121157 C1.31773572,6.10171156 1.32859288,6.09221154 1.32859288,6.07049715 L1.32859288,6.05964 L2.95852388,1.90948966 C3.06709546,1.55798925 3.1851678,1.38291815 3.56516824,1.38291815 L15.3628275,1.38291815 C15.5297562,1.39377531 15.7726843,1.41548964 15.9382572,1.93120424 L17.6862593,6.12477259 L17.6862593,6.1342726 C17.6862593,6.15462972 17.6957593,6.16412973 17.6957593,6.19670122 C17.7771879,6.46405788 17.8206165,6.7409164 17.8233309,7.02320218 C17.8328309,7.96098872 17.6564022,8.51877482 16.9140444,8.96391342 L16.9140444,8.96119915 L16.915382,8.96121941 Z M15.8703808,19.0000221 L3.19330254,19.0000221 C2.41294529,19.0000221 1.7778009,18.4625924 1.7778009,17.6469496 L1.7778009,12.5766527 C1.7778009,12.1220085 2.00308661,11.7487954 2.43194531,11.7487954 C2.86216036,11.7487954 3.1064461,12.1220104 3.1064461,12.5766527 L3.1064461,17.6360951 L15.890752,17.6360951 L15.890752,12.5766527 C15.890752,12.1220085 16.1350377,11.7487954 16.5638964,11.7487954 C16.9941115,11.7487954 17.2872536,12.1220104 17.2872536,12.5766527 L17.2872536,17.6469496 C17.2763965,18.4639506 16.6507529,19.0000221 15.8703956,19.0000221 L15.8703808,19.0000221 Z M12.7258771,4.63600566 L6.27943309,4.63600566 L6.27943311,4.63600566 C5.91918044,4.62565278 5.63516908,4.32586158 5.64428872,3.96557551 C5.64428872,3.59371873 5.92928905,3.29378928 6.27943311,3.29378928 L12.7258771,3.29378928 L12.7258771,3.29378928 C13.0846065,3.30121326 13.3697923,3.59732206 13.3637342,3.9560755 L13.3637342,3.95607577 C13.3664939,4.13600616 13.2987933,4.30988438 13.1750904,4.44057633 L13.1750904,4.44057633 C13.0587022,4.56486969 12.8961537,4.63558446 12.7258753,4.63600566 L12.7258771,4.63600566 Z" fill-rule="nonzero"></path>
                </g>
            </g>
        </g>
    </g>
</svg>