<?xml version="1.0" encoding="UTF-8"?>
<svg width="17px" height="19px" viewBox="0 0 17 19" version="1.1" xmlns="http://www.w3.org/2000/svg" xmlns:xlink="http://www.w3.org/1999/xlink">
    <!-- Generator: Sketch 63.1 (92452) - https://sketch.com -->
    <title>我是买家</title>
    <desc>Created with Sketch.</desc>
    <g id="页面-1" stroke="none" stroke-width="1" fill="none" fill-rule="evenodd">
        <g id="画板" transform="translate(-728.000000, -62.000000)" fill="#6ABF4B">
            <g id="我是买家" transform="translate(728.000000, 62.000000)">
                <g id="形状">
                    <path d="M11.2331858,10.4143882 C12.8138409,9.47347893 13.8750509,7.74473668 13.8750509,5.76494922 C13.8750509,2.77689887 11.4685594,0.35625152 8.50001209,0.35625152 C5.5314648,0.35625152 3.12497328,2.77689887 3.12497328,5.7629082 C3.12497328,7.74473668 4.18821237,9.47143791 5.76683834,10.4123472 C2.67248795,11.5410302 0.450642913,14.5209164 0.450642913,18.0192213 C0.450642913,18.3641533 0.728627178,18.6437728 1.07154207,18.6437728 C1.41445697,18.6437728 1.69244123,18.3641533 1.69244123,18.0192213 C1.69244123,14.243338 4.74620998,11.1695649 8.50204117,11.1695649 C12.2578724,11.1695649 15.3116411,14.241297 15.3116411,18.0192213 C15.3116411,18.3641533 15.5896254,18.6437728 15.9325403,18.6437728 C16.2754552,18.6437728 16.5534394,18.3641533 16.5534394,18.0192213 C16.5493813,14.5209164 14.3275362,11.5430712 11.2331858,10.4143882 L11.2331858,10.4143882 Z M4.36474252,5.7629082 C4.36474252,3.46880397 6.21932367,1.60331352 8.50001209,1.60331352 C10.7807005,1.60331352 12.6352817,3.46880397 12.6352817,5.7629082 C12.6352817,8.05701243 10.7807005,9.92250289 8.50001209,9.92250289 C6.21932367,9.92250289 4.36474252,8.05701243 4.36474252,5.7629082 L4.36474252,5.7629082 Z" fill-rule="nonzero"></path>
                    <path d="M12.0143825,17.3803827 L4.98564168,17.3803827 C4.64272678,17.3803827 4.36474252,17.6600021 4.36474252,18.0049342 C4.36474252,18.3498662 4.64272678,18.6294857 4.98564168,18.6294857 L12.0143825,18.6294857 C12.3572974,18.6294857 12.6352817,18.3498662 12.6352817,18.0049342 C12.6352817,17.6600021 12.3572974,17.3803827 12.0143825,17.3803827 Z M12.0143825,14.8842176 L4.98564168,14.8842176 C4.64272678,14.8842176 4.36474252,15.1638371 4.36474252,15.5087692 C4.36474252,15.8537012 4.64272678,16.1333207 4.98564168,16.1333207 L12.0143825,16.1333207 C12.3572974,16.1333207 12.6352817,15.8537012 12.6352817,15.5087692 C12.6352817,15.1638371 12.3572974,14.8842176 12.0143825,14.8842176 Z" fill-rule="nonzero"></path>
                </g>
            </g>
        </g>
    </g>
</svg>