<?xml version="1.0" encoding="UTF-8"?>
<svg width="19px" height="19px" viewBox="0 0 19 19" version="1.1" xmlns="http://www.w3.org/2000/svg" xmlns:xlink="http://www.w3.org/1999/xlink">
    <!-- Generator: Sketch 63.1 (92452) - https://sketch.com -->
    <title>销售</title>
    <desc>Created with Sketch.</desc>
    <g id="页面-1" stroke="none" stroke-width="1" fill="none" fill-rule="evenodd">
        <g id="画板" transform="translate(-576.000000, -62.000000)" fill="#6ABF4B">
            <g id="销售" transform="translate(576.000000, 62.000000)">
                <g id="形状">
                    <path d="M5.42767912,2.79090664 L4.51852014,2.79090664 L4.51852014,0 L5.42767912,0 L5.42767912,2.79090664 Z M10.8553582,2.79090664 L9.94619926,2.79090664 L9.94619926,0 L10.8553582,0 L10.8553582,2.79090664 Z M8.15515607,5.58181328 L3.60936116,5.58181328 L3.60936116,4.65151107 L8.15515607,4.65151107 L8.15515607,5.58181328 Z M6.3368381,8.37271993 L3.60936116,8.37271993 L3.60936116,7.44241771 L6.3368381,7.44241771 L6.3368381,8.37271993 Z M14.5465437,11.5078384 L18.0740806,11.5078384 L18.0740806,12.3730194 C18.0740806,12.7079282 18.0740806,12.9032917 17.6922338,12.9032917 L17.6922336,12.9032917 C17.3894215,12.9207859 17.0858867,12.9207859 16.7830746,12.9032917 C16.8285326,13.1730793 16.8739905,13.4242609 16.9103569,13.6475335 L17.8195159,13.6475335 C18.4650187,13.6475335 18.7286748,13.2754126 18.7286748,12.5683829 L18.7286748,7.2749633 L16.5921512,7.2749633 L16.5921512,4.65151106 L15.910282,4.65151106 L15.910282,7.2749633 L13.8919491,7.2749633 L13.8919491,13.6382304 L14.5465435,13.6382304 L14.5465435,11.5078384 L14.5465437,11.5078384 Z M12.3645622,12.3078983 L12.3645622,10.1402941 L13.6373847,10.1402941 L13.6373847,9.51699165 L12.3554706,9.51699165 L12.3554706,8.28899273 L13.3919118,8.28899273 L13.3919118,7.66569024 L11.1371975,7.66569024 L11.1371975,8.28899273 L11.7099677,8.28899273 L11.7099677,9.51699165 L10.528061,9.51699165 L10.528061,10.1402941 L11.7099677,10.1402941 L11.7099677,13.4707761 L11.991807,13.4707761 L13.5737436,12.3451104 L13.5737436,11.6566867 C13.5737436,11.6566867 12.8191416,12.1032318 12.3918369,12.3358074 L12.3645622,12.3078983 Z M14.5465437,9.72165814 L18.0740806,9.72165814 L18.0740806,10.8473238 L14.5465437,10.8473238 L14.5465437,9.72165814 Z M18.0740806,9.07044659 L14.5465437,9.07044659 L14.5465437,7.95408393 L18.0740806,7.95408393 L18.0740806,9.07044659 Z M11.7099677,6.70747896 L13.6373847,6.70747896 L13.6373847,6.08417648 L12.0008986,6.08417648 C12.1827304,5.71205559 12.3554706,5.32132866 12.5100276,4.91199569 L11.9008911,4.70732841 L11.9008914,4.70732841 C11.7321154,5.14977069 11.5378191,5.58157083 11.3190296,6.00044849 C11.1008315,6.4283875 10.4826034,7.49823505 10.4826034,7.49823505 C10.4826034,7.49823505 10.7371679,7.898265 10.8553585,8.11223451 C10.9735492,8.32620402 11.4008539,7.20053834 11.6554184,6.70747817 L11.7099677,6.70747896 Z M17.6740506,6.95866056 L19.0014227,5.44226795 L18.5195685,5.07014707 L17.1467384,6.5121155 L17.6195011,6.94005452 L17.6740506,6.95866056 Z M14.782925,6.88423638 L15.2375045,6.50281248 L14.0919642,4.96781382 L13.6373847,5.34923773 C13.6373847,5.34923773 14.8192914,6.87493336 14.8192914,6.88423638 L14.782925,6.88423638 Z M6.36411287,0.930302214 L9.08249823,0.930302214 L9.08249823,1.86060443 L6.36411287,1.86060443 L6.36411287,0.930302214 Z M11.8190668,1.86060443 L11.8190668,1.86060443 C12.9385666,1.90230214 13.9193129,2.64020677 14.2919793,3.72120926 L15.2011384,3.72120926 L15.2011384,3.72120926 C14.8004657,2.12830293 13.425313,0.99351593 11.8190668,0.930302622 L11.8190668,1.86060443 Z M14.4647194,14.8848354 L14.4647194,14.8848354 C14.4647194,16.4262099 13.2435857,17.6757421 11.7372425,17.6757421 C11.7372425,17.6757421 11.7372425,17.6757421 11.7372425,17.6757421 L3.63663593,17.6757421 L3.63663581,17.6757421 C2.13029255,17.675742 0.909158863,16.4262099 0.909158863,14.8848354 C0.909158863,14.8848354 0.909158863,14.8848354 0.909158863,14.8848354 L0.909158863,4.65151107 L0.909158863,4.65151149 C0.909158635,3.110137 2.13029078,1.86060485 3.63663581,1.86060485 L3.63663581,0.930302635 L3.63663565,0.930302635 C1.62817561,0.930302635 -2.78184154e-07,2.59634489 -2.78184154e-07,4.65151149 C-2.78184154e-07,4.65151149 -2.78184154e-07,4.65151149 -2.78184154e-07,4.65151149 L-2.78184154e-07,14.8848358 L-2.78184154e-07,14.8848364 C-2.78184154e-07,16.9400048 1.62817738,18.6060453 3.63663565,18.6060453 L11.7372422,18.6060453 L11.737242,18.6060453 C13.7457021,18.6060453 15.3738779,16.940003 15.3738779,14.8848364 L14.4647194,14.8848354 Z" fill-rule="nonzero"></path>
                </g>
            </g>
        </g>
    </g>
</svg>