<?xml version="1.0" encoding="UTF-8"?>
<svg width="21px" height="19px" viewBox="0 0 21 19" version="1.1" xmlns="http://www.w3.org/2000/svg" xmlns:xlink="http://www.w3.org/1999/xlink">
    <!-- Generator: Sketch 63.1 (92452) - https://sketch.com -->
    <title>挂单销售信息审核_green</title>
    <desc>Created with Sketch.</desc>
    <g id="页面-1" stroke="none" stroke-width="1" fill="none" fill-rule="evenodd">
        <g id="画板" transform="translate(-732.000000, -96.000000)" fill="#6ABF4B">
            <g id="挂单销售信息审核_green" transform="translate(732.000000, 96.000000)">
                <g id="形状">
                    <path d="M8.30341293,17.8394218 L2.09751401,17.8394218 C1.88777863,17.8394218 1.38257946,17.8878593 1.23940441,17.8139495 L1.21339139,17.7631756 L1.16139445,17.7631756 C1.12521516,17.7359082 1.14473213,17.700207 1.08338448,17.6613431 C1.03770869,17.1747181 1.05737146,16.5856626 1.05737146,16.0572111 L1.05737146,1.62138866 C1.05737146,1.49741745 1.04743816,1.37792059 1.10936841,1.31586261 C1.17904725,1.06321988 1.56379601,1.11216901 1.88946804,1.11216901 L14.1891495,1.11216901 C14.3952728,1.11216901 14.8021011,1.05911578 14.9173982,1.16308524 C15.0153037,1.18938392 15.0324905,1.23349043 15.0734181,1.31583392 L15.0994311,1.31583392 L15.0994311,4.70218066 C15.0994311,4.98397133 15.0679709,5.50567098 15.1774411,5.66967394 L15.2554511,5.72059017 L15.333461,5.82242263 L15.385458,5.82242263 L15.385458,5.84789497 L15.4634679,5.84789497 L15.4634679,5.87322478 L15.5935039,5.87322478 L15.5935039,5.89869712 L15.8015208,5.87322478 C15.8497308,5.81928829 15.9280611,5.81421663 15.9835538,5.77139232 L16.0095377,5.69500375 L16.0615637,5.66955987 L16.0615637,5.61864364 L16.0875477,5.61864364 L16.0875477,5.56772741 L16.1133567,5.56772741 C16.1563526,5.471052 16.1393407,5.31727795 16.1393698,5.18592686 L16.1393698,2.10513706 C16.1393698,1.67974258 16.1692861,1.20682216 16.0353468,0.90844739 L16.0093338,0.90844739 L16.0093338,0.85758809 L15.9833498,0.85758809 L15.9833498,0.806671862 L15.9313238,0.781199516 L15.9053399,0.679367061 L15.8273299,0.628450833 L15.8273299,0.577534605 L15.7233069,0.501146031 L15.6972939,0.450229803 L15.645297,0.450229803 L15.5673452,0.348511203 L15.5153483,0.348511203 L15.4893352,0.297594975 L15.2553053,0.221206401 L15.2553053,0.195619978 L15.2032793,0.195619978 L15.2032793,0.170176096 L15.0992854,0.170176096 C14.8285526,0.0834447466 14.3843215,0.119231405 14.0331312,0.119259868 L1.21340583,0.119259868 L1.21340583,0.144732214 L1.08339892,0.144732214 L0.797371411,0.24656467 L0.797371411,0.272008552 L0.641322383,0.322867852 L0.589325441,0.399256426 L0.537328498,0.399256426 L0.407321592,0.55200511 L0.329311628,0.602921338 L0.329311628,0.653837566 L0.251301665,0.704753794 L0.251301665,0.755670022 L0.225288643,0.755670022 L0.225288643,0.806671642 L0.199275622,0.806671642 L0.199275622,0.85758787 L0.1732626,0.85758787 L0.1732626,0.908504098 L0.147249579,0.908504098 L0.147249579,0.959420326 L0.121265658,0.959420326 C-0.00885765079,1.25200963 0.043255694,1.82416986 0.043255694,2.23241318 L0.043255694,16.7191838 C0.043255694,17.0867392 -0.0154993597,17.6627718 0.0952526364,17.9412594 L0.121265658,17.9412594 L0.121265658,17.9921756 L0.147249579,17.9921756 L0.147249579,18.0685642 L0.1732626,18.0685642 L0.1732626,18.1194804 L0.199275622,18.1194804 L0.199275622,18.1703966 L0.251272564,18.195869 L0.251272564,18.2467852 L0.303269506,18.2722291 L0.303269506,18.3231453 L0.407292492,18.3995339 L0.563312419,18.5777549 L0.615309362,18.5777549 L0.641322383,18.6286711 L0.719332347,18.6541435 L0.719332347,18.6795874 L0.771329289,18.6795874 L0.771329289,18.7050597 L0.823355332,18.7050597 L0.823355332,18.7305321 L0.901365296,18.7305321 L0.901365296,18.7559759 L0.97937526,18.7559759 L0.97937526,18.7814483 L1.05738522,18.7814483 L1.05738522,18.8068922 C1.28553183,18.8819416 1.85653562,18.8559849 2.14952472,18.8559849 L8.31486324,18.8559849 C8.63476703,18.8559849 8.83337538,18.6360506 8.84325154,18.3756573 C8.85274788,18.1281138 8.69200908,17.8394278 8.30341474,17.8394278 L8.30341293,17.8394218 Z M3.12844295,3.84512124 L12.7316249,3.84512124 L12.7316249,3.84512124 C13.018451,3.84302116 13.2527088,4.06874841 13.2548712,4.34929902 C13.2570034,4.62984963 13.026227,4.85898203 12.7394009,4.86108263 C12.7368092,4.86109716 12.7342174,4.86109716 12.7316257,4.86108263 L3.12844373,4.86108263 L3.12844373,4.86108263 C2.84161765,4.86318271 2.60735991,4.63745546 2.60519747,4.35690485 C2.60306527,4.07635423 2.83384169,3.84722183 3.12066778,3.84512124 C3.12325947,3.8451067 3.12585127,3.8451067 3.12844296,3.84512124 L3.12844295,3.84512124 Z M3.12844295,6.91662164 L11.0424355,6.91662164 L11.0424354,6.91662164 C11.3292683,6.91662164 11.5617935,7.14405945 11.5617935,7.42461668 C11.5617935,7.70517391 11.3292683,7.93261172 11.0424354,7.93261172 L3.12844293,7.93261172 L3.1284429,7.93261172 C2.84161005,7.93261172 2.60908482,7.70517391 2.60908482,7.42461668 C2.60908482,7.14405945 2.84161005,6.91662164 3.1284429,6.91662164 L3.12844295,6.91662164 Z M3.12844295,9.98812205 L10.0771747,9.98812205 L10.0771746,9.98812205 C10.3640075,9.98812205 10.5965327,10.2155599 10.5965327,10.4961171 C10.5965327,10.7766743 10.3640075,11.0041121 10.0771746,11.0041121 L3.12844293,11.0041121 L3.12844294,11.0041121 C2.84161686,11.0020121 2.61083992,10.7728791 2.61297263,10.4923285 C2.61511186,10.2147435 2.84464874,9.99022926 3.12844294,9.98815074 L3.12844295,9.98812205 Z M3.12844295,13.0596225 L8.62931732,13.0596225 L8.62931734,13.0596225 C8.91614342,13.0575224 9.15040116,13.2832496 9.1525636,13.5638002 C9.15469579,13.8443509 8.92391938,14.0734833 8.63709329,14.0755838 C8.6345016,14.0756028 8.6319098,14.0756028 8.6293181,14.0755838 L3.12844373,14.0755838 L3.12844373,14.0755838 C2.84163569,14.0792227 2.60611467,13.8547545 2.60235016,13.5742216 C2.59867455,13.2936886 2.82816368,13.0633206 3.11497172,13.059682 C3.11946222,13.0596251 3.12395328,13.0596251 3.12844377,13.059682 L3.12844295,13.0596225 Z M20.6330748,16.8164857 L17.7550461,16.8492805 L12.869413,16.8492805 C12.0566891,16.8492805 11.0609403,16.9293732 10.359586,16.7837475 C10.15623,16.5041788 10.1588218,16.1507561 10.1588218,15.6367506 C10.1588218,14.461517 10.269662,13.6768592 11.1627264,13.4082899 L13.3713867,13.3427569 C13.4401332,13.2983368 13.4252188,13.3060585 13.4717685,13.2444575 C13.3193025,12.0651485 12.7623383,11.6268481 12.4678355,10.6882645 C11.9912711,9.16938081 12.8745178,7.78273745 13.8398553,7.24724052 C14.1855977,7.05064173 14.3976059,6.98510762 14.8772292,6.88675261 C15.3791675,6.82121961 15.7696527,6.84307351 16.2158081,6.88675261 C17.7631602,7.19769123 19.1958018,8.6296165 18.6252266,10.6554868 C18.4325613,11.3395368 17.3197683,12.4961078 17.688234,13.3427463 C20.7308504,13.2943089 21.0165554,13.5409978 20.967716,16.5216153 C20.8735389,16.83076 20.6912149,16.7652841 20.6330994,16.8164861 L20.6330748,16.8164857 Z M15.1784005,7.73874369 C14.5822867,7.78940353 13.6956879,8.09376168 13.3044154,9.34455708 C12.7957185,10.9701165 15.5415943,12.8407878 13.9402346,14.2602772 C12.3494796,14.2163133 10.7326695,13.8837193 11.3300218,15.9316525 L19.8634063,15.8988577 C19.8759613,15.4989925 19.95502,14.7538841 19.7630245,14.5224657 C19.4600735,13.9317576 17.4689933,14.3523936 16.9185856,14.0964446 C16.2738828,12.3001855 17.4211059,11.6432292 17.7551675,10.3277104 C18.2064775,8.55059931 16.5900283,7.54733636 15.1784317,7.73879489 L15.1784005,7.73874369 Z M10.5938122,17.3407515 L17.21973,17.3407515 C18.2644446,17.3407515 19.5185437,17.2811734 20.5326664,17.3777919 C20.9164246,17.6577026 21.0036092,18.5461588 20.4656675,18.8482097 L10.4599496,18.8482097 L10.4599496,18.8396619 C9.86333948,18.4356087 10.0460124,17.6549116 10.5938016,17.3408376 L10.5938122,17.3407515 Z" fill-rule="nonzero"></path>
                </g>
            </g>
        </g>
    </g>
</svg>