<?xml version="1.0" encoding="UTF-8"?>
<svg width="19px" height="19px" viewBox="0 0 19 19" version="1.1" xmlns="http://www.w3.org/2000/svg" xmlns:xlink="http://www.w3.org/1999/xlink">
    <!-- Generator: Sketch 63.1 (92452) - https://sketch.com -->
    <title>管理</title>
    <desc>Created with Sketch.</desc>
    <g id="页面-1" stroke="none" stroke-width="1" fill="none" fill-rule="evenodd">
        <g id="画板" transform="translate(-603.000000, -62.000000)" fill="#666666">
            <g id="管理" transform="translate(603.000000, 62.000000)">
                <g id="形状">
                    <path d="M2.13264999,1.96893293 L2.13264996,1.96893293 C1.74003974,1.96893293 1.42176533,2.27980571 1.42176533,2.66328546 C1.42176533,2.66328546 1.42176533,2.66328546 1.42176533,2.66328546 L1.42176533,6.8294114 L1.42176533,6.8294113 C1.42176533,7.21289105 1.74003974,7.52376372 2.13264996,7.52376372 L6.39796937,7.52376372 L6.39796934,7.52376372 C6.79057957,7.52376372 7.10885397,7.21289105 7.10885397,6.8294113 C7.10885397,6.8294113 7.10885397,6.8294113 7.10885397,6.8294113 L7.10885397,2.66328536 L7.10885397,2.66328536 C7.10885397,2.27980561 6.79057957,1.96893293 6.39796934,1.96893293 C6.39796934,1.96893293 6.39796934,1.96893293 6.39796934,1.96893293 L2.13264993,1.96893293 L2.13264999,1.96893293 Z M2.13264999,0.580226289 L6.39796941,0.580226289 L6.39796931,0.580226289 C7.57580192,0.580226289 8.5306193,1.51284431 8.5306193,2.66327977 C8.5306193,2.66327977 8.5306193,2.66327977 8.5306193,2.66327977 L8.5306193,6.82940571 L8.5306193,6.82940571 C8.5306193,7.97984686 7.57579609,8.91245919 6.39796931,8.91245919 C6.39796931,8.91245919 6.39796931,8.91245919 6.39796931,8.91245919 L2.1326499,8.91245919 L2.1326498,8.91245919 C0.954817191,8.91245919 -1.86442525e-07,7.97984117 -1.86442525e-07,6.82940571 C-1.86442525e-07,6.82940571 -1.86442525e-07,6.82940571 -1.86442525e-07,6.82940571 L-1.86442525e-07,2.66327977 L-1.86442525e-07,2.66328008 C-1.86442525e-07,1.51283893 0.954821079,0.580226289 2.1326498,0.580226289 L2.13264999,0.580226289 Z M2.13264999,11.6898765 L2.13264996,11.6898765 C1.74003974,11.6898765 1.42176533,12.0007492 1.42176533,12.3842289 L1.42176533,16.5503548 L1.42176533,16.550355 C1.42176533,16.9338347 1.74003974,17.2447074 2.13264996,17.2447074 L6.39796937,17.2447074 L6.39796934,17.2447074 C6.79057957,17.2447074 7.10885397,16.9338347 7.10885397,16.550355 L7.10885397,12.384229 L7.10885397,12.384229 C7.10885397,12.0007493 6.79057957,11.6898765 6.39796934,11.6898765 L2.13264993,11.6898765 L2.13264999,11.6898765 Z M2.13264999,10.3011697 L6.39796941,10.3011697 L6.39796931,10.3011697 C7.57580192,10.3011697 8.5306193,11.2337878 8.5306193,12.3842232 C8.5306193,12.3842232 8.5306193,12.3842232 8.5306193,12.3842232 L8.5306193,16.5503492 L8.5306193,16.5503492 C8.5306193,17.7007903 7.57579609,18.6334026 6.39796931,18.6334026 C6.39796931,18.6334026 6.39796931,18.6334026 6.39796931,18.6334026 L2.1326499,18.6334026 L2.1326498,18.6334026 C0.954817191,18.6334026 -1.86442525e-07,17.7007846 -1.86442525e-07,16.5503492 C-1.86442525e-07,16.5503492 -1.86442525e-07,16.5503492 -1.86442525e-07,16.5503492 L-1.86442525e-07,12.3842232 L-1.86442525e-07,12.3842235 C-1.86442525e-07,11.2337824 0.954821079,10.3011697 2.1326498,10.3011697 L2.13264999,10.3011697 Z M12.0850425,11.6898765 L12.0850425,11.6898765 C11.6924323,11.6898765 11.3741579,12.0007492 11.3741579,12.3842289 L11.3741579,16.5503548 L11.3741579,16.550355 C11.3741579,16.9338347 11.6924323,17.2447074 12.0850425,17.2447074 L16.3503619,17.2447074 L16.3503619,17.2447074 C16.7429721,17.2447074 17.0612465,16.9338347 17.0612465,16.550355 L17.0612465,12.384229 L17.0612465,12.384229 C17.0612465,12.0007493 16.7429721,11.6898765 16.3503619,11.6898765 L12.0850425,11.6898765 L12.0850425,11.6898765 Z M12.0850425,10.3011697 L16.3503619,10.3011697 L16.3503618,10.3011697 C17.5281945,10.3011697 18.4830118,11.2337878 18.4830118,12.3842232 C18.4830118,12.3842232 18.4830118,12.3842232 18.4830118,12.3842232 L18.4830118,16.5503492 L18.4830118,16.5503492 C18.4830118,17.7007903 17.5281886,18.6334026 16.3503618,18.6334026 C16.3503618,18.6334026 16.3503618,18.6334026 16.3503618,18.6334026 L12.0850424,18.6334026 L12.0850423,18.6334026 C10.9072097,18.6334026 9.95239235,17.7007846 9.95239235,16.5503492 C9.95239235,16.5503492 9.95239235,16.5503492 9.95239235,16.5503492 L9.95239235,12.3842232 L9.95239235,12.3842235 C9.95239235,11.2337824 10.9072136,10.3011697 12.0850423,10.3011697 L12.0850425,10.3011697 Z M11.2461977,4.27418597 L11.2461977,4.27418604 C10.9682285,4.5450054 10.9676609,4.98464447 11.2449271,5.25614923 C11.2453501,5.25656349 11.2457737,5.25697722 11.2461978,5.25739043 L13.7342959,7.68762581 L13.7342959,7.68762576 C14.0115633,7.95913052 14.46167,7.95968491 14.7396391,7.68886706 C14.7400633,7.68845385 14.7404868,7.68804012 14.7409099,7.68762587 L17.229008,5.25739048 L17.2290081,5.25739045 C17.5069772,4.9865711 17.5075448,4.54693202 17.2302787,4.27542727 C17.2298557,4.27501301 17.2294321,4.27459928 17.229008,4.27418607 L14.7409099,1.84395069 L14.7409099,1.84395072 C14.4633101,1.57288834 14.0133181,1.57288834 13.7357183,1.84395065 L11.2476201,4.27418604 L11.2461977,4.27418597 Z M10.2410061,3.29237088 L12.7305232,0.863521486 L12.7305232,0.863521483 C13.5631108,0.0497761502 14.9134406,0.0493527576 15.7465452,0.8625775 C15.7468675,0.862892061 15.7471896,0.863206726 15.7475117,0.863521489 L18.2356098,3.29375687 L18.2356098,3.29375685 C19.06873,4.10698197 19.0691635,5.42590868 18.2365763,6.23963883 C18.2362543,6.23995359 18.2359321,6.24026825 18.2356099,6.24058281 L15.7475117,8.6708182 L15.7475118,8.67081811 C14.9147104,9.48400715 13.5647305,9.48400715 12.7319369,8.67081829 L10.2438387,6.24058291 L10.2438387,6.24058288 C9.4107185,5.42735777 9.41028502,4.10843106 10.2428723,3.29470091 C10.2431943,3.29438615 10.2435165,3.29407149 10.2438388,3.29375692 L10.2410061,3.29237088 Z" fill-rule="nonzero"></path>
                </g>
            </g>
        </g>
    </g>
</svg>