<?xml version="1.0" encoding="UTF-8"?>
<svg width="18px" height="19px" viewBox="0 0 18 19" version="1.1" xmlns="http://www.w3.org/2000/svg" xmlns:xlink="http://www.w3.org/1999/xlink">
    <!-- Generator: Sketch 63.1 (92452) - https://sketch.com -->
    <title>挂单销售信息管理_green</title>
    <desc>Created with Sketch.</desc>
    <g id="页面-1" stroke="none" stroke-width="1" fill="none" fill-rule="evenodd">
        <g id="画板" transform="translate(-791.000000, -96.000000)" fill="#6ABF4B">
            <g id="挂单销售信息管理_green" transform="translate(791.000000, 96.000000)">
                <g id="路径">
                    <path d="M14.3415609,6.8549445 L10.7805284,10.2749485 L13.5540174,12.9363061 C14.7226645,12.2251616 16.1042067,11.9659486 17.0138109,12.8385916 C17.9249091,13.713949 18.1690613,15.5447402 17.6673603,16.9032418 L15.2228675,14.5567391 L13.4334221,16.2748847 L15.9136355,18.6566785 C14.5797392,19.1968228 12.845385,19.0950354 11.9357604,18.2210344 C11.0187067,17.3416043 11.1303607,15.8663861 11.8062414,14.6775303 L9.00000337,11.9835906 L2.76672083,17.9672431 L0.986206611,16.2572411 L7.21948915,10.2749431 L4.44748593,7.61358551 C3.28181452,8.32472999 1.89878251,8.58530119 0.986206611,7.70994271 C0.0751083878,6.83458535 -0.173509315,5.00787609 0.323724055,3.65479249 L2.76671066,6.00129522 L4.54871273,4.29129323 L2.06849932,1.91085393 C3.39644013,1.37478241 5.12632874,1.48063888 6.03743917,2.3546399 C6.94704955,3.22864092 6.84730449,4.68757914 6.18928895,5.866935 L9.0000048,8.56493814 L12.5610373,5.14628865 L9.8902731,2.58128567 L12.5610373,0.0176371787 L15.6799073,3.01149515 C16.9676537,4.24785294 17.6122699,7.36114572 17.0138036,9.41993914 L14.3415536,6.85493615 L14.3415609,6.8549445 Z" fill-rule="nonzero"></path>
                </g>
            </g>
        </g>
    </g>
</svg>