<?xml version="1.0" encoding="UTF-8"?>
<svg width="16px" height="19px" viewBox="0 0 16 19" version="1.1" xmlns="http://www.w3.org/2000/svg" xmlns:xlink="http://www.w3.org/1999/xlink">
    <!-- Generator: Sketch 63.1 (92452) - https://sketch.com -->
    <title>挂单销售信息管理_grey</title>
    <desc>Created with Sketch.</desc>
    <g id="页面-1" stroke="none" stroke-width="1" fill="none" fill-rule="evenodd">
        <g id="画板" transform="translate(-762.000000, -96.000000)" fill="#666666">
            <g id="挂单销售信息管理_grey" transform="translate(762.000000, 96.000000)">
                <g id="路径">
                    <path d="M12.7480541,6.8549445 L9.5826919,10.2749485 L12.0480155,12.9363061 C13.0868129,12.2251616 14.3148504,11.9659486 15.1233875,12.8385916 C15.9332526,13.713949 16.1502767,15.5447402 15.7043202,16.9032418 L13.5314378,14.5567391 L11.9408196,16.2748847 L14.1454538,18.6566785 C12.9597682,19.1968228 11.41812,19.0950354 10.6095648,18.2210344 C9.79440596,17.3416043 9.89365394,15.8663861 10.4944368,14.6775303 L8.000003,11.9835906 L2.45930741,17.9672431 L0.876628098,16.2572411 L6.41732369,10.2749431 L3.95332082,7.61358551 C2.91716847,8.32472999 1.68780667,8.58530119 0.876628098,7.70994271 C0.0667630114,6.83458535 -0.154230502,5.00787609 0.287754716,3.65479249 L2.45929836,6.00129522 L4.0433002,4.29129323 L1.83866606,1.91085393 C3.01905789,1.37478241 4.55673666,1.48063888 5.3666126,2.3546399 C6.17515515,3.22864092 6.08649288,4.68757914 5.50159017,5.866935 L8.00000427,8.56493814 L11.1653665,5.14628865 L8.79135387,2.58128567 L11.1653665,0.0176371787 L13.9376954,3.01149515 C15.0823589,4.24785294 15.655351,7.36114572 15.123381,9.41993914 L12.7480476,6.85493615 L12.7480541,6.8549445 Z" fill-rule="nonzero"></path>
                </g>
            </g>
        </g>
    </g>
</svg>