<?xml version="1.0" encoding="UTF-8"?>
<svg width="13px" height="16px" viewBox="0 0 13 16" version="1.1" xmlns="http://www.w3.org/2000/svg" xmlns:xlink="http://www.w3.org/1999/xlink">
    <!-- Generator: Sketch 63.1 (92452) - https://sketch.com -->
    <title>收货地址</title>
    <desc>Created with Sketch.</desc>
    <g id="页面-1" stroke="none" stroke-width="1" fill="none" fill-rule="evenodd">
        <g id="画板" transform="translate(-128.000000, -96.000000)" fill="#666666" fill-rule="nonzero">
            <g id="收货地址" transform="translate(128.000000, 96.000000)">
                <path d="M6.62664444,0.128398001 C6.70113822,0.128398001 6.775632,0.12477887 6.85012503,0.130207575 C6.97490217,0.139255412 7.09967894,0.146493673 7.22259391,0.159160586 C7.41255325,0.179065905 7.59878676,0.208018916 7.78688411,0.246019799 C8.1016204,0.311164118 8.40890691,0.40164248 8.70688351,0.519263373 C9.18178184,0.705648459 9.62129509,0.951750225 10.0254232,1.25756686 C10.1595122,1.35890249 10.2880147,1.46566612 10.4127917,1.57786082 C10.8057461,1.93253525 11.137244,2.33426006 11.4110092,2.78484085 C11.5525475,3.01646529 11.6736007,3.25713761 11.7778903,3.50866702 C11.8877686,3.77467374 11.9752994,4.04791732 12.0423438,4.32659034 C12.081453,4.48945132 12.1075258,4.65593217 12.1317364,4.82060127 C12.1578091,5.01060659 12.1708456,5.2006101 12.178295,5.39061542 C12.1838821,5.53176151 12.1838821,5.67290687 12.1689833,5.81586362 C12.1596716,5.90815155 12.1578093,6.00043949 12.1484974,6.09272742 C12.1187,6.37140045 12.0665542,6.64645504 11.9920605,6.91969862 C11.8803198,7.32685106 11.722021,7.71590777 11.5153001,8.08686873 C11.3607255,8.36735096 11.1782163,8.63154847 10.9733574,8.88307788 C10.8616168,9.01879542 10.7424271,9.1490846 10.6195121,9.27394379 C10.5804028,9.31375425 10.548743,9.35899343 10.517083,9.40423261 C10.3401601,9.65576201 10.1650996,9.90548221 9.9881779,10.1570116 C9.77214524,10.4664467 9.55797642,10.7758835 9.34380574,11.0853186 C9.09425183,11.4418023 8.8465599,11.7982877 8.59700599,12.1547713 C8.41635843,12.4135394 8.23571086,12.6704983 8.05506329,12.9292663 L7.41814092,13.8412868 C7.30826261,13.998719 7.19652232,14.1561513 7.08664308,14.3153928 C7.06615719,14.3443458 7.04753384,14.3732988 7.02518559,14.4004424 C6.9264814,14.5198738 6.79984116,14.5832091 6.63968098,14.5868953 C6.51490383,14.5886371 6.40502478,14.5542553 6.30632115,14.4818727 C6.25976249,14.447491 6.22624031,14.4040614 6.19458048,14.3588222 C6.04186822,14.1416751 5.89101794,13.9227169 5.73830568,13.705568 C5.48688979,13.3454641 5.23733402,12.9871694 4.98591813,12.6288766 C4.80713291,12.3719177 4.62834695,12.1167699 4.44956323,11.8616203 C4.20000932,11.5051366 3.95231739,11.1486512 3.70276348,10.7921675 C3.49418061,10.4935896 3.28373575,10.1950116 3.07515288,9.89462259 C2.95410045,9.72271374 2.83491074,9.54899604 2.71385775,9.37708646 C2.68592263,9.337276 2.65426261,9.29746555 2.61887808,9.26308381 C2.33580106,8.97536292 2.08624715,8.66411683 1.87394031,8.32391972 C1.69143058,8.03076938 1.54058048,7.72314353 1.41766551,7.40285138 C1.30220014,7.10065317 1.21839441,6.79121811 1.15879983,6.47454438 C1.12714,6.31349298 1.11037882,6.14882279 1.09361782,5.98415187 C1.06940741,5.73262247 1.07681201,5.48109306 1.08244374,5.22956366 C1.08430609,5.12098973 1.09920485,5.01060551 1.11224121,4.90203285 C1.13086456,4.74641017 1.15507516,4.59259778 1.18859734,4.44059317 C1.25005483,4.15468149 1.33013548,3.87419925 1.44001323,3.60095387 C1.5070576,3.43085459 1.58155137,3.26437519 1.66721964,3.10151348 C1.83483073,2.7776011 2.03596456,2.47359367 2.26689494,2.18768199 C2.44009309,1.97415329 2.62819007,1.77148167 2.83304712,1.5869058 C3.12171009,1.32632852 3.43272241,1.09470408 3.77353203,0.899271118 C4.01377417,0.759934607 4.26332808,0.636884629 4.52219562,0.533739607 C4.83693191,0.408879511 5.16097997,0.312972245 5.4943398,0.246018713 C5.6656756,0.211636979 5.83887338,0.188112511 6.01393314,0.164588224 C6.11822439,0.151921257 6.22065403,0.1501117 6.32494547,0.139254362 C6.42551201,0.12839697 6.52794053,0.137444788 6.62850801,0.137444788 C6.62664565,0.130206526 6.62664565,0.130206526 6.62664565,0.128396951 L6.62664444,0.128398001 Z M11.1633247,5.52090099 C11.1651871,5.36708788 11.1670494,5.21508435 11.148426,5.06127052 C11.1353895,4.95269659 11.1223532,4.84231237 11.1018673,4.73554892 C11.0180618,4.31210994 10.8821107,3.90676852 10.6791156,3.52313945 C10.4407355,3.07074764 10.133449,2.66902464 9.75353029,2.31977785 C9.54308543,2.12615411 9.31587902,1.95424634 9.07191106,1.80224172 C8.89126349,1.68823908 8.70316613,1.58871302 8.50762085,1.50366375 C8.2115081,1.3751845 7.9042216,1.27384851 7.58575948,1.20870419 C7.37345265,1.16527459 7.15741999,1.13089285 6.94138733,1.1200354 C6.69183342,1.10736844 6.44227951,1.10555888 6.19272373,1.12908322 C5.97855492,1.14898836 5.7681082,1.18517985 5.55952719,1.23222843 C5.36770587,1.27384846 5.1814705,1.33537363 4.99709897,1.4023277 C4.82576317,1.46385287 4.66187716,1.53804506 4.50171511,1.62128585 C4.22981184,1.76062236 3.97467199,1.92529328 3.73629183,2.11529679 C3.47556417,2.32339604 3.23904599,2.55683151 3.03232509,2.81559958 C2.74552411,3.17389424 2.52017968,3.56656937 2.35815565,3.99362677 C2.19613162,4.42068417 2.10115195,4.85859866 2.08066644,5.31279969 C2.07880408,5.37613443 2.07880408,5.43946936 2.07694175,5.50461422 C2.07321706,5.73080922 2.08439112,5.95519682 2.12163805,6.1795826 C2.17192141,6.47996979 2.24641519,6.77492935 2.35629425,7.05903182 C2.4605855,7.33046618 2.59095045,7.59104346 2.74738667,7.83714522 C2.92803405,8.12486612 3.14220305,8.38725261 3.38430904,8.62792493 C3.42900534,8.67135453 3.46625223,8.71840329 3.50163676,8.76907101 C3.73442912,9.10203127 3.96536135,9.43499152 4.19815371,9.76795178 C4.37135186,10.0140535 4.54454927,10.2601535 4.71588506,10.5062553 C4.95612721,10.8482634 5.19450737,11.1902715 5.43288753,11.5322797 C5.62284686,11.8055232 5.81466818,12.0769594 6.00462751,12.350203 C6.19086289,12.6180189 6.37895838,12.8876441 6.56519375,13.15546 C6.62292653,13.2387001 6.61733947,13.2332713 6.67320971,13.1536504 C6.91531383,12.8098331 7.15555784,12.4660158 7.39766196,12.1203874 C7.59134526,11.8435236 7.78503042,11.5648506 7.97871372,11.2861775 C8.19102055,10.9821701 8.40519123,10.6799737 8.61749807,10.3759663 C8.99182893,9.84033441 9.36616166,9.30470254 9.74049252,8.76726145 C9.78332647,8.70754568 9.82802278,8.64963966 9.88203085,8.59897175 C10.0179821,8.46868293 10.1408965,8.32572818 10.2544997,8.17915301 C10.567374,7.77200056 10.8057542,7.32684741 10.9621904,6.84188435 C11.0310971,6.62654643 11.0832429,6.40577907 11.1186274,6.18320249 C11.1391133,6.0583424 11.1577366,5.93167309 11.159599,5.80319366 C11.165186,5.7127153 11.1633237,5.61680858 11.1633237,5.52090222 L11.1633247,5.52090099 Z" id="形状"></path>
                <path d="M6.11450648,15.0555058 L6.41806902,15.0555058 C6.46835238,15.0555058 6.51863556,15.0518867 6.56891893,15.0627441 C6.58381768,15.0663632 6.5987164,15.0663632 6.61361523,15.0645537 C6.78308867,15.0446483 6.95256286,15.0609345 7.12203482,15.0536963 C7.23750019,15.0482676 7.35482717,15.0536963 7.47029422,15.046458 C7.69563865,15.033791 7.92098122,15.0193146 8.14632565,15.004838 C8.24502983,14.9975997 8.34187279,14.992171 8.44057642,14.9831233 C8.53555609,14.9740754 8.63053575,14.9650277 8.72365344,14.9541703 L8.91920058,14.9324555 C9.18924001,14.9053121 9.45555548,14.8636921 9.72187094,14.8166433 C9.96397507,14.7732137 10.2060811,14.7279745 10.4463232,14.6682589 C10.783407,14.5850189 11.1186307,14.4909215 11.4389529,14.3552036 C11.612151,14.282821 11.7797625,14.2032001 11.9324748,14.0946264 C11.9734464,14.0656734 12.0088309,14.0312916 12.0442154,13.9951003 C12.0647013,13.9733856 12.0796,13.9480516 12.0926364,13.9227177 C12.1149845,13.8829072 12.1112598,13.8449064 12.0889118,13.8069055 C12.0553896,13.754428 12.0125556,13.7109986 11.9641346,13.6729975 C11.8337704,13.5716619 11.6866454,13.4920401 11.5357951,13.4250865 C11.3737711,13.3527039 11.2080231,13.28575 11.0385493,13.233272 C10.7610601,13.1464128 10.479845,13.0686014 10.1949079,13.0125046 L9.79264171,12.9310741 C9.67903869,12.9075498 9.59150862,12.8514532 9.52632624,12.7573559 C9.44810776,12.6451628 9.43134657,12.4443006 9.55239901,12.3031549 C9.63061749,12.2108669 9.73304657,12.1656278 9.85409957,12.1529609 C9.90810764,12.1475322 9.96025317,12.1638183 10.0123989,12.1728662 C10.3867298,12.2434393 10.7573367,12.3248698 11.1223558,12.4334435 C11.396121,12.514874 11.6642985,12.6089715 11.9231641,12.7302123 C12.0870505,12.806214 12.2453502,12.8948828 12.3906127,12.9998374 C12.5414626,13.1084113 12.6774137,13.2332711 12.7779811,13.3925126 C12.8710985,13.5390874 12.9195195,13.6947108 12.9214893,13.8684277 C12.9251063,14.1109093 12.831989,14.3135809 12.6755517,14.4945383 C12.5377381,14.6537802 12.3682652,14.7768298 12.1876176,14.8817858 C11.844946,15.0808372 11.4762011,15.2165553 11.0962843,15.3287482 C10.9361226,15.3757969 10.7759602,15.4192266 10.6139362,15.4572274 C10.3420329,15.5187526 10.0682695,15.5766588 9.79264226,15.6200884 C9.51701503,15.663518 9.23952581,15.7033285 8.9620366,15.7322815 C8.78511374,15.7503771 8.60632927,15.7684728 8.42940567,15.7829494 C8.25434516,15.7974259 8.07928428,15.8082833 7.90422452,15.8191407 C7.77013561,15.8281885 7.63604707,15.826379 7.50382033,15.8372363 C7.24867861,15.8571416 6.99167492,15.8480937 6.73653506,15.8535224 C6.59313457,15.8571415 6.45159606,15.8499032 6.30819557,15.8517128 C6.16851978,15.8535224 6.02698053,15.8553319 5.88916784,15.8462841 C5.74390499,15.8354267 5.59677905,15.8408554 5.45151658,15.8281885 C5.36212397,15.8209503 5.27273136,15.8191407 5.18520111,15.813712 C5.07904751,15.8064737 4.97289427,15.7956164 4.86487701,15.7865686 C4.78479617,15.7793303 4.70471534,15.7739016 4.62463487,15.7666634 C4.38439273,15.7449487 4.14601257,15.7159955 3.90763241,15.6834234 C3.76423192,15.663518 3.61896944,15.6472321 3.47556895,15.6237076 C3.2707119,15.5893259 3.06585299,15.551325 2.86285793,15.5078954 C2.5518456,15.4409415 2.24455909,15.3613206 1.94099655,15.2654138 C1.69702859,15.1876025 1.46051227,15.0916956 1.23330586,14.9795021 C1.05452065,14.8908334 0.8869103,14.7876876 0.732334196,14.6628284 C0.596382932,14.5524449 0.482780286,14.4221561 0.402698331,14.2665331 C0.343103198,14.1507208 0.315168078,14.0294792 0.31144337,13.8991905 C0.302131639,13.6422317 0.406423038,13.4323232 0.575896855,13.2459363 C0.719297348,13.0885041 0.890633146,12.9654541 1.07686852,12.860498 C1.39346679,12.6813511 1.73055244,12.5564906 2.07880998,12.4497272 C2.42334356,12.3429628 2.77346495,12.2651513 3.12544831,12.1945775 C3.17945638,12.1837201 3.23718898,12.1782914 3.2930594,12.1855297 C3.50722822,12.2126731 3.66739027,12.393629 3.64876673,12.60173 C3.63386797,12.764591 3.53330136,12.9075467 3.33961825,12.952786 C3.22973993,12.9781199 3.11799964,12.9962156 3.0081204,13.0197399 C2.68034838,13.090313 2.35443647,13.1717435 2.0378382,13.2821264 C1.79945804,13.3653665 1.56666569,13.4630839 1.35435699,13.5969909 C1.28917498,13.638611 1.2277175,13.6820406 1.17370942,13.738137 C1.16626005,13.7471848 1.15694831,13.7544231 1.14949901,13.7634709 C1.09176623,13.8394726 1.07128053,13.8973788 1.1532237,13.9878567 C1.24075395,14.0855733 1.35063282,14.1543368 1.46609801,14.2158627 C1.64115851,14.3081506 1.82553116,14.3823428 2.01362665,14.4511056 C2.34884846,14.5705369 2.69524402,14.6610158 3.04350343,14.735208 C3.32285462,14.7949238 3.60220768,14.8455915 3.88528284,14.8835924 C4.07710416,14.9089263 4.26892548,14.9324507 4.46074679,14.9541654 C4.65629393,14.9758802 4.85183921,14.9903568 5.04738636,15.0066429 C5.23734569,15.0211194 5.42730503,15.0301672 5.61726436,15.0410247 C5.78115075,15.0482629 5.94690023,15.0482629 6.1145102,15.0555012 L6.11450648,15.0555058 Z M9.23393967,5.07393501 C9.24511373,5.40870447 9.17062001,5.72899843 9.04398033,6.0384335 C8.93968908,6.29177211 8.79070059,6.52339656 8.60632907,6.72968841 C8.41078192,6.94683554 8.18543936,7.13141141 7.92657368,7.27436816 C7.65467041,7.42456212 7.36414546,7.52589756 7.05685895,7.57475535 C6.87248687,7.60370836 6.68439007,7.61999453 6.49629272,7.60732751 C6.16479487,7.58380322 5.84447264,7.51503957 5.54091009,7.37751227 C5.32115347,7.27798622 5.11629456,7.1549357 4.93378501,7.00112187 C4.70099266,6.8038797 4.50358354,6.57768289 4.35273326,6.31348719 C4.2037457,6.05290991 4.10317935,5.7760461 4.05475852,5.48289576 C4.0417221,5.40327485 4.03054811,5.32365393 4.02868576,5.24222344 C4.02496107,5.12098249 4.02123638,4.99974191 4.03054811,4.87850114 C4.05103381,4.60525576 4.11621601,4.34286927 4.22609525,4.08953065 C4.31735021,3.87962038 4.4365401,3.68780765 4.5799406,3.50865942 C4.79969722,3.23541584 5.06787467,3.01826691 5.378887,2.85178678 C5.61540517,2.72511711 5.86682107,2.63825808 6.13127455,2.58758927 C6.2802621,2.55863626 6.43111127,2.54596924 6.58382353,2.54235009 C7.01588699,2.53149269 7.42187898,2.62739972 7.8073836,2.81016602 C7.99175569,2.89883481 8.16122894,3.01102843 8.31952901,3.14131707 C8.61936573,3.38560781 8.84657214,3.68237658 9.01045815,4.02619573 C9.11661175,4.24696309 9.18179395,4.48220596 9.21904102,4.72287828 C9.23207744,4.8386905 9.23207744,4.95631194 9.23393978,5.07393428 L9.23393967,5.07393501 Z M8.23386018,5.07212543 C8.24503425,4.22886771 7.52058168,3.51408941 6.63783123,3.51046917 C5.7625287,3.50504047 5.02131489,4.20715173 5.02317523,5.07574386 C5.02504109,5.90995371 5.71038391,6.63740011 6.6303833,6.63559247 C7.56341842,6.63559247 8.24689964,5.89185796 8.23386204,5.07212362 L8.23386018,5.07212543 Z" id="形状"></path>
            </g>
        </g>
    </g>
</svg>