<?xml version="1.0" encoding="UTF-8"?>
<svg width="20px" height="19px" viewBox="0 0 20 19" version="1.1" xmlns="http://www.w3.org/2000/svg" xmlns:xlink="http://www.w3.org/1999/xlink">
    <!-- Generator: Sketch 63.1 (92452) - https://sketch.com -->
    <title>数据字典类型_grey</title>
    <desc>Created with Sketch.</desc>
    <g id="页面-1" stroke="none" stroke-width="1" fill="none" fill-rule="evenodd">
        <g id="画板" transform="translate(-983.000000, -95.000000)" fill="#666666">
            <g id="数据字典类型_grey" transform="translate(983.000000, 95.000000)">
                <g id="形状">
                    <path d="M12.7762059,4.63698146 L7.21334228,4.63698146 C6.82572278,4.63698146 6.52191291,4.31544262 6.52191291,3.92959602 C6.52191291,3.53303145 6.83619899,3.22221058 7.21334228,3.22221058 L12.7762059,3.22221058 C13.1638254,3.22221058 13.4676353,3.54374941 13.4676353,3.92959602 C13.4781115,4.31544262 13.1638254,4.63698146 12.7762059,4.63698146 L12.7762059,4.63698146 Z M10.0000122,12.5468368 C8.26096255,12.5468368 6.63715113,11.5929383 5.75715011,10.0709878 L2.45714627,10.0709878 L2.45714627,2.23615815 C2.45714627,1.19651591 3.28476628,0.34979698 4.30095794,0.34979698 L15.6885902,0.34979698 C16.7047819,0.34979698 17.5324019,1.19651591 17.5324019,2.23615815 L17.5324019,10.0709878 L14.2323981,10.0709878 C13.352397,11.5929383 11.7390618,12.5468368 10.0000122,12.5468368 Z M3.92381464,8.57047321 L6.66857974,8.57047321 L6.86762759,8.99919166 C7.43334254,10.2424752 8.65905825,11.0463222 10.0000122,11.0463222 C11.3409661,11.0463222 12.5666818,10.2424752 13.1323968,8.99919166 L13.3314446,8.57047321 L16.0762097,8.57047321 L16.0762097,2.23615815 C16.0762097,2.02179893 15.8981143,1.85031155 15.6990664,1.85031155 L4.30095794,1.85031155 C4.09143389,1.85031155 3.92381464,2.03251689 3.92381464,2.23615815 L3.92381464,8.57047321 Z M17.7838308,18.6453567 L2.20571741,18.6453567 C1.18952575,18.6453567 0.361905737,17.7986378 0.361905737,16.7589956 L0.361905737,10.4675523 C0.361905737,9.42791011 1.18952575,8.58119117 2.20571741,8.58119117 L6.66857974,8.58119117 L6.86762759,9.00990962 C7.43334254,10.2531931 8.65905825,11.0570402 10.0000122,11.0570402 C11.3409661,11.0570402 12.5666818,10.2531931 13.1323968,9.00990962 L13.3314446,8.58119117 L17.794307,8.58119117 C18.8104986,8.58119117 19.6381186,9.42791011 19.6381186,10.4675523 L19.6381186,16.7589956 C19.6381186,17.7986378 18.8000224,18.6453567 17.7838308,18.6453567 L17.7838308,18.6453567 Z M2.20571741,10.0709878 C1.99619335,10.0709878 1.82857411,10.2531931 1.82857411,10.4568344 L1.82857411,16.7589956 C1.82857411,16.9733548 2.00666956,17.1448422 2.20571741,17.1448422 L17.7838308,17.1448422 C17.9933548,17.1448422 18.1609741,16.9626368 18.1609741,16.7589956 L18.1609741,10.4675523 C18.1609741,10.2531931 17.9828786,10.0817057 17.7838308,10.0817057 L14.2323981,10.0817057 C13.352397,11.6036562 11.7390618,12.5575548 9.98953599,12.5575548 C8.25048635,12.5575548 6.62667493,11.6036562 5.74667391,10.0817057 L2.20571741,10.0817057 L2.20571741,10.0709878 Z" fill-rule="nonzero"></path>
                </g>
            </g>
        </g>
    </g>
</svg>