<?xml version="1.0" encoding="UTF-8"?>
<svg width="21px" height="19px" viewBox="0 0 21 19" version="1.1" xmlns="http://www.w3.org/2000/svg" xmlns:xlink="http://www.w3.org/1999/xlink">
    <!-- Generator: Sketch 63.1 (92452) - https://sketch.com -->
    <title>数据字典类型_green</title>
    <desc>Created with Sketch.</desc>
    <g id="页面-1" stroke="none" stroke-width="1" fill="none" fill-rule="evenodd">
        <g id="画板" transform="translate(-1016.000000, -95.000000)" fill="#6ABF4B">
            <g id="数据字典类型_green" transform="translate(1016.000000, 95.000000)">
                <g id="形状">
                    <path d="M13.4150162,4.63698146 L7.5740094,4.63698146 C7.16700892,4.63698146 6.84800855,4.31544262 6.84800855,3.92959602 C6.84800855,3.53303145 7.17800893,3.22221058 7.5740094,3.22221058 L13.4150162,3.22221058 C13.8220167,3.22221058 14.141017,3.54374941 14.141017,3.92959602 C14.152017,4.31544262 13.8220167,4.63698146 13.4150162,4.63698146 L13.4150162,4.63698146 Z M10.5000128,12.5468368 C8.67401068,12.5468368 6.96900869,11.5929383 6.04500762,10.0709878 L2.58000358,10.0709878 L2.58000358,2.23615815 C2.58000358,1.19651591 3.4490046,0.34979698 4.51600584,0.34979698 L16.4730198,0.34979698 C17.540021,0.34979698 18.409022,1.19651591 18.409022,2.23615815 L18.409022,10.0709878 L14.944018,10.0709878 C14.0200169,11.5929383 12.3260149,12.5468368 10.5000128,12.5468368 Z M4.12000538,8.57047321 L7.00200873,8.57047321 L7.21100897,8.99919166 C7.80500966,10.2424752 9.09201116,11.0463222 10.5000128,11.0463222 C11.9080144,11.0463222 13.1950159,10.2424752 13.7890166,8.99919166 L13.9980169,8.57047321 L16.8800202,8.57047321 L16.8800202,2.23615815 C16.8800202,2.02179893 16.69302,1.85031155 16.4840198,1.85031155 L4.51600584,1.85031155 C4.29600558,1.85031155 4.12000538,2.03251689 4.12000538,2.23615815 L4.12000538,8.57047321 Z M18.6730223,18.6453567 L2.31600328,18.6453567 C1.24900204,18.6453567 0.380001024,17.7986378 0.380001024,16.7589956 L0.380001024,10.4675523 C0.380001024,9.42791011 1.24900204,8.58119117 2.31600328,8.58119117 L7.00200873,8.58119117 L7.21100897,9.00990962 C7.80500966,10.2531931 9.09201116,11.0570402 10.5000128,11.0570402 C11.9080144,11.0570402 13.1950159,10.2531931 13.7890166,9.00990962 L13.9980169,8.58119117 L18.6840223,8.58119117 C19.7510236,8.58119117 20.6200246,9.42791011 20.6200246,10.4675523 L20.6200246,16.7589956 C20.6200246,17.7986378 19.7400236,18.6453567 18.6730223,18.6453567 L18.6730223,18.6453567 Z M2.31600328,10.0709878 C2.09600302,10.0709878 1.92000282,10.2531931 1.92000282,10.4568344 L1.92000282,16.7589956 C1.92000282,16.9733548 2.10700303,17.1448422 2.31600328,17.1448422 L18.6730223,17.1448422 C18.8930226,17.1448422 19.0690228,16.9626368 19.0690228,16.7589956 L19.0690228,10.4675523 C19.0690228,10.2531931 18.8820226,10.0817057 18.6730223,10.0817057 L14.944018,10.0817057 C14.0200169,11.6036562 12.3260149,12.5575548 10.4890128,12.5575548 C8.66301066,12.5575548 6.95800868,11.6036562 6.0340076,10.0817057 L2.31600328,10.0817057 L2.31600328,10.0709878 Z" fill-rule="nonzero"></path>
                </g>
            </g>
        </g>
    </g>
</svg>