<?xml version="1.0" encoding="UTF-8"?>
<svg width="16px" height="16px" viewBox="0 0 16 16" version="1.1" xmlns="http://www.w3.org/2000/svg" xmlns:xlink="http://www.w3.org/1999/xlink">
    <!-- Generator: Sketch 63.1 (92452) - https://sketch.com -->
    <title>数据字典_grey</title>
    <desc>Created with Sketch.</desc>
    <g id="页面-1" stroke="none" stroke-width="1" fill="none" fill-rule="evenodd">
        <g id="画板" transform="translate(-35.000000, -128.000000)" fill="#666666">
            <g id="数据字典_grey" transform="translate(35.000000, 128.000000)">
                <g id="形状">
                    <path d="M12.7179448,0 L12.7179448,0 C13.0578125,0 13.3333294,0.275516828 13.3333294,0.615384618 C13.3333294,0.615384618 13.3333294,0.615384618 13.3333294,0.615384618 L13.3333294,10.6666667 L1.93805695,10.6666667 L1.93805692,10.6666667 C1.59818914,10.6666667 1.32267231,10.9421835 1.32267231,11.2820513 C1.32267231,11.2820513 1.32267231,11.2820513 1.32267231,11.2820513 L1.32267231,14.0619392 L1.32267231,14.0619391 C1.32267226,14.4018069 1.59818914,14.6773237 1.93805692,14.6773237 L14.5066667,14.6773237 L14.5066667,1.53846145 L14.5066667,1.53846148 C14.5066667,1.42517222 14.5985056,1.33333328 14.7117949,1.33333328 C14.7117949,1.33333328 14.7117949,1.33333328 14.7117949,1.33333328 L15.7948718,1.33333328 L15.7948718,1.33333328 C15.9081611,1.33333327 16,1.42517222 16,1.53846148 C16,1.53846148 16,1.53846148 16,1.53846148 L16,15.3846154 L16,15.3846154 C16,15.7244832 15.7244832,16 15.3846154,16 C15.3846154,16 15.3846154,16 15.3846154,16 L0.615384641,16 L0.615384614,16 C0.275516826,16 0,15.7244832 0,15.3846154 C0,15.3846154 0,15.3846154 0,15.3846154 L0,0.615384556 L0,0.615384649 C0,0.275516859 0.275516826,0 0.615384614,0 L12.7179448,0 Z M13.1282012,11.9253406 L13.1282012,11.9253406 C13.2414904,11.9253406 13.3333294,12.0171795 13.3333294,12.1304688 C13.3333294,12.1304688 13.3333294,12.1304688 13.3333294,12.1304688 L13.3333294,13.2135457 L13.3333294,13.2135457 C13.3333294,13.326835 13.2414904,13.4186739 13.1282012,13.4186739 C13.1282012,13.4186739 13.1282012,13.4186739 13.1282012,13.4186739 L2.87179094,13.4186739 L2.87179093,13.4186739 C2.75850167,13.4186739 2.66666273,13.326835 2.66666273,13.2135457 C2.66666273,13.2135457 2.66666273,13.2135457 2.66666273,13.2135457 L2.66666273,12.1304688 L2.66666273,12.1304688 C2.66666273,12.0171796 2.75850167,11.9253406 2.87179093,11.9253406 L13.1282012,11.9253406 L13.1282012,11.9253406 Z" fill-rule="nonzero"></path>
                </g>
            </g>
        </g>
    </g>
</svg>