<?xml version="1.0" encoding="UTF-8"?>
<svg width="17px" height="16px" viewBox="0 0 17 16" version="1.1" xmlns="http://www.w3.org/2000/svg" xmlns:xlink="http://www.w3.org/1999/xlink">
    <!-- Generator: Sketch 63.1 (92452) - https://sketch.com -->
    <title>机构管理_grey</title>
    <desc>Created with Sketch.</desc>
    <g id="页面-1" stroke="none" stroke-width="1" fill="none" fill-rule="evenodd">
        <g id="画板" transform="translate(-164.000000, -128.000000)" fill="#666666">
            <g id="机构管理_grey" transform="translate(164.000000, 128.000000)">
                <g id="形状">
                    <path d="M3.32547793,13.1195251 L3.32547793,7.87183254 C3.69182735,7.87183254 3.99056095,7.57704851 3.99056095,7.21621187 L3.99056095,6.56004545 L0.665145813,6.56004545 L0.665145813,7.21621187 C0.665145813,7.57704851 0.96443349,7.87183254 1.33022884,7.87183254 L1.33022884,13.1195251 L3.32547479,13.1195251 L3.32547793,13.1195251 Z M7.31596982,13.1195251 L7.31596982,7.87183254 C7.68231924,7.87183254 7.98105285,7.57704851 7.98105285,7.21621187 L7.98105285,6.56004545 L4.6556377,6.56004545 L4.6556377,7.21621187 C4.6556377,7.57704851 4.95492538,7.87183254 5.32072073,7.87183254 L5.32072073,13.1195251 L7.31596668,13.1195251 L7.31596982,13.1195251 Z M11.3064617,13.1195251 L11.3064617,7.87183254 C11.6728111,7.87183254 11.9715447,7.57704851 11.9715447,7.21621187 L11.9715447,6.56004545 L8.6461296,6.56004545 L8.6461296,7.21621187 C8.6461296,7.57704851 8.94541727,7.87183254 9.31121262,7.87183254 L9.31121262,13.1195251 L11.3064586,13.1195251 L11.3064617,13.1195251 Z M15.2969536,13.1195251 L15.2969536,7.87183254 C15.663303,7.87183254 15.9620366,7.57704851 15.9620366,7.21621187 L15.9620366,6.56004545 L12.6366215,6.56004545 L12.6366215,7.21621187 C12.6366215,7.57704851 12.9359092,7.87183254 13.3017045,7.87183254 L13.3017045,13.1195251 L15.2969505,13.1195251 L15.2969536,13.1195251 Z M15.9620366,13.8237302 L15.2969536,13.8237302 C15.2969536,13.6599614 1.33020059,13.8237302 1.33020059,13.8237302 L0.66511756,13.8237302 C0.299322208,13.8237302 3.45315031e-05,14.1185142 3.45315031e-05,14.4798966 L3.45315031e-05,15.136063 C3.45315031e-05,15.4974454 0.299322208,15.7922294 0.66511756,15.7922294 L15.9620398,15.7922294 C16.3278351,15.7922294 16.6271228,15.4974454 16.6271228,15.136063 L16.6271228,14.4798966 C16.6271228,14.1190599 16.3278351,13.8242759 15.9620398,13.8242759 L15.9620366,13.8237302 Z M0.639074528,5.90442014 L15.9880922,5.90442014 C16.3411407,5.90442014 16.6271259,5.61127332 16.6271259,5.24879947 C16.6271259,4.97312238 16.4619633,4.73729485 16.2280767,4.640126 L8.62949797,0.0895378127 L8.62949799,0.0895378249 C8.43169055,-0.0296959124 8.1827294,-0.0296959124 7.98492196,0.0895377812 L0.317060434,4.6810639 C0.0676535133,4.83118537 -0.0531690769,5.13361203 0.0222069159,5.41911546 C0.0975830657,5.70571036 0.350868345,5.90387128 0.639071409,5.90387128 L0.639074528,5.90442014 Z M8.31357553,2.1983314 L8.31357558,2.1983314 C9.10330321,2.1983314 9.74350472,2.82889769 9.74350472,3.60674159 C9.74350472,3.6072878 9.74350439,3.60783401 9.74350375,3.60838022 L9.74350373,3.6083797 C9.76548979,4.38592213 9.14336034,5.03380046 8.35393878,5.05545521 C7.56451723,5.07711042 6.90674075,4.4643427 6.88475517,3.68680026 C6.88401618,3.66066554 6.88401617,3.63451566 6.88475514,3.60838078 L6.88475511,3.60835479 C6.88385085,2.83051089 7.52331795,2.19922262 8.31304558,2.1983314 C8.31323098,2.1983314 8.31341638,2.1983314 8.31360179,2.1983314 L8.31357553,2.1983314 Z" fill-rule="nonzero"></path>
                </g>
            </g>
        </g>
    </g>
</svg>