<?xml version="1.0" encoding="UTF-8"?>
<svg width="19px" height="18px" viewBox="0 0 19 18" version="1.1" xmlns="http://www.w3.org/2000/svg" xmlns:xlink="http://www.w3.org/1999/xlink">
    <!-- Generator: Sketch 63.1 (92452) - https://sketch.com -->
    <title>jigou-2</title>
    <desc>Created with Sketch.</desc>
    <g id="Page" stroke="none" stroke-width="1" fill="none" fill-rule="evenodd">
        <g id="画板" transform="translate(-349.000000, -62.000000)" fill="#6ABF4B" fill-rule="nonzero">
            <g id="jigou-2" transform="translate(349.000000, 62.000000)">
                <path d="M10.9900034,0 C11.9167528,0 12.6666667,0.728268551 12.6666667,1.62826855 L12.6666667,4.52226148 C12.6666667,5.42226148 11.9167528,6.15053004 10.9900034,6.15053004 L10.3383316,6.15053004 L10.3383316,7.38763251 L14.0191313,7.38763251 C15.3617718,7.38763251 16.4686315,8.41166078 16.5308514,9.7155477 L16.5341262,9.83003534 L16.5341262,11.84947 L17.3233368,11.84947 C18.2500862,11.84947 19,12.5777385 19,13.4777385 L19,16.3717314 C19,17.2717314 18.2500862,18 17.3233368,18 L14.3433299,18 C13.4165805,18 12.6666667,17.2717314 12.6666667,16.3717314 L12.6666667,13.4777385 C12.6666667,12.5777385 13.4165805,11.84947 14.3433299,11.84947 L14.8574629,11.84947 L14.8574629,9.83639576 L14.8541882,9.75053004 C14.8116167,9.33392226 14.4513961,9.01590106 14.0191313,9.01590106 L4.87935195,9.01590106 C4.41761462,9.03498233 4.057394,9.41342756 4.0770424,9.89681979 L4.0770424,11.84947 L4.65667011,11.84947 C5.58341951,11.84947 6.33333333,12.5777385 6.33333333,13.4777385 L6.33333333,16.3717314 C6.33333333,17.2717314 5.58341951,18 4.65667011,18 L1.67666322,18 C0.749913823,18 0,17.2717314 0,16.3717314 L0,13.4777385 C0,12.5777385 0.749913823,11.84947 1.67666322,11.84947 L2.40365391,11.84947 L2.40365391,9.93180212 C2.34798345,8.62791519 3.35332644,7.51166078 4.69269218,7.39717314 L4.81058256,7.39081272 C4.84660462,7.39081272 4.88262668,7.38763251 4.91537401,7.38763251 L8.66166839,7.38763251 L8.66166839,6.15053004 L8.00999655,6.15053004 C7.08324716,6.15053004 6.33333333,5.42226148 6.33333333,4.52226148 L6.33333333,1.62826855 C6.33333333,0.728268551 7.08324716,0 8.00999655,0 L10.9900034,0 Z" id="路径"></path>
            </g>
        </g>
    </g>
</svg>