<?xml version="1.0" encoding="UTF-8"?>
<svg width="16px" height="16px" viewBox="0 0 16 16" version="1.1" xmlns="http://www.w3.org/2000/svg" xmlns:xlink="http://www.w3.org/1999/xlink">
    <!-- Generator: Sketch 63.1 (92452) - https://sketch.com -->
    <title>机构管理_green</title>
    <desc>Created with Sketch.</desc>
    <g id="页面-1" stroke="none" stroke-width="1" fill="none" fill-rule="evenodd">
        <g id="画板" transform="translate(-188.000000, -128.000000)" fill="#6ABF4B">
            <g id="机构管理_green" transform="translate(188.000000, 128.000000)">
                <g id="形状">
                    <path d="M3.12986158,13.1195251 L3.12986158,7.87183254 C3.47466104,7.87183254 3.75582208,7.57704851 3.75582208,7.21621187 L3.75582208,6.56004545 L0.626019589,6.56004545 L0.626019589,7.21621187 C0.626019589,7.57704851 0.907702108,7.87183254 1.25198009,7.87183254 L1.25198009,13.1195251 L3.12985862,13.1195251 L3.12986158,13.1195251 Z M6.88561865,13.1195251 L6.88561865,7.87183254 C7.23041811,7.87183254 7.51157915,7.57704851 7.51157915,7.21621187 L7.51157915,6.56004545 L4.38177666,6.56004545 L4.38177666,7.21621187 C4.38177666,7.57704851 4.66345918,7.87183254 5.00773716,7.87183254 L5.00773716,13.1195251 L6.8856157,13.1195251 L6.88561865,13.1195251 Z M10.6413757,13.1195251 L10.6413757,7.87183254 C10.9861752,7.87183254 11.2673362,7.57704851 11.2673362,7.21621187 L11.2673362,6.56004545 L8.13753374,6.56004545 L8.13753374,7.21621187 C8.13753374,7.57704851 8.41921626,7.87183254 8.76349424,7.87183254 L8.76349424,13.1195251 L10.6413728,13.1195251 L10.6413757,13.1195251 Z M14.3971328,13.1195251 L14.3971328,7.87183254 C14.7419323,7.87183254 15.0230933,7.57704851 15.0230933,7.21621187 L15.0230933,6.56004545 L11.8932908,6.56004545 L11.8932908,7.21621187 C11.8932908,7.57704851 12.1749733,7.87183254 12.5192513,7.87183254 L12.5192513,13.1195251 L14.3971298,13.1195251 L14.3971328,13.1195251 Z M15.0230933,13.8237302 L14.3971328,13.8237302 C14.3971328,13.6599614 1.25195349,13.8237302 1.25195349,13.8237302 L0.625992998,13.8237302 C0.281715019,13.8237302 3.25002382e-05,14.1185142 3.25002382e-05,14.4798966 L3.25002382e-05,15.136063 C3.25002382e-05,15.4974454 0.281715019,15.7922294 0.625992998,15.7922294 L15.0230963,15.7922294 C15.3673742,15.7922294 15.6490568,15.4974454 15.6490568,15.136063 L15.6490568,14.4798966 C15.6490568,14.1190599 15.3673742,13.8242759 15.0230963,13.8242759 L15.0230933,13.8237302 Z M0.601481909,5.90442014 L15.0476162,5.90442014 C15.3798972,5.90442014 15.6490597,5.61127332 15.6490597,5.24879947 C15.6490597,4.97312238 15.4936125,4.73729485 15.273484,4.640126 L8.12188044,0.0895378127 L8.12188046,0.0895378249 C7.93570875,-0.0296959124 7.70139238,-0.0296959124 7.51522067,0.0895377812 L0.29840982,4.6810639 C0.0636738948,4.83118537 -0.0500414841,5.13361203 0.0209006268,5.41911546 C0.0918428854,5.70571036 0.33022903,5.90387128 0.601478973,5.90387128 L0.601481909,5.90442014 Z M7.82454167,2.1983314 L7.82454172,2.1983314 C8.56781478,2.1983314 9.17035738,2.82889769 9.17035738,3.60674159 C9.17035738,3.6072878 9.17035708,3.60783401 9.17035647,3.60838022 L9.17035646,3.6083797 C9.19104921,4.38592213 8.60551561,5.03380046 7.86253062,5.05545521 C7.11954563,5.07711042 6.50046189,4.4643427 6.47976958,3.68680026 C6.47907405,3.66066554 6.47907404,3.63451566 6.47976955,3.60838078 L6.47976952,3.60835479 C6.47891844,2.83051089 7.08076983,2.19922262 7.82404289,2.1983314 C7.82421739,2.1983314 7.82439189,2.1983314 7.82456639,2.1983314 L7.82454167,2.1983314 Z" fill-rule="nonzero"></path>
                </g>
            </g>
        </g>
    </g>
</svg>