<?xml version="1.0" encoding="UTF-8"?>
<svg width="18px" height="18px" viewBox="0 0 18 18" version="1.1" xmlns="http://www.w3.org/2000/svg" xmlns:xlink="http://www.w3.org/1999/xlink">
    <!-- Generator: Sketch 63.1 (92452) - https://sketch.com -->
    <title>jigou</title>
    <desc>Created with Sketch.</desc>
    <g id="Page" stroke="none" stroke-width="1" fill="none" fill-rule="evenodd">
        <g id="画板" transform="translate(-323.000000, -62.000000)" fill="#666666" fill-rule="nonzero">
            <g id="jigou" transform="translate(323.000000, 62.000000)">
                <path d="M10.4115822,0 C11.2895553,0 12,0.728268551 12,1.62826855 L12,4.52226148 C12,5.42226148 11.2895553,6.15053004 10.4115822,6.15053004 L9.79420889,6.15053004 L9.79420889,7.38763251 L13.2812823,7.38763251 C14.5532575,7.38763251 15.6018614,8.41166078 15.6608066,9.7155477 L15.663909,9.83003534 L15.663909,11.84947 L16.4115822,11.84947 C17.2895553,11.84947 18,12.5777385 18,13.4777385 L18,16.3717314 C18,17.2717314 17.2895553,18 16.4115822,18 L13.5884178,18 C12.7104447,18 12,17.2717314 12,16.3717314 L12,13.4777385 C12,12.5777385 12.7104447,11.84947 13.5884178,11.84947 L14.0754912,11.84947 L14.0754912,9.83639576 L14.0723888,9.75053004 C14.0320579,9.33392226 13.6907963,9.01590106 13.2812823,9.01590106 L4.62254395,9.01590106 C4.18510858,9.03498233 3.84384695,9.41342756 3.86246122,9.89681979 L3.86246122,11.84947 L4.41158221,11.84947 C5.28955533,11.84947 6,12.5777385 6,13.4777385 L6,16.3717314 C6,17.2717314 5.28955533,18 4.41158221,18 L1.58841779,18 C0.710444674,18 0,17.2717314 0,16.3717314 L0,13.4777385 C0,12.5777385 0.710444674,11.84947 1.58841779,11.84947 L2.27714581,11.84947 L2.27714581,9.93180212 C2.22440538,8.62791519 3.17683557,7.51166078 4.44570838,7.39717314 L4.557394,7.39081272 C4.59152017,7.39081272 4.62564633,7.38763251 4.65667011,7.38763251 L8.20579111,7.38763251 L8.20579111,6.15053004 L7.58841779,6.15053004 C6.71044467,6.15053004 6,5.42226148 6,4.52226148 L6,1.62826855 C6,0.728268551 6.71044467,0 7.58841779,0 L10.4115822,0 Z" id="路径"></path>
            </g>
        </g>
    </g>
</svg>