<?xml version="1.0" encoding="UTF-8"?>
<svg width="24px" height="19px" viewBox="0 0 24 19" version="1.1" xmlns="http://www.w3.org/2000/svg" xmlns:xlink="http://www.w3.org/1999/xlink">
    <!-- Generator: Sketch 63.1 (92452) - https://sketch.com -->
    <title>注册用户管理</title>
    <desc>Created with Sketch.</desc>
    <g id="页面-1" stroke="none" stroke-width="1" fill="none" fill-rule="evenodd">
        <g id="画板" transform="translate(-465.000000, -96.000000)" fill="#666666">
            <g id="注册用户管理" transform="translate(465.000000, 96.000000)">
                <g id="形状">
                    <path d="M21.5019425,18.4947166 L1.96793815,18.4947166 L1.9679381,18.4947166 C0.881458409,18.4934745 0.00105041469,17.6456765 -9.3844454e-05,16.5995674 L-9.3844454e-05,1.89487756 L-9.3844454e-05,1.89485938 C0.00120554995,0.84885316 0.881574733,0.00120998963 1.96795688,-1.81751271e-05 L21.5019612,-1.81751271e-05 L21.5019612,-1.81751271e-05 C22.5882307,0.00137072746 23.4684174,0.848972364 23.4697118,1.89487744 L23.4697118,16.5995673 L23.4697118,16.599532 C23.4685865,17.6455382 22.5883583,18.4933078 21.5019799,18.4947166 L21.5019425,18.4947166 Z M1.96793815,1.36436458 L1.96793816,1.36436458 C1.66374531,1.36464049 1.41721936,1.60200542 1.41693235,1.89489381 L1.41693235,16.5995836 L1.41693235,16.599569 C1.41721028,16.8924989 1.66368714,17.1299411 1.96792314,17.1303637 L21.5019274,17.1303637 L21.5019275,17.1303637 C21.8061034,17.1298125 22.0525056,16.8924556 22.0529333,16.5995835 L22.0529333,1.89489364 L22.0529333,1.89491013 C22.0525133,1.60207773 21.8060791,1.36478727 21.5019444,1.36436458 L1.96793815,1.36436458 Z" fill-rule="nonzero"></path>
                    <path d="M7.87653597,10.0012349 L7.87653584,10.0012349 C6.11224205,10.0006814 4.68245836,8.6231414 4.68303969,6.92441078 C4.68361412,5.22568196 6.11432235,3.84903212 7.87861801,3.84959185 C9.64260791,3.85014484 11.072264,5.22722801 11.0721141,6.925657 L11.0721141,6.92553116 C11.0707522,8.62403782 9.64073218,10.0004763 7.87666725,10.0012349 L7.87653597,10.0012349 Z M7.87653597,5.21395587 L7.8765359,5.21395587 C6.89484221,5.21395587 6.09902123,5.98020316 6.09902123,6.92541498 C6.09902123,7.87062681 6.89484221,8.63687336 7.8765359,8.63687336 C8.85812829,8.63687336 9.653908,7.87078033 9.65405056,6.92566423 L9.65405056,6.92564002 C9.65303409,5.98078761 8.85783188,5.21504496 7.87650961,5.21395587 L7.87653597,5.21395587 Z" fill-rule="nonzero"></path>
                    <path d="M12.2268779,14.644871 L12.2268779,14.644871 C11.8360853,14.6448716 11.5190842,14.3402103 11.5183676,13.9639403 C11.5183676,12.030502 9.8845813,10.4574397 7.87652843,10.4574397 C5.86846618,10.4574397 4.2344266,12.0292594 4.2344266,13.9639403 L4.2344266,13.9639403 C4.2344266,14.3406979 3.91721545,14.6461208 3.52591634,14.6461208 C3.13461723,14.6461208 2.81740609,14.3406979 2.81740609,13.9639403 C2.81740609,11.2780163 5.08692217,9.09307515 7.87653218,9.09307515 C10.6661234,9.09307515 12.9353957,11.276752 12.9353957,13.9639403 L12.9353957,13.9639383 C12.9348231,14.3402642 12.6177381,14.645008 12.2268873,14.6448708 L12.2268779,14.644871 Z M19.9438179,10.3085464 L15.3127573,10.3085464 L15.3127573,10.3085464 C14.9214581,10.3085464 14.604247,10.0031235 14.604247,9.62636595 C14.604247,9.24960836 14.9214581,8.94418546 15.3127573,8.94418546 L19.9438179,8.94418546 L19.9438179,8.94418546 C20.335117,8.94418546 20.6523281,9.24960836 20.6523281,9.62636595 C20.6523281,10.0031235 20.335117,10.3085464 19.9438179,10.3085464 L19.9438179,10.3085464 Z M19.9438179,13.5039782 L17.2020417,13.5039782 L17.2020416,13.5039782 C16.8107425,13.5039782 16.4935314,13.1985553 16.4935314,12.8217977 C16.4935314,12.4450401 16.8107425,12.1396172 17.2020416,12.1396172 L19.9438179,12.1396172 L19.9438178,12.1396172 C20.335117,12.1396172 20.6523281,12.4450401 20.6523281,12.8217977 C20.6523281,13.1985553 20.335117,13.5039782 19.9438178,13.5039782 L19.9438179,13.5039782 Z M19.9438179,7.11309661 L13.5019766,7.11309661 L13.5019766,7.11309661 C13.1106775,7.11309661 12.7934663,6.80767372 12.7934663,6.43091613 C12.7934663,6.05415854 13.1106775,5.74873565 13.5019766,5.74873565 C13.5019766,5.74873565 13.5019766,5.74873565 13.5019766,5.74873565 L19.943818,5.74873565 L19.943818,5.74873565 C20.3351171,5.74873565 20.6523283,6.05415854 20.6523283,6.43091613 C20.6523283,6.80767372 20.3351171,7.11309661 19.943818,7.11309661 L19.9438179,7.11309661 Z" fill-rule="nonzero"></path>
                </g>
            </g>
        </g>
    </g>
</svg>