<?xml version="1.0" encoding="UTF-8"?>
<svg width="23px" height="19px" viewBox="0 0 23 19" version="1.1" xmlns="http://www.w3.org/2000/svg" xmlns:xlink="http://www.w3.org/1999/xlink">
    <!-- Generator: Sketch 63.1 (92452) - https://sketch.com -->
    <title>注册用户管理</title>
    <desc>Created with Sketch.</desc>
    <g id="页面-1" stroke="none" stroke-width="1" fill="none" fill-rule="evenodd">
        <g id="画板" transform="translate(-500.000000, -96.000000)" fill="#6ABF4B">
            <g id="注册用户管理" transform="translate(500.000000, 96.000000)">
                <g id="形状">
                    <path d="M20.6060282,18.4947166 L1.88594073,18.4947166 L1.88594068,18.4947166 C0.844730975,18.4934745 0.00100664741,17.6456765 -8.99342685e-05,16.5995674 L-8.99342685e-05,1.89487756 L-8.99342685e-05,1.89485938 C0.0011553187,0.84885316 0.844842453,0.00120998963 1.88595867,-1.81751271e-05 L20.6060461,-1.81751271e-05 L20.6060461,-1.81751271e-05 C21.6470545,0.00137072746 22.4905667,0.848972364 22.4918071,1.89487744 L22.4918071,16.5995673 L22.4918071,16.599532 C22.4907287,17.6455382 21.6471767,18.4933078 20.6060641,18.4947166 L20.6060282,18.4947166 Z M1.88594073,1.36436458 L1.88594074,1.36436458 C1.59442259,1.36464049 1.35816856,1.60200542 1.3578935,1.89489381 L1.3578935,16.5995836 L1.3578935,16.599569 C1.35815985,16.8924989 1.59436684,17.1299411 1.88592634,17.1303637 L20.6060138,17.1303637 L20.6060138,17.1303637 C20.8975158,17.1298125 21.1336512,16.8924556 21.1340611,16.5995835 L21.1340611,1.89489364 L21.1340611,1.89491013 C21.1336585,1.60207773 20.8974924,1.36478727 20.60603,1.36436458 L1.88594073,1.36436458 Z" fill-rule="nonzero"></path>
                    <path d="M7.54834697,10.0012349 L7.54834684,10.0012349 C5.8575653,10.0006814 4.48735592,8.6231414 4.48791303,6.92441078 C4.48846353,5.22568196 5.85955892,3.84903212 7.55034226,3.84959185 C9.24083258,3.85014484 10.6109197,5.22722801 10.610776,6.925657 L10.610776,6.92553116 C10.6094708,8.62403782 9.23903501,10.0004763 7.54847278,10.0012349 L7.54834697,10.0012349 Z M7.54834697,5.21395587 L7.5483469,5.21395587 C6.60755712,5.21395587 5.84489534,5.98020316 5.84489534,6.92541498 C5.84489534,7.87062681 6.60755712,8.63687336 7.5483469,8.63687336 C8.48903961,8.63687336 9.25166183,7.87078033 9.25179846,6.92566423 L9.25179846,6.92564002 C9.25082433,5.98078761 8.48875555,5.21504496 7.54832171,5.21395587 L7.54834697,5.21395587 Z" fill-rule="nonzero"></path>
                    <path d="M11.7174247,14.644871 L11.7174247,14.644871 C11.342915,14.6448716 11.0391224,14.3402103 11.0384357,13.9639403 C11.0384357,12.030502 9.47272375,10.4574397 7.54833975,10.4574397 C5.62394675,10.4574397 4.05799216,12.0292594 4.05799216,13.9639403 L4.05799216,13.9639403 C4.05799216,14.3406979 3.75399814,14.6461208 3.37900316,14.6461208 C3.00400818,14.6461208 2.70001417,14.3406979 2.70001417,13.9639403 C2.70001417,11.2780163 4.87496708,9.09307515 7.54834334,9.09307515 C10.2217016,9.09307515 12.3964208,11.276752 12.3964208,13.9639403 L12.3964208,13.9639383 C12.3958722,14.3402642 12.091999,14.645008 11.7174336,14.6448708 L11.7174247,14.644871 Z M19.1128255,10.3085464 L14.6747257,10.3085464 L14.6747257,10.3085464 C14.2997307,10.3085464 13.9957367,10.0031235 13.9957367,9.62636595 C13.9957367,9.24960836 14.2997307,8.94418546 14.6747257,8.94418546 L19.1128255,8.94418546 L19.1128254,8.94418546 C19.4878204,8.94418546 19.7918144,9.24960836 19.7918144,9.62636595 C19.7918144,10.0031235 19.4878204,10.3085464 19.1128254,10.3085464 L19.1128255,10.3085464 Z M19.1128255,13.5039782 L16.4852899,13.5039782 L16.4852899,13.5039782 C16.1102949,13.5039782 15.8063009,13.1985553 15.8063009,12.8217977 C15.8063009,12.4450401 16.1102949,12.1396172 16.4852899,12.1396172 L19.1128255,12.1396172 L19.1128254,12.1396172 C19.4878204,12.1396172 19.7918144,12.4450401 19.7918144,12.8217977 C19.7918144,13.1985553 19.4878204,13.5039782 19.1128254,13.5039782 L19.1128255,13.5039782 Z M19.1128255,7.11309661 L12.9393942,7.11309661 L12.9393942,7.11309661 C12.5643993,7.11309661 12.2604052,6.80767372 12.2604052,6.43091613 C12.2604052,6.05415854 12.5643993,5.74873565 12.9393942,5.74873565 C12.9393942,5.74873565 12.9393943,5.74873565 12.9393943,5.74873565 L19.1128256,5.74873565 L19.1128256,5.74873565 C19.4878206,5.74873565 19.7918146,6.05415854 19.7918146,6.43091613 C19.7918146,6.80767372 19.4878206,7.11309661 19.1128256,7.11309661 L19.1128255,7.11309661 Z" fill-rule="nonzero"></path>
                </g>
            </g>
        </g>
    </g>
</svg>