<?xml version="1.0" encoding="UTF-8"?>
<svg width="16px" height="16px" viewBox="0 0 16 16" version="1.1" xmlns="http://www.w3.org/2000/svg" xmlns:xlink="http://www.w3.org/1999/xlink">
    <!-- Generator: Sketch 63.1 (92452) - https://sketch.com -->
    <title>流程定义_green</title>
    <desc>Created with Sketch.</desc>
    <g id="页面-1" stroke="none" stroke-width="1" fill="none" fill-rule="evenodd">
        <g id="画板" transform="translate(-140.000000, -128.000000)" fill="#6ABF4B">
            <g id="流程定义_green" transform="translate(140.000000, 128.000000)">
                <g id="形状">
                    <path d="M14.1845946,7.26921181 L14.1845947,7.26921181 C13.8459849,4.40936473 11.5907323,2.15464335 8.73080706,1.81672108 L8.73080706,0.00168772269 L8.73080706,0.00168772269 C12.5899366,0.353089697 15.6477214,3.41016044 16.0000187,7.26921181 L14.1845947,7.26921181 L14.1845946,7.26921181 Z M12.1408943,8.00000931 L12.1408943,8.00013939 C12.1408943,10.2870795 10.2869495,12.1410192 8.00000931,12.1410192 C5.71306915,12.1410192 3.85912949,10.2870795 3.85912949,8.00013939 C3.85912949,5.71319923 5.71306915,3.85925957 8.00000931,3.85925957 C8.00005267,3.85925957 8.00009603,3.85925957 8.00013939,3.85925957 L8.00013945,3.85925957 C10.2869859,3.85925957 12.1408943,5.71316798 12.1408943,8.00001439 L12.1408943,8.00000931 Z M8.00000931,5.5181783 L8.0000092,5.5181783 C6.62933573,5.5181783 5.51817819,6.62932959 5.51817819,8.00000931 C5.51817819,9.37068278 6.62932948,10.4818403 8.0000092,10.4818403 C9.37068267,10.4818403 10.4818402,9.37068903 10.4818402,8.00000931 C10.4818402,8.00000931 10.4818402,8.00000931 10.4818402,8.00000931 L10.4818402,8.00000942 C10.4818402,6.62933595 9.37069048,5.5181783 8.0000092,5.5181783 L8.00000931,5.5181783 Z M1.81542399,7.26921158 L-6.6613459e-16,7.26921158 L-6.6613459e-16,7.26921158 C0.352259814,3.4103474 3.40976962,0.353328217 7.26869599,0.00168718237 L7.26869599,1.81672054 L7.26869599,1.81672059 C4.40895793,2.15487098 2.15398656,4.4095361 1.81542366,7.26921158 L1.81542399,7.26921158 Z M1.81542399,8.73080703 L1.81542402,8.73080703 C2.15401191,11.5907012 4.40936454,13.845407 7.26935229,14.183173 L7.26935229,15.9982064 L7.26935229,15.9982064 C3.41014467,15.6470247 0.352234862,12.5899368 1.5701895e-05,8.73080703 L1.81543969,8.73080703 L1.81542399,8.73080703 Z M14.1846103,8.73079228 L16.0000342,8.73079228 L16.0000342,8.73079228 C15.647815,12.5896718 12.5902802,15.6466754 8.7313382,15.9981914 L8.7313382,14.183158 L8.7313382,14.183158 C11.5910761,13.8451092 13.8460943,11.5904675 14.1846103,8.73079228 L14.1846103,8.73079228 Z" fill-rule="nonzero"></path>
                </g>
            </g>
        </g>
    </g>
</svg>