<?xml version="1.0" encoding="UTF-8"?>
<svg width="19px" height="19px" viewBox="0 0 19 19" version="1.1" xmlns="http://www.w3.org/2000/svg" xmlns:xlink="http://www.w3.org/1999/xlink">
    <!-- Generator: Sketch 63.1 (92452) - https://sketch.com -->
    <title>流程</title>
    <desc>Created with Sketch.</desc>
    <g id="页面-1" stroke="none" stroke-width="1" fill="none" fill-rule="evenodd">
        <g id="画板" transform="translate(-796.000000, -62.000000)" fill="#666666">
            <g id="流程" transform="translate(796.000000, 62.000000)">
                <g id="形状">
                    <path d="M9.53520425,5.35814275 C10.9784059,5.35814275 12.1400159,4.19654139 12.1400159,2.75333112 C12.1400159,1.31012944 10.9784145,0.148519496 9.53520425,0.148519496 C8.09200257,0.148519496 6.93039262,1.31012085 6.93039262,2.75333112 C6.93039262,4.1965328 8.09199397,5.35814275 9.53520425,5.35814275 Z M9.53520425,1.47440776 C10.2392051,1.47440776 10.8141384,2.04934104 10.8141384,2.75334186 C10.8141384,3.45734268 10.2392051,4.03227597 9.53520425,4.03227597 C8.83120343,4.03227597 8.25627014,3.45734268 8.25627014,2.75334186 C8.25627014,2.04934104 8.83120343,1.47440776 9.53520425,1.47440776 L9.53520425,1.47440776 Z M5.04133378,13.0669603 C4.56026584,12.233892 3.68026482,11.7645588 2.77679209,11.7645588 C2.33092418,11.7645588 1.88505843,11.8818922 1.47439057,12.1165592 C0.230656506,12.8322927 -0.203478765,14.4280228 0.523989465,15.6835067 C1.00505741,16.5165751 1.88505843,16.9859082 2.78853116,16.9859082 C3.23439906,16.9859082 3.68026482,16.8685748 4.09093268,16.6339078 C5.33466674,15.9064396 5.75706723,14.3107137 5.04133378,13.0669603 Z M3.4221319,15.4722893 C3.22266493,15.5896227 3.01146404,15.6482895 2.78853116,15.6482895 C2.56559829,15.6482895 2.35439804,15.5896227 2.15493042,15.4840226 C1.95546345,15.3784224 1.79119738,15.2141549 1.67386248,15.0146894 C1.32186207,14.4045561 1.53306232,13.6301552 2.14319565,13.2781548 C2.34266262,13.1608214 2.55386351,13.1021546 2.77679638,13.1021546 C2.99972926,13.1021546 3.21092951,13.1608214 3.41039712,13.2664215 C3.60986409,13.3720216 3.77413016,13.5362892 3.89146506,13.7357546 C4.23173284,14.345888 4.03226523,15.1202889 3.4221319,15.4722893 Z M17.5256092,12.1517464 C17.1149414,11.9170787 16.6690756,11.7997459 16.2232077,11.7997459 C15.3197393,11.7997459 14.4397383,12.2690791 13.958666,13.1021475 C13.2429326,14.3458815 13.6653331,15.9416117 14.9090671,16.669095 C15.319735,16.9037626 15.7656008,17.0210954 16.2114687,17.0210954 C17.1149371,17.0210954 17.9949381,16.5517622 18.4760104,15.7186939 C19.2034786,14.463225 18.7810781,12.8674991 17.5256092,12.1517464 Z M17.3261423,15.0498845 C17.2088089,15.2493515 17.044542,15.4136175 16.8450743,15.5192177 C16.6573409,15.6248178 16.4344065,15.6834846 16.2114736,15.6834846 C15.9885407,15.6834846 15.7773405,15.6248178 15.5778729,15.5074844 C14.9677395,15.155484 14.7565393,14.3810831 15.1085397,13.7709497 C15.2258731,13.5714828 15.39014,13.4072167 15.5896076,13.3016166 C15.7773411,13.1960165 16.0002755,13.1373496 16.2232084,13.1373496 C16.4461413,13.1373496 16.6573415,13.1960165 16.8568091,13.3133499 C17.4669424,13.6536176 17.6781427,14.4397512 17.3261423,15.0498845 Z M12.7970804,4.10268035 C15.1554874,5.33468178 16.6221415,7.75174123 16.6221415,10.4034963 C16.6221415,10.5560297 16.6221415,10.7202966 16.6104081,10.8728294 C16.5869414,11.2365625 16.868541,11.5533628 17.2322762,11.5768303 L17.2792095,11.5768303 C17.63121,11.5768303 17.9245429,11.3069626 17.9480103,10.9549621 C17.9597437,10.7672287 17.9714771,10.5794943 17.9714771,10.4034941 C17.9714771,8.83122491 17.537344,7.29416433 16.7160082,5.96829756 C15.9181399,4.67762867 14.780006,3.621621 13.4306782,2.91762018 C13.1021452,2.74161997 12.70321,2.87068686 12.5272098,3.19922051 C12.3394763,3.52775351 12.468543,3.92668874 12.7970775,4.10268894 L12.7970804,4.10268035 Z M1.75601088,11.5416431 L1.79121092,11.5416431 C2.15494396,11.5181656 2.43654429,11.2013646 2.41307903,10.8376315 C2.40134569,10.6968314 2.40134569,10.5560312 2.40134569,10.4152311 C2.40134569,7.74003653 3.87974741,5.31122511 6.26161971,4.09095416 C6.59015271,3.92668723 6.71922024,3.51602088 6.55495267,3.18748573 C6.39068574,2.85895273 5.98001938,2.7298852 5.65148423,2.89415277 C4.29041527,3.59815359 3.15228992,4.64242219 2.34267179,5.94483015 C1.50960344,7.2824317 1.07547032,8.81950732 1.07547032,10.4035092 C1.07547032,10.5677761 1.07547032,10.7437769 1.08720366,10.9080424 C1.11067042,11.2600428 1.40400402,11.5416431 1.75600443,11.5416431 L1.75601088,11.5416431 Z M13.2898895,16.4226947 C12.1634882,17.1384281 10.8610781,17.513896 9.51175037,17.513896 C8.16241618,17.513896 6.83655585,17.1266955 5.69841976,16.4109621 C5.39335203,16.2114951 4.97095153,16.3053619 4.77148607,16.610429 C4.5720191,16.9154968 4.66588594,17.3378973 4.97095304,17.5373627 C6.32028722,18.3938963 7.89255214,18.8514969 9.50001495,18.8514969 C11.0957494,18.8514969 12.6445577,18.405629 13.9821549,17.560828 C14.2989553,17.361361 14.3928228,16.9506947 14.1933552,16.6456269 C14.017355,16.3288265 13.6066871,16.2349591 13.2898867,16.422694 L13.2898895,16.4226947 Z" fill-rule="nonzero"></path>
                </g>
            </g>
        </g>
    </g>
</svg>