<?xml version="1.0" encoding="UTF-8"?>
<svg width="18px" height="19px" viewBox="0 0 18 19" version="1.1" xmlns="http://www.w3.org/2000/svg" xmlns:xlink="http://www.w3.org/1999/xlink">
    <!-- Generator: Sketch 63.1 (92452) - https://sketch.com -->
    <title>用户管理</title>
    <desc>Created with Sketch.</desc>
    <g id="页面-1" stroke="none" stroke-width="1" fill="none" fill-rule="evenodd">
        <g id="画板" transform="translate(-433.000000, -96.000000)" fill="#6ABF4B">
            <g id="用户管理" transform="translate(433.000000, 96.000000)">
                <g id="形状">
                    <path d="M17.9212546,12.5490693 L17.9212546,12.5490693 C17.8829083,12.6028809 17.8320296,12.6463776 17.7730912,12.6757362 L17.7730913,12.6757362 C17.5706769,12.752775 17.3943366,12.8865047 17.2648465,13.0611657 L17.2648465,13.0611657 C17.1251618,13.2402621 17.0506759,13.4622165 17.0538267,13.6899755 L17.0538267,13.6899767 C17.0413312,14.1171544 17.2997009,14.5050962 17.6967676,14.6553578 C17.7416655,14.6806911 17.7802779,14.7087388 17.8117064,14.7340723 L17.8117064,14.7340723 C17.8854512,14.7904381 17.9377544,14.8706052 17.95987,14.9611671 C17.9733394,15.0407862 17.9688496,15.1385005 17.9508904,15.2534056 L17.9508904,15.2534056 C17.9308929,15.3717679 17.8983813,15.4876347 17.8539106,15.5990241 C17.8090127,15.7157386 17.755135,15.8215953 17.6904818,15.9147863 L17.6904818,15.9147863 C17.6372165,15.99788 17.5648247,16.0667854 17.479462,16.1156429 L17.479462,16.1156429 C17.4180306,16.1513937 17.3491441,16.1721544 17.2783183,16.176262 L17.2783183,16.176262 C17.2121571,16.1744006 17.1468248,16.160929 17.085257,16.1364525 L17.0852571,16.1364526 C17.0063817,16.1134868 16.9263503,16.094762 16.8455022,16.0803572 L16.8455022,16.0803572 C16.7485464,16.063319 16.6496769,16.0602725 16.55187,16.0713096 C16.4530944,16.0803572 16.351625,16.1038811 16.2537464,16.1364526 L16.2537464,16.1364526 C16.155196,16.1701884 16.0670181,16.2291075 15.9978285,16.3074528 L15.9978284,16.3074528 C15.8486011,16.4637555 15.7540259,16.6648221 15.7284399,16.8801681 C15.704195,17.0945974 15.7311337,17.2981685 15.81644,17.4926924 L15.81644,17.4926924 C15.8810796,17.6218098 15.8696809,17.7763364 15.7868074,17.8944074 L15.7868074,17.8944074 C15.7361065,17.960231 15.6740548,18.0163165 15.6036235,18.0599791 L15.6036234,18.0599791 C15.5164446,18.1191449 15.4248824,18.1714736 15.3297452,18.2165031 C15.2309696,18.2635508 15.1259074,18.3006461 15.0181527,18.3268841 C14.9103974,18.3522174 14.8116225,18.3666936 14.7290101,18.3666936 L14.7290101,18.3666936 C14.66753,18.3653306 14.608961,18.3400394 14.5655812,18.2961221 L14.5655812,18.2961221 C14.5182354,18.2562497 14.4817661,18.2048682 14.459622,18.1468363 L14.4506424,18.1468363 L14.4506425,18.1468364 C14.3802117,17.9383742 14.25555,17.752777 14.0896622,17.6094066 L14.0896622,17.6094066 C13.7524817,17.3063656 13.2433309,17.3063656 12.9061504,17.6094067 L12.9061504,17.6094067 C12.7371922,17.7481291 12.6092311,17.9308856 12.5361908,18.1377891 L12.5361908,18.1377891 C12.5091592,18.2106231 12.4585406,18.2721442 12.3925171,18.3124084 L12.3925171,18.3124084 C12.3288234,18.3499657 12.2561889,18.3693565 12.1823942,18.3685307 C12.0925982,18.3685307 11.9911284,18.352218 11.8797809,18.3196466 L11.8797808,18.3196466 C11.764748,18.2857339 11.652226,18.2437098 11.5430459,18.193885 L11.543046,18.193885 C11.4363566,18.1462087 11.3349303,18.0873782 11.2404327,18.018361 L11.2404326,18.0183609 C11.1624043,17.9632726 11.0941082,17.8953764 11.0383921,17.8175043 L11.0383921,17.8175043 C11.0061699,17.7677736 10.9875816,17.7103377 10.9845145,17.6510279 L10.9845145,17.6510277 C10.9894624,17.5582304 11.0139501,17.4675562 11.0563513,17.3850274 C11.1263922,17.2303129 11.155127,17.0556943 11.1371677,16.856645 L11.1371677,16.8566447 C11.1178927,16.6523036 11.0320081,16.4601454 10.8929232,16.3101677 L10.8929232,16.3101677 C10.8072262,16.2116543 10.6928292,16.1429395 10.5660663,16.1138348 L10.5660664,16.1138348 C10.4466376,16.0839727 10.3234811,16.0720819 10.2005965,16.0785489 C10.0659024,16.085787 9.92671828,16.1111204 9.78753436,16.1581681 L9.78753437,16.1581681 C9.69848104,16.1849121 9.60272311,16.1771678 9.51904444,16.1364539 L9.51904444,16.1364539 C9.43494958,16.0983281 9.3655624,16.0334998 9.32149354,15.9518822 L9.32149349,15.9518822 C9.25881791,15.8495737 9.20417522,15.7424848 9.15806467,15.6315963 L9.15806456,15.6315961 C9.11006571,15.5147179 9.07308633,15.3935484 9.04761553,15.2696902 L9.04761549,15.26969 C9.02442449,15.1695356 9.01775027,15.0662191 9.0278604,14.9638806 C9.04761549,14.8164042 9.11047265,14.723213 9.22092167,14.6834039 C9.41308429,14.6037847 9.58639158,14.4707855 9.74083986,14.2853089 L9.74083984,14.2853089 C10.0467384,13.9337398 10.0467384,13.4082093 9.74083987,13.0566402 L9.74083984,13.0566401 C9.59711178,12.889748 9.41785564,12.7576904 9.21643019,12.670307 C9.15806284,12.6494975 9.11047078,12.6033545 9.07275645,12.525545 L9.07275644,12.525545 C9.03507747,12.4525749 9.01507635,12.3716544 9.0143891,12.2894011 C9.0143891,12.2034486 9.02785851,12.1048294 9.05210343,11.9971625 C9.07724625,11.8904004 9.11047077,11.7872568 9.15357302,11.6868295 C9.19577716,11.5864008 9.24336903,11.4950201 9.29634864,11.4108764 L9.29634868,11.4108763 C9.34151159,11.3369974 9.40220182,11.2739944 9.47414485,11.2263047 L9.47414485,11.2263047 C9.5167788,11.195397 9.56914739,11.1812405 9.62141028,11.1864952 C9.66900215,11.1937333 9.72287969,11.2073047 9.78124722,11.2263047 C9.97340983,11.3059239 10.1736567,11.3312572 10.3819823,11.3014 C10.5903098,11.270638 10.7743918,11.1747332 10.9360239,11.0154942 L10.9360239,11.0154942 C11.0144438,10.9313026 11.0719833,10.8296131 11.1039426,10.718732 C11.139861,10.6020175 11.1623099,10.4853027 11.1712895,10.3731135 C11.1802691,10.2609228 11.1802691,10.1559696 11.1712895,10.0627804 L11.1712895,10.0627807 C11.1654587,9.99522964 11.1570718,9.92792726 11.1461471,9.86102046 L11.1461471,9.86102038 C11.1313276,9.8152563 11.1202163,9.76835649 11.1129225,9.7207824 L11.1129225,9.72078235 C11.1032592,9.673738 11.1079549,9.62484839 11.1263919,9.58054419 L11.126392,9.58054417 C11.1703798,9.48076103 11.2417179,9.39569956 11.3320253,9.33535297 C11.4308009,9.26568616 11.5385554,9.20687664 11.6552912,9.15982895 C11.7693321,9.11368598 11.8842714,9.07840031 11.9911292,9.05487646 L11.9911292,9.05487648 C12.0765619,9.03447632 12.1637908,9.02265659 12.2515367,9.0195908 C12.3341489,9.0195908 12.3997,9.04763847 12.4490876,9.10644799 C12.4957815,9.16254333 12.529904,9.22135285 12.5496591,9.28197201 C12.6188021,9.46201986 12.7355366,9.62035424 12.8953731,9.75878165 L12.8953731,9.75878158 C13.0527606,9.89510229 13.2544787,9.96821972 13.4619867,9.96416366 C13.6864772,9.96416366 13.8858235,9.89902067 14.0582322,9.76783071 C14.2315385,9.63664002 14.3545585,9.47106855 14.4237021,9.27021197 L14.423702,9.27021202 C14.4542565,9.20807712 14.4952722,9.15175078 14.5449267,9.10373565 C14.5988043,9.04764031 14.6553758,9.01778318 14.7128454,9.01778318 C14.8026414,9.01778318 14.901417,9.03135463 15.0064776,9.05759268 C15.112437,9.08292598 15.2174973,9.1200213 15.3180701,9.16706899 C15.4213356,9.21411668 15.515621,9.27473584 15.6036217,9.34711684 C15.690724,9.41949783 15.7580709,9.50183138 15.8092551,9.5877844 L15.8092551,9.58778441 C15.8413931,9.64019014 15.8520212,9.70314349 15.8388877,9.76330843 L15.8388877,9.76330835 C15.831114,9.80986341 15.8181616,9.85538851 15.8002755,9.89902287 L15.8002754,9.89902292 C15.717068,10.0912813 15.69057,10.3036139 15.7239488,10.5106418 C15.7553775,10.7259748 15.8496633,10.9132604 16.0023167,11.0743097 L16.0023167,11.0743097 C16.1510058,11.2326331 16.3538905,11.3280509 16.5698271,11.3412155 C16.7934189,11.3575012 17.0017464,11.3195011 17.1948077,11.2263106 L17.1948076,11.2263107 C17.251458,11.1921156 17.3178702,11.1780953 17.3833793,11.186501 L17.3833793,11.186501 C17.4552409,11.1925959 17.5223636,11.2251233 17.5719509,11.277882 C17.6680326,11.3710726 17.753339,11.5140259 17.826972,11.7058352 C17.9015027,11.8967409 17.9508905,12.0885502 17.9751354,12.2830741 C17.9886048,12.3970742 17.9706455,12.4857416 17.9212578,12.5490744 L17.9212546,12.5490693 Z M15.4195313,12.8250223 L15.4195314,12.8250225 C15.2139128,12.3059917 14.8135129,11.8895535 14.3051631,11.6660212 L14.3051631,11.6660211 C14.0475896,11.5512575 13.7687467,11.4929695 13.4871212,11.4950209 C13.1979786,11.4950209 12.9267945,11.5511163 12.6753644,11.6660211 L12.6753645,11.6660211 C12.4260834,11.7765777 12.2006575,11.935172 12.0117727,12.132878 L12.0117726,12.1328781 C11.6176376,12.5472011 11.3989719,13.09979 11.402026,13.673689 C11.402026,13.9749748 11.4559358,14.2572606 11.5654871,14.5214518 C11.6750382,14.785643 11.8232023,15.019976 12.0117739,15.2208345 C12.2003456,15.421691 12.4221419,15.5782167 12.6753657,15.6931205 C12.9285912,15.8071206 13.197978,15.8632159 13.4871224,15.8632159 C13.776265,15.8632159 14.0474491,15.8071206 14.3051643,15.6931205 C14.5610821,15.5782156 14.7846758,15.421691 14.9732475,15.2208345 C15.1618191,15.0199779 15.3117778,14.7883576 15.4195343,14.5214518 C15.5290854,14.2572606 15.5829631,13.9749748 15.5829631,13.673689 C15.5829631,13.3714977 15.5290856,13.089212 15.4195343,12.8250207 L15.4195313,12.8250223 Z M8.37862688,9.43940024 L8.14605579,9.43940024 C5.59225427,9.43940024 3.50269994,7.26072486 3.38686833,4.71924924 C3.38686833,2.17868281 5.47642266,7.42188364e-06 8.03022418,7.42188364e-06 C10.5840257,7.42188364e-06 12.67358,2.05744634 12.67358,4.71924924 C12.67358,5.68825037 12.4410089,6.5351077 11.9767636,7.26072486 C10.5840275,7.5032015 9.30713047,8.35005884 8.37863609,9.43940024 L8.37862688,9.43940024 Z M6.98499216,13.6745868 L6.98499195,13.6748927 C6.98355108,15.777067 7.97524171,17.7544052 9.65576682,19.0002055 L0.0204001384,19.0002055 C0.0204001384,14.5225274 3.38684602,10.8917234 7.6818047,10.6501411 L7.68180436,10.6501411 C7.21927163,11.5900399 6.98068061,12.6256802 6.98498793,13.6747635 L6.98499216,13.6745868 Z" fill-rule="nonzero"></path>
                </g>
            </g>
        </g>
    </g>
</svg>