<?xml version="1.0" encoding="UTF-8"?>
<svg width="18px" height="18px" viewBox="0 0 18 18" version="1.1" xmlns="http://www.w3.org/2000/svg" xmlns:xlink="http://www.w3.org/1999/xlink">
    <!-- Generator: Sketch 63.1 (92452) - https://sketch.com -->
    <title>运营</title>
    <desc>Created with Sketch.</desc>
    <g id="页面-1" stroke="none" stroke-width="1" fill="none" fill-rule="evenodd">
        <g id="画板" transform="translate(-209.000000, -96.000000)" fill="#6ABF4B">
            <g id="运营" transform="translate(209.000000, 96.000000)">
                <g id="形状">
                    <path d="M6.01803764,12.8318001 C6.01803764,12.2100787 6.11195516,11.6171151 6.29944031,11.0534191 C6.48709119,10.4896177 6.75195702,9.97055262 7.09414826,9.49622394 C7.43622902,9.02193042 7.84184221,8.60042407 8.31095102,8.23151153 C8.78009665,7.86268688 9.29612739,7.56754982 9.85895115,7.34639917 C9.85895115,7.34639917 10.0640781,7.07782269 10.0906512,7.00174448 C10.2010871,6.97012139 10.3059433,6.91214867 10.4052381,6.8279142 C10.4936126,6.75412114 10.5735162,6.65132415 10.6453723,6.51964626 C10.7170442,6.38795079 10.7639477,6.20615761 10.786138,5.9741964 C10.808181,5.8055341 10.8053635,5.66329175 10.7777775,5.54738146 C10.75021,5.43147116 10.7143004,5.33665465 10.6701223,5.26280886 C10.6259995,5.17843376 10.565395,5.10998446 10.4880512,5.05725003 C10.4880512,4.62519679 10.4605205,4.19827637 10.4052565,3.77682275 C10.350195,3.40789264 10.2563512,3.02062851 10.1238538,2.61488976 C9.99133802,2.20925648 9.78177304,1.8376369 9.49475373,1.50045292 C9.37341598,1.35286681 9.20495373,1.20535101 8.9898642,1.05785279 C8.77459051,0.910249106 8.52917114,0.778536062 8.25314571,0.66253788 C7.97730442,0.546645167 7.68201669,0.454465373 7.367393,0.38596334 C7.05282455,0.317461307 6.73560432,0.283201501 6.4154929,0.283201501 C6.16169461,0.283201501 5.8996279,0.301553085 5.62916386,0.338502347 C5.35869981,0.375434031 5.08567606,0.446484895 4.80981636,0.55202408 C4.53379093,0.657299593 4.26892511,0.802266559 4.01503475,0.986731617 C3.76123646,1.1711791 3.52391978,1.41090984 3.30312153,1.70599417 C3.07140307,2.01159023 2.90039952,2.359409 2.78994515,2.74939773 C2.67961969,3.13933373 2.60229426,3.50279704 2.55822669,3.84020955 L2.55822624,3.84021363 C2.51411557,4.23929202 2.49200555,4.64030929 2.49198713,5.04160253 C2.39263713,5.14687804 2.32102042,5.25763794 2.27669503,5.37351307 C2.22152309,5.48940578 2.18850464,5.62124188 2.17741869,5.76882798 C2.16633274,5.9163262 2.18850464,6.07973264 2.24365816,6.25874848 C2.29884851,6.43794009 2.3649775,6.57503205 2.44226609,6.66983099 C2.51949944,6.76480571 2.5911714,6.8385636 2.65746612,6.89110468 C2.73477313,6.94389185 2.81198806,6.98075322 2.8893319,7.00175911 C3.04575061,7.35286498 3.09173337,7.42843343 3.48517411,7.88384802 C3.67289866,8.03134624 3.84382855,8.17638352 3.99844257,8.31864345 C4.15296451,8.46090338 4.2411549,8.65315556 4.26330839,8.89550545 C4.27439434,9.06423807 4.27986365,9.21690426 4.27986365,9.35394348 C4.27986365,9.49096513 4.25235135,9.62276606 4.19703209,9.74917051 C4.14197064,9.875698 4.05079698,10.0048271 3.92387942,10.1365049 C3.79696187,10.2681828 3.61748733,10.4025502 3.38586094,10.5396246 C3.18714252,10.6555876 2.24909064,10.9848614 1.99527394,11.0533634 C1.74136517,11.121883 1.12117806,11.4380436 0.922514882,11.5593328 C0.723796459,11.6805517 0.555573607,11.8253077 0.417551683,11.9940755 C0.27967708,12.1625796 0.18848501,12.3787029 0.144399021,12.6422872 C0.0340367275,13.3271493 0.00932352912,13.8883843 0.0699647827,14.3258692 C0.130716528,14.7631431 0.221706031,15.0238973 0.343117444,15.1082197 C0.409228012,15.1610596 0.569366592,15.2137765 0.823293784,15.2662472 C1.07705524,15.3191223 1.0514397,15.3717688 1.41576601,15.4244154 C1.77998184,15.4770092 2.18550296,15.5272475 2.63255035,15.5746382 L2.63255087,15.5746383 C3.08169024,15.6221487 3.5314373,15.6642659 3.9816871,15.7009796 C4.43420381,15.7378234 4.87294595,15.7668801 5.29783986,15.7879387 C5.72278901,15.8090149 6.09523643,15.8195442 6.41525578,15.8195442 L6.86226634,15.8195442 C6.59740052,15.3769089 6.39037684,14.9052521 6.24145312,14.4046441 C6.09240049,13.9040537 6.01787418,13.3798558 6.01787418,12.8317341 L6.01803764,12.8318001 Z M14.866486,12.2957721 C14.6204773,12.2957721 14.3992003,12.3971804 14.24617,12.558583 L12.8431343,11.8889435 C12.9582477,11.7329199 13.0261814,11.5429177 13.0261814,11.3375874 C13.0261814,10.8083973 12.5767584,10.3793675 12.0223873,10.3793675 C11.4679977,10.3793675 11.0185379,10.8083622 11.0185379,11.3375874 C11.0185379,11.5580525 11.0968577,11.760957 11.2279555,11.9228693 L10.1420664,13.3049862 L10.1420664,13.3049862 C10.0479062,13.2711254 9.94809913,13.2538246 9.84747848,13.2539217 C9.3855516,13.2539217 9.01098643,13.6114084 9.01098643,14.0523914 C9.01098643,14.4933743 9.38557002,14.8508259 9.84747848,14.8508259 C10.3094606,14.8508259 10.6839705,14.4933567 10.6839705,14.0523914 L10.6839705,14.0523882 C10.6842703,13.8795729 10.6255341,13.7113757 10.5166664,13.5732959 L11.5928875,12.2036595 L11.5928874,12.2036595 C11.7271151,12.2644479 11.8738537,12.2959026 12.022422,12.2957338 L12.0224219,12.2957338 C12.2396624,12.2960514 12.4510891,12.2287544 12.6246542,12.1040441 L14.0878523,12.8024239 L14.0878523,12.802424 C14.0495627,12.8953522 14.0299343,12.9943281 14.0299917,13.094186 C14.0299917,13.535169 14.4045201,13.8926557 14.8664838,13.8926557 C15.3284659,13.8926557 15.7029758,13.535169 15.7029758,13.094186 C15.7029758,12.6531679 15.3285211,12.2956988 14.8665206,12.2956988 L14.866486,12.2957721 Z M17.8408907,16.9104923 L16.3178431,15.7703738 C16.5731331,15.4464438 16.788996,15.0915234 16.9649717,14.7048745 C17.2391004,14.1034031 17.3759805,13.4626797 17.3759805,12.7827395 C17.3759805,12.1026938 17.2391372,11.4620583 16.9649717,10.8604287 C16.6911929,10.2590276 16.3213052,9.73338828 15.8554375,9.28352838 C15.3898644,8.83370364 14.8417728,8.47809776 14.2116783,8.2164998 C13.5814917,7.9550073 12.9102945,7.82419075 12.1979025,7.82419075 C11.4746455,7.82419075 10.7978317,7.95502488 10.1677372,8.2164998 C9.53767957,8.47811533 8.98966163,8.83368606 8.52384915,9.28352838 C8.05818398,9.73335312 7.68824103,10.25901 7.41431493,10.8604287 C7.14029675,11.4620407 7.00328767,12.1026762 7.00328767,12.7827395 C7.00328767,13.4627149 7.14027834,14.1034207 7.41431493,14.7048745 C7.68825945,15.3062756 8.05818398,15.8319501 8.52384915,16.2817396 C8.98964321,16.7316699 9.53766115,17.0846742 10.1677372,17.3409987 C10.7978501,17.5971474 11.4746087,17.7253624 12.1979025,17.7253624 C12.9102945,17.7253624 13.5814733,17.5973056 14.2116783,17.3409987 C14.7667493,17.115348 15.2580668,16.8143047 15.6855388,16.4382379 L17.1708905,17.5500028 C17.3327232,17.7045147 17.5951951,17.7045147 17.7570647,17.5500028 L17.8408723,17.4701102 C18.0027971,17.3155807 18.0027971,17.065057 17.8408723,16.9104748 L17.8408907,16.9104923 Z M12.1897446,16.7672129 C9.87979715,16.7672129 8.00719229,14.9797967 8.00719229,12.7748821 C8.00719229,10.5698971 9.87981557,8.78237545 12.1897446,8.78237545 C14.4997289,8.78237545 16.3722048,10.5698971 16.3722048,12.7748821 C16.3722048,14.9798143 14.4997105,16.7672129 12.1897446,16.7672129 Z" fill-rule="nonzero"></path>
                </g>
            </g>
        </g>
    </g>
</svg>