<?xml version="1.0" encoding="UTF-8"?>
<svg width="19px" height="19px" viewBox="0 0 19 19" version="1.1" xmlns="http://www.w3.org/2000/svg" xmlns:xlink="http://www.w3.org/1999/xlink">
    <!-- Generator: Sketch 63.1 (92452) - https://sketch.com -->
    <title>系统模块配置</title>
    <desc>Created with Sketch.</desc>
    <g id="页面-1" stroke="none" stroke-width="1" fill="none" fill-rule="evenodd">
        <g id="画板" transform="translate(-354.000000, -96.000000)" fill="#666666">
            <g id="系统模块配置" transform="translate(354.000000, 96.000000)">
                <g id="形状">
                    <path d="M9.39257929,13.2960633 L9.39257928,13.2960633 C9.54399814,13.2282466 9.63000534,13.0662447 9.60134945,12.902826 L9.60134954,12.9028265 C9.56940408,12.6965817 9.5153351,12.494378 9.44007831,12.299715 L9.44007832,12.299715 C9.3851497,12.1369787 9.29841423,11.986788 9.18491581,11.8578754 L9.18491582,11.8578754 C9.11943328,11.8208614 9.04919127,11.7929876 8.97614565,11.7750303 L8.97614568,11.7750303 C8.90588159,11.7599187 8.83260923,11.76806 8.76737551,11.7982269 L8.76737546,11.7982269 C8.55805978,11.8956955 8.32703324,11.9371813 8.09688249,11.9186282 L8.09688252,11.9186282 C7.86539211,11.9113933 7.64650406,11.8115007 7.4893531,11.6413745 L7.48935306,11.6413744 C7.18763493,11.3140972 7.11466112,10.8364879 7.30488492,10.4340473 L7.30488492,10.4340473 C7.33055369,10.3917031 7.34640646,10.3441444 7.35127819,10.2948677 L7.35127819,10.2948677 C7.36799867,10.2403423 7.35949167,10.1811986 7.32808165,10.1335961 L7.32808166,10.1335962 C7.20488637,9.93995921 7.02793327,9.78642085 6.81886066,9.69175658 L6.81886072,9.69175661 C6.71954441,9.63177406 6.60969905,9.59128472 6.49521278,9.57245855 L6.4952128,9.57245856 C6.39711924,9.5457754 6.296336,9.5302132 6.19476196,9.52606529 C6.12517215,9.52606529 6.07436045,9.54926183 5.98599179,9.6464668 C5.93959853,9.71605661 5.89320545,9.76686831 5.86559047,9.80773839 L5.86559049,9.80773835 C5.79073467,10.0142857 5.65325967,10.1923088 5.47235311,10.3169594 L5.47235304,10.3169594 C5.27727625,10.4368599 5.05293126,10.5006855 4.82395316,10.5014275 L4.82395319,10.5014275 C4.60543438,10.5000143 4.3934691,10.4266419 4.22084165,10.2926574 L4.22084156,10.2926573 C4.05940223,10.1589036 3.93883039,9.98244668 3.87289252,9.7834363 L3.87289253,9.7834363 C3.84131371,9.71676923 3.80080804,9.65471023 3.7524912,9.59896798 L3.7524912,9.59896798 C3.70553629,9.53166449 3.62514374,9.49593443 3.54372104,9.50618164 C3.47413123,9.50618164 3.38244945,9.52937818 3.2664673,9.52937818 L3.26646723,9.52937819 C3.14784178,9.54937497 3.03134938,9.58043945 2.91851819,9.62216435 C2.79811687,9.66855762 2.68655279,9.74256586 2.57056916,9.78343594 L2.57056919,9.78343592 C2.47722806,9.84591909 2.40456225,9.93473287 2.36179903,10.0385984 C2.38499557,10.061795 2.38499557,10.1081882 2.38499557,10.177778 C2.38499557,10.2241713 2.40819211,10.2705644 2.40819211,10.3169577 L2.40819212,10.3169567 C2.40770032,10.387216 2.41548608,10.4572886 2.43138847,10.5257269 L2.43138846,10.5257269 C2.45438851,10.6245567 2.45438851,10.7273479 2.43138848,10.8261777 L2.43138851,10.8261774 C2.41940655,10.9441241 2.39610265,11.0606439 2.36179871,11.1741264 L2.36179875,11.1741263 C2.31409218,11.2821121 2.25204375,11.3831729 2.17733061,11.4745771 L2.17733061,11.4745771 C2.01499954,11.6348219 1.80153652,11.7329515 1.57421907,11.7518309 L1.57421898,11.7518309 C1.35397273,11.766645 1.1330715,11.7350338 0.925819108,11.6590445 L0.925819104,11.6590445 C0.876987562,11.6336793 0.823738516,11.6179297 0.768965943,11.6126513 C0.722572676,11.5894547 0.676179594,11.6126513 0.607694349,11.6358478 L0.607694357,11.6358478 C0.534170209,11.6846717 0.470471521,11.7468719 0.419911423,11.819213 C0.373518156,11.9119994 0.299510101,12.0036812 0.258639829,12.0964668 L0.258639712,12.096467 C0.208504517,12.1923136 0.168166579,12.2929744 0.13823839,12.3969178 L0.138238383,12.3969179 C0.110462911,12.4965663 0.0959778062,12.5994481 0.0951589869,12.7028924 L0.0951589741,12.7028914 C0.0962159042,12.7860473 0.120719756,12.8672168 0.165852787,12.9370667 L0.165852773,12.9370667 C0.193863147,13.011549 0.252642054,13.0703279 0.327124367,13.0983383 L0.32712429,13.0983382 C0.546468784,13.1765137 0.740692057,13.3123557 0.889365374,13.4915756 L0.889365361,13.4915756 C1.04630146,13.6611142 1.12970451,13.8859058 1.12133077,14.1167784 L1.12133076,14.1167782 C1.1268596,14.3515844 1.03441327,14.5780984 0.866168261,14.7419829 L0.866168265,14.7419829 C0.721363234,14.9224092 0.528303712,15.0580104 0.309450918,15.1330122 C0.193836155,15.1565771 0.124246347,15.2489953 0.100680754,15.410266 L0.100680754,15.410266 C0.0750190349,15.5102298 0.0831755737,15.6158763 0.123877295,15.7107168 C0.170270562,15.8498964 0.193467102,15.9658793 0.244278802,16.1039542 L0.240965005,16.1039542 C0.287358272,16.2243557 0.361366327,16.3359196 0.402236599,16.4287061 C0.471826407,16.5214925 0.522638107,16.5899777 0.611006764,16.6131744 L0.611006752,16.6131744 C0.693935911,16.6661812 0.797676403,16.6748607 0.888260493,16.636371 L0.888260534,16.636371 C1.03104774,16.5904317 1.1801057,16.5669552 1.33010011,16.5667812 L1.33010012,16.5667812 C1.46217439,16.5721462 1.59364007,16.5876563 1.72333749,16.6131744 L1.72333749,16.6131744 C1.86160886,16.6360936 1.98599425,16.7107251 2.07128653,16.8219446 L2.07128655,16.8219446 C2.21903176,16.9700396 2.30944737,17.1657467 2.32644905,17.3742441 L2.32644909,17.3742445 C2.34527859,17.5568799 2.31316292,17.741162 2.23366256,17.9066607 L2.23366256,17.9066607 C2.17603886,17.9794902 2.14349298,18.0689912 2.14087621,18.1618232 L2.14087619,18.1618225 C2.14224746,18.2186698 2.15822401,18.2742078 2.18726908,18.3230941 L2.18726905,18.323094 C2.24465895,18.4038988 2.31523346,18.4744735 2.39603922,18.5318642 L2.39603913,18.5318641 C2.48744371,18.6065774 2.58850527,18.6686257 2.69648997,18.7163324 L2.6964899,18.7163324 C2.80352998,18.782541 2.92126536,18.8296354 3.04443894,18.855512 L3.04443898,18.855512 C3.14749815,18.8984537 3.2575862,18.9220438 3.36919092,18.9251018 L3.36919089,18.9251018 C3.4408015,18.9208127 3.51127284,18.9051524 3.57796106,18.8787087 L3.57796103,18.8787088 C3.64022581,18.8373737 3.69325554,18.7835918 3.73370963,18.720751 L3.73370959,18.7207512 C3.81385127,18.5107768 3.94982371,18.3266788 4.12694696,18.1883331 L4.126947,18.188333 C4.30096438,18.0413202 4.52471543,17.9666043 4.75214977,17.9795629 L4.75214976,17.9795629 C4.98302229,17.9711894 5.20781445,18.0545929 5.37735254,18.2115283 L5.37735251,18.2115283 C5.54617457,18.360715 5.67363225,18.5509514 5.74739279,18.7638277 L5.77058933,18.7638277 L5.77058933,18.7638277 C5.79689452,18.826643 5.83824221,18.882026 5.89099083,18.9250993 L5.89099084,18.9250993 C5.93414965,18.9689322 5.9919728,18.9952868 6.05336829,18.9991079 L6.05336826,18.9991079 C6.15407469,19.002822 6.25487611,18.9950396 6.3538191,18.9759114 L6.35381924,18.9759114 C6.46566703,18.9462418 6.57441432,18.9059237 6.67857118,18.8555098 L6.67857118,18.8555098 C6.78331975,18.8107976 6.88386976,18.7568263 6.97902202,18.6942383 L6.9790219,18.6942383 C7.05172241,18.6446331 7.12143319,18.5907823 7.18779207,18.5329667 L7.18779206,18.5329667 C7.26403169,18.4150523 7.27283646,18.2657901 7.2109886,18.1397294 L7.21098866,18.1397295 C7.13097444,17.9416339 7.10690249,17.7253676 7.14139885,17.5145267 L7.14139888,17.5145265 C7.16955286,17.2920054 7.27607304,17.0867978 7.44184971,16.9357161 L7.44184971,16.9357161 C7.5162797,16.8557158 7.61276752,16.7995913 7.71910345,16.7744445 C7.8118898,16.7512479 7.92787361,16.7280512 8.01955428,16.7048547 L8.01955422,16.7048547 C8.1202779,16.7001695 8.22119381,16.7079609 8.32000506,16.7280512 C8.41279141,16.7512478 8.50447319,16.7744445 8.57516756,16.797641 L8.5751676,16.797641 C8.6418549,16.8240848 8.71232643,16.8397452 8.78393777,16.8440343 L8.78393777,16.8440343 C8.85951964,16.8459346 8.93338185,16.8213139 8.99270794,16.7744445 L8.9927079,16.7744445 C9.09005667,16.7309742 9.17122499,16.6579228 9.22467331,16.5656744 L9.22467326,16.5656744 C9.2919337,16.4733807 9.34619806,16.3722861 9.38594485,16.2652236 L9.38594492,16.2652234 C9.43649499,16.1531109 9.47679322,16.0366535 9.50634624,15.9172744 L9.50634628,15.9172742 C9.52469293,15.8182273 9.53246871,15.7175123 9.52954282,15.6168233 L9.52954284,15.6168234 C9.50657303,15.522105 9.44905863,15.4393788 9.36827124,15.384858 L9.36827123,15.384858 C9.33153216,15.3562296 9.29101573,15.3328119 9.24786972,15.3152682 L9.2478698,15.3152682 C9.05533129,15.2398379 8.88800678,15.1115691 8.76515976,14.9452279 L8.76515982,14.945228 C8.6554423,14.7634902 8.59952119,14.5543601 8.60388823,14.3421165 L8.60388821,14.3421157 C8.59887547,14.1048159 8.68145562,13.873986 8.83585547,13.6937159 L8.83585554,13.6937158 C8.98443701,13.5158099 9.17609695,13.378911 9.39257474,13.2960605 L9.39257929,13.2960633 Z M6.42009634,15.8145497 L6.42009639,15.8145496 C6.22079469,16.0237632 5.97473698,16.182753 5.70210708,16.2784823 L5.70210708,16.2784823 C5.42169904,16.3921892 5.12092349,16.4470809 4.81842793,16.4397539 L4.81842795,16.4397539 C4.52292936,16.4390678 4.23088009,16.3762172 3.96125791,16.2552857 L3.96125761,16.2552856 C3.70387225,16.1351025 3.46889727,15.9718531 3.26646354,15.7725756 L3.26646357,15.7725756 C3.05724994,15.5732739 2.89826021,15.3272162 2.8025309,15.0545863 L2.80253085,15.0545861 C2.69138759,14.7827003 2.63652521,14.4911038 2.64125926,14.1974161 L2.6412592,14.1974072 C2.63940413,13.9016395 2.70237099,13.6090578 2.82573123,13.340239 L2.82573123,13.329193 L2.82573112,13.3291933 C2.93780286,13.0672305 3.10204228,12.8308305 3.30844115,12.6344011 L3.30844129,12.6344009 C3.51393655,12.4327966 3.75819074,12.2749702 4.0264306,12.1704683 L4.02643066,12.1704682 C4.3068387,12.0567613 4.60761425,12.0018696 4.91011167,12.0091966 L4.91011176,12.0091966 C5.20561035,12.0098827 5.49765961,12.0727333 5.7672818,12.193665 L5.76728176,12.1936649 C6.88918854,12.6960615 7.39140143,14.0128187 6.88900485,15.1347162 C6.7751602,15.3889436 6.61460667,15.6195433 6.41568164,15.8145348 L6.42009634,15.8145497 Z" fill-rule="nonzero"></path>
                    <path d="M2.64014956,8.43693755 L7.36341775,8.43693755 L7.36341783,8.43693755 C8.39211316,8.43451724 9.22593952,7.6021649 9.2301886,6.57346956 L9.2301886,1.86677073 L9.2301886,1.86679139 C9.22777968,0.838096053 8.39543822,0.0042511375 7.36675772,2.10810941e-06 L2.66004033,2.10810941e-06 L2.66004044,2.10810941e-06 C1.63432313,0.009559212 0.804645604,0.837763923 0.793242384,1.8634701 L0.793242384,6.57016893 L0.793242384,6.57018415 C0.787772928,7.59566952 1.6146365,8.43144412 2.64012373,8.43693755 C2.64014147,8.43693755 2.6401592,8.43693755 2.64017694,8.43693755 L2.64014956,8.43693755 Z M17.0496624,9.66966757 L12.3429636,9.66966757 L12.3429635,9.66966757 C11.3168473,9.67389401 10.4855444,10.5037113 10.4794682,11.5298183 L10.4794682,16.2376304 L10.4794682,16.2376401 C10.4739988,17.2631254 11.3008623,18.0989 12.3263496,18.1043981 C12.3267336,18.1043981 12.3271177,18.1043981 12.3275018,18.1043981 L17.0496752,18.1043981 L17.0496753,18.1043981 C18.0786156,18.100753 18.911325,17.2665694 18.9131434,16.2376273 L18.9131434,11.5331365 L18.9131434,11.5331541 C18.9089163,10.5057539 18.0771016,9.67391659 17.049694,9.66966757 L17.0496624,9.66966757 Z M17.0529762,-3.71105401e-06 L12.3429561,-3.71105401e-06 L12.3429561,-3.71105401e-06 C11.3155559,0.00423303411 10.4837372,0.836056637 10.4794608,1.86346428 L10.4794608,6.57016311 L10.4794608,6.57017276 C10.4739914,7.59565813 11.3008549,8.43143273 12.3263422,8.43693075 C12.3267262,8.43693075 12.3271103,8.43693075 12.3274944,8.43693075 L17.0496678,8.43693075 L17.0496679,8.43693075 C18.0770681,8.43269396 18.9088868,7.6008704 18.9131359,6.57346276 L18.9131359,1.86676392 L18.9131359,1.86676802 C18.91073,0.839354817 18.080382,0.00604613204 17.0529892,-3.71105401e-06 L17.0529762,-3.71105401e-06 Z" fill-rule="nonzero"></path>
                </g>
            </g>
        </g>
    </g>
</svg>