<?xml version="1.0" encoding="UTF-8"?>
<svg width="19px" height="19px" viewBox="0 0 19 19" version="1.1" xmlns="http://www.w3.org/2000/svg" xmlns:xlink="http://www.w3.org/1999/xlink">
    <!-- Generator: Sketch 63.1 (92452) - https://sketch.com -->
    <title>系统管理</title>
    <desc>Created with Sketch.</desc>
    <g id="页面-1" stroke="none" stroke-width="1" fill="none" fill-rule="evenodd">
        <g id="画板" transform="translate(-237.000000, -96.000000)" fill="#666666">
            <g id="管理" transform="translate(237.000000, 96.000000)">
                <g id="形状">
                    <path d="M3.78533199,4.7749856 C3.79207859,3.86661973 4.05253726,3.03500815 4.55949732,2.28400717 C5.05240797,1.55385579 5.70051763,0.996898001 6.49460089,0.614005425 C6.92994523,0.404072557 7.39359248,0.286664557 7.87175258,0.228661227 C8.4016969,0.16434947 8.90730988,0.279742624 9.38497533,0.4928578 C10.7538909,1.1035568 11.644997,2.15260643 12.092926,3.56917618 C12.4433688,4.67728327 12.299471,5.74686555 11.7023544,6.7428151 C11.156699,7.65308031 10.3997935,8.34225525 9.43342669,8.78814325 C8.71303138,9.12053623 7.95770345,9.19343419 7.19195191,8.99039492 C5.94003469,8.65843895 4.94983361,7.96035557 4.30455977,6.81956818 C3.94736961,6.18813484 3.78276511,5.50135389 3.78533199,4.77503002 L3.78533199,4.77497162 L3.78533199,4.7749856 Z M9.06121945,10.0921737 C9.16297332,10.0925241 9.26601207,10.1047907 9.36613073,10.1236577 C9.58932325,10.1657435 9.6756259,10.2920597 9.60497762,10.5082143 C9.54370338,10.6956294 9.46730039,10.8824601 9.36794147,11.0522344 C9.08300816,11.5393318 8.81410764,12.0326506 8.63045924,12.5685811 C8.33664629,13.4260704 8.22925513,14.3046759 8.34914693,15.2045199 C8.39558441,15.5530945 8.47511255,15.8972294 8.53749663,16.2437006 C8.5513695,16.3205415 8.56211731,16.3987262 8.56489189,16.4766187 C8.57207657,16.6778775 8.48180061,16.8082817 8.28249904,16.8490252 C8.1182444,16.8826122 7.94849966,16.8971567 7.78056469,16.9038157 C7.00172663,16.9345112 6.22636551,16.8775596 5.4514414,16.8061799 C4.84824854,16.7506592 4.2438887,16.7074926 3.64058059,16.6530236 C3.04638502,16.5993429 2.45320997,16.5339799 1.85883671,16.4821683 C1.49329519,16.4503047 1.13931784,16.369842 0.791794901,16.2583625 C0.364715486,16.1213569 0.238719843,15.9266395 0.341671193,15.4888723 C0.433786897,15.0971025 0.557591447,14.7119912 0.682854965,14.3289546 C0.929880574,13.5738332 1.16233091,12.8124614 1.44703131,12.0714446 C1.84651136,11.0316228 2.6114753,10.390054 3.71292387,10.1844731 C4.04569625,10.122381 4.38912995,10.1048282 4.72850562,10.0938468 C5.38838595,10.072468 6.0489098,10.0701315 6.70917192,10.0599095 C6.70923034,10.0702192 8.27727404,10.0896411 9.06122185,10.0921821 L9.06121945,10.0921737 Z M12.2408854,17.1503741 C12.0626702,17.339483 11.8873162,17.5260222 11.7114093,17.712007 C11.5503381,17.882249 11.3229699,17.9186397 11.1215359,17.80386 C11.0812899,17.7809333 11.044724,17.7493031 11.0114875,17.7165923 C10.8017297,17.5099597 10.5931701,17.3021 10.3845805,17.0942691 C10.244333,16.9545475 10.1888416,16.7885991 10.2584981,16.599548 C10.2857181,16.5256859 10.3369455,16.4552701 10.3925539,16.3982599 C10.5616568,16.2249806 10.7377693,16.0585649 10.9124804,15.8908628 C10.9387951,15.8656289 10.9429132,15.8480468 10.9271418,15.8122402 L10.9271416,15.8122397 C10.8298364,15.5910721 10.735144,15.3687649 10.6430847,15.1453623 C10.625824,15.1035392 10.6059056,15.0891116 10.5599644,15.0896372 C10.3212928,15.0923534 10.082299,15.0835623 9.84394887,15.0929667 C9.59864732,15.1026339 9.41584654,14.9196581 9.35728854,14.7244453 C9.33760366,14.6588193 9.32767361,14.5879362 9.32691435,14.5193021 C9.32364327,14.2283514 9.32399375,13.9373718 9.32603817,13.6464211 C9.32752768,13.4356411 9.41085256,13.2657784 9.5899442,13.1476707 C9.65764381,13.1029854 9.73264498,13.085491 9.81278615,13.0855203 C10.0636657,13.0856663 10.3146052,13.0842936 10.5654536,13.0868054 C10.6081236,13.0872727 10.6258809,13.0725528 10.6408344,13.0353736 C10.7193987,12.8401313 10.7998904,12.6456785 10.8810238,12.451544 C10.8991023,12.4084068 10.9225256,12.3675475 10.9449266,12.3227745 C10.9346461,12.3119975 10.92457,12.3003735 10.9134426,12.2898594 C10.739842,12.1260427 10.5663278,11.9621103 10.3923779,11.7986728 C10.1767789,11.5961289 10.1688057,11.3064633 10.3761393,11.0951579 L10.3761417,11.0951555 C10.5848223,10.8824932 10.7947689,10.6710776 11.0059686,10.4609176 C11.2133315,10.2545478 11.4904079,10.2573224 11.6959312,10.4666419 L11.6959342,10.466645 C11.8668216,10.6407162 12.0367362,10.8157407 12.2056676,10.9917101 C12.2307849,11.0178495 12.2480163,11.0227561 12.2841443,11.0068388 C12.5052338,10.9093199 12.7277847,10.8149553 12.9510937,10.7226931 C12.9925955,10.7055491 13.007695,10.6860395 13.0071108,10.6398064 C13.0043362,10.4011348 13.0131856,10.1621121 13.0037813,9.92379087 C12.9941141,9.67846051 13.1770899,9.49568854 13.3722739,9.43710172 C13.4378998,9.41741685 13.5087829,9.4074575 13.5774171,9.40672753 L13.5774192,9.40672751 C13.8700723,9.40345204 14.1627495,9.40322774 14.4554075,9.40605466 C14.6641138,9.40809908 14.8321362,9.49241685 14.9489905,9.66972777 C14.9936172,9.73748572 15.0111702,9.8124576 15.0111116,9.89256971 C15.0109948,10.1434492 15.0123675,10.3943888 15.0098265,10.6452371 C15.0093593,10.6879364 15.0241667,10.7055768 15.0613459,10.7205303 C15.2998132,10.816735 15.537405,10.9151594 15.7753156,11.0128545 L15.7818578,11.0326562 C15.7926056,11.0168265 15.8015427,10.9992738 15.8144809,10.9854885 L15.8144914,10.9854774 C15.9778321,10.8114126 16.1415417,10.6376951 16.3056203,10.4643238 C16.4669544,10.2939358 16.6940909,10.2577205 16.8955226,10.3728214 C16.9357685,10.3957773 16.9722468,10.4275243 17.0054249,10.4602351 L17.0054269,10.4602371 C17.215106,10.6669713 17.4241238,10.874374 17.6324805,11.0824426 C17.772611,11.2221642 17.8282484,11.3881703 17.7581248,11.5772502 C17.7307296,11.651083 17.6796482,11.7215572 17.6240107,11.7785383 C17.4548495,11.95173 17.2787665,12.1182045 17.1038225,12.2857313 C17.0768361,12.3115201 17.0747625,12.3295404 17.0901248,12.3644706 L17.0901247,12.3644704 C17.1872731,12.5857516 17.2818777,12.8081421 17.3739199,13.0315951 C17.3912683,13.0737102 17.4117416,13.0874079 17.4573032,13.0869113 C17.6959748,13.0842827 17.9349686,13.0927817 18.1733187,13.0836986 C18.4172179,13.0744111 18.59701,13.2530352 18.6584014,13.4474609 C18.6795174,13.5143426 18.6891262,13.5872701 18.6900024,13.6576274 C18.6934195,13.9485781 18.6930106,14.2395864 18.6908786,14.5305083 C18.6893307,14.7413174 18.6058599,14.9111222 18.426682,15.0291146 C18.3589241,15.0737414 18.2839229,15.0910605 18.2037817,15.0910314 C17.9546263,15.0908562 17.7054396,15.0924917 17.4563417,15.0896295 C17.409612,15.0891038 17.3903652,15.1049627 17.3739516,15.1463478 C17.2989504,15.335486 17.221204,15.5235735 17.1427859,15.7113087 C17.1227506,15.7592359 17.0966695,15.8046512 17.0669962,15.8639394 C17.0784449,15.8714454 17.0948004,15.8790973 17.1073005,15.8908381 C17.2813977,16.0541289 17.4549699,16.2180037 17.628687,16.3817029 C17.8274632,16.5690305 17.8534566,16.8461954 17.6701888,17.0450314 L17.6701886,17.0450316 C17.448335,17.2859941 17.2174116,17.5184469 16.9779186,17.7418879 C16.7782369,17.928018 16.5167565,17.9083622 16.3242285,17.7127403 C16.1519131,17.5376502 15.9810566,17.3610705 15.811107,17.1837012 C15.7853181,17.1568025 15.7673272,17.1545242 15.7323383,17.1698868 L15.7323365,17.1698876 C15.5110553,17.2670554 15.2886672,17.3616794 15.0652117,17.4537403 C15.023155,17.4710887 15.0093697,17.4915037 15.0098663,17.5370943 C15.012524,17.7757659 15.0039959,18.0147285 15.0131082,18.2531098 C15.0223957,18.4969803 14.8438593,18.6767724 14.6493771,18.7382214 C14.5825244,18.7593374 14.5095679,18.7689752 14.4392397,18.7698224 C14.1465649,18.7732103 13.8538037,18.7734147 13.5611025,18.7705233 C13.3524545,18.7684497 13.1844314,18.6840151 13.0677548,18.5065885 C13.0231572,18.4388012 13.0057504,18.3638294 13.005809,18.2837172 C13.005955,18.0345618 13.0043487,17.7853751 13.0071816,17.5362772 C13.0077074,17.4896352 12.9919361,17.4703593 12.9505511,17.4538285 C12.7551335,17.3757901 12.5608559,17.2948601 12.3667527,17.2136079 C12.3252218,17.1960843 12.2860273,17.1732159 12.240904,17.1503769 L12.2408164,17.1504353 L12.2408854,17.1503741 Z M16.1217494,14.0852213 C16.1199675,12.9214184 15.1735761,11.9756395 14.0096556,11.9746469 C12.8424958,11.9735964 11.89251,12.92545 11.8951339,14.0932821 C11.8977679,15.2585449 12.8483067,16.2036803 14.0151183,16.201231 C15.1770795,16.198773 16.1235019,15.2481453 16.1217494,14.0852213 L16.1217494,14.0852213 L16.1217494,14.0852213 Z" fill-rule="nonzero"></path>
                </g>
            </g>
        </g>
    </g>
</svg>