<?xml version="1.0" encoding="UTF-8"?>
<svg width="20px" height="19px" viewBox="0 0 20 19" version="1.1" xmlns="http://www.w3.org/2000/svg" xmlns:xlink="http://www.w3.org/1999/xlink">
    <!-- Generator: Sketch 63.1 (92452) - https://sketch.com -->
    <title>系统设置-系统菜单</title>
    <desc>Created with Sketch.</desc>
    <g id="页面-1" stroke="none" stroke-width="1" fill="none" fill-rule="evenodd">
        <g id="画板" transform="translate(-319.000000, -96.000000)" fill="#6ABF4B">
            <g id="系统设置-系统菜单" transform="translate(319.000000, 96.000000)">
                <g id="形状">
                    <path d="M9.87307128,0.290172707 C10.6530238,0.290172707 11.4287874,0.381098138 12.1851684,0.56064361 L12.5080973,0.643116825 L12.7584778,0.711246726 L13.4389071,2.17424843 C13.4902406,2.28745697 13.6397882,2.45445139 13.7704789,2.54819414 L13.8335981,2.58866225 L14.0727176,2.72056796 C14.1688368,2.7735864 14.349552,2.82122616 14.5111466,2.83582544 L14.6334562,2.8399235 L14.6646228,2.83889898 L16.3224819,2.6672933 L16.5084344,2.83736221 C17.7304843,3.95433452 18.6120567,5.35331309 19.0748504,6.90287797 L19.1565647,7.19512053 L19.2230885,7.44919846 L18.2299445,8.73803409 C18.1526825,8.83843609 18.0780395,9.03514148 18.054992,9.18267106 L18.0479206,9.2643759 L18.0479206,9.52613766 L16.932205,9.52613766 L16.932205,9.2643759 C16.932205,8.92270228 17.0655146,8.49855473 17.2622054,8.19120143 L17.3386818,8.0818348 L18.0049682,7.21560995 L17.9989444,7.19255845 L17.9989446,7.19255886 C17.6160287,5.92360514 16.9140413,4.76871791 15.9571335,3.83345143 L15.9267526,3.80476504 L14.777514,3.92437662 L14.6955376,3.92949919 L14.6051803,3.93129207 C14.2924657,3.93129207 13.9347026,3.85752728 13.6562991,3.73561055 L13.5242989,3.67081015 L13.2877987,3.540185 C12.9779642,3.37139689 12.6573924,3.0491881 12.4803462,2.73696758 L12.4208938,2.6206855 L11.959679,1.63100788 L11.8811075,1.61128605 L11.8811076,1.61128609 C11.3332088,1.48394674 10.7739392,1.40906059 10.2112026,1.38768657 L9.87334504,1.38128336 C9.19212996,1.38128336 8.51536645,1.45889007 7.8561514,1.61231051 L7.77496075,1.63254461 L7.31715151,2.61966016 C7.17362761,2.92957553 6.87269943,3.26510209 6.56365063,3.47000348 L6.44762677,3.54043854 L6.21086451,3.66952692 C5.92014988,3.82935064 5.49245809,3.93026577 5.1291974,3.93026577 L5.04198301,3.92847287 L4.95188775,3.92206967 L3.80945785,3.80322647 L3.75052921,3.85957466 L3.7505283,3.85957556 C3.36220329,4.24410335 3.01552365,4.66682219 2.71600411,5.12100392 L2.54183732,5.39762189 L2.54183716,5.39762214 C2.20465239,5.94926849 1.93812798,6.53937722 1.74826481,7.1546577 L1.73045527,7.21331104 L2.40145605,8.08158411 C2.61071828,8.35743369 2.76707635,8.77338596 2.79955094,9.13017031 L2.80531286,9.26079546 L2.80531286,9.52281415 C2.80531286,9.86346486 2.67252699,10.2870986 2.47531247,10.5954772 L2.39883611,10.7056122 L1.7304552,11.5708117 L1.73674092,11.5938632 C2.11702708,12.8573422 2.8150049,14.0068507 3.77776629,14.9534989 L3.80709974,14.9809045 L4.9888154,14.8605245 L5.12369642,14.8566826 C5.42855392,14.8566826 5.73367414,14.9158481 6.03172047,15.0359721 L6.20981584,15.1153718 L6.47800744,15.2626452 L6.47800749,15.2626452 C6.78257034,15.4493448 7.03791796,15.7035339 7.22338849,16.0046465 L7.31505518,16.1647264 L7.7749613,17.1538926 L7.85484226,17.1738705 C8.40274848,17.3014222 8.96165225,17.3762115 9.52448706,17.3977263 L9.86260732,17.4041295 L9.86260732,18.4952337 C9.08291512,18.4952337 8.30689122,18.4043082 7.55051021,18.2245058 L7.22758126,18.1422888 L6.97746111,18.0739027 L6.31091189,16.6398426 L6.31091186,16.6398426 C6.2356342,16.495734 6.13057475,16.3684832 6.00238851,16.2661514 L5.90941213,16.201095 L5.68862615,16.0796905 L5.68862622,16.0796905 C5.54797117,16.0110371 5.39565021,15.9681539 5.23919713,15.9531635 L5.10300641,15.9480409 L5.05638723,15.9490654 L3.4110996,16.1199027 L3.2248851,15.9490654 C2.00388368,14.829531 1.12309694,13.4315778 0.66082631,11.8838138 L0.579111929,11.5918282 L0.512588124,11.3372364 L1.50730357,10.0494261 C1.58508937,9.94799947 1.6599943,9.75129335 1.68278004,9.60376377 L1.68958957,9.52282732 L1.68958957,9.26080864 C1.68958957,9.14042867 1.62725608,8.93962444 1.55339885,8.80618268 L1.5083511,8.73574763 L0.512326947,7.44588909 L0.579374726,7.19104278 L0.579374937,7.19104197 C0.796865079,6.36492193 1.13449991,5.57361205 1.58194753,4.84132841 L1.58194823,4.84132725 C1.97244868,4.19197858 2.4454566,3.59360012 2.98968714,3.06047181 L3.22749686,2.83533552 L3.41371136,2.66526662 L5.06240457,2.83635987 C5.08257126,2.83815278 5.1048332,2.83917727 5.12892838,2.8391773 C5.27821427,2.8391773 5.46888034,2.79998975 5.59747736,2.74902025 L5.66609657,2.71726033 L5.90233486,2.58868412 C6.02254929,2.52234695 6.18335818,2.36149888 6.26638372,2.23112898 L6.30095519,2.16914614 L6.97719325,0.713316818 L7.22731341,0.644930709 L7.22731338,0.644930717 C8.08856282,0.409229877 8.97874131,0.289877627 9.87308655,0.290172707 L9.87307128,0.290172707 Z M9.86861888,5.97620081 C11.7849719,5.97620081 13.3598216,7.41872102 13.4483373,9.23108017 L13.4522659,9.39192848 L12.4308361,9.39192848 C12.4308361,8.06339384 11.2839547,6.97509903 9.86861888,6.97509903 C8.4535458,6.97509903 7.30640161,8.06466648 7.30640161,9.39346524 C7.30640161,10.6766653 8.37497428,11.7349859 9.72326157,11.8064528 L9.86861888,11.8102947 L9.86861888,12.8091929 C7.89516502,12.8091929 6.28497185,11.2808786 6.28497185,9.39346524 C6.28497185,7.50631599 7.896211,5.97620081 9.86861888,5.97620081 L9.86861888,5.97620081 Z M18.8742164,12.6165773 L12.0955813,12.6165773 L12.0955813,12.6165773 C11.7552291,12.6170014 11.4789667,12.3475226 11.4785316,12.0146781 C11.4785316,12.0141656 11.4785316,12.013653 11.4785316,12.0131404 L11.4785316,12.0131374 C11.4782442,11.680293 11.7539204,11.4102399 12.0942726,11.4099587 C12.0947093,11.4099587 12.095146,11.4099587 12.0955828,11.4099587 L18.8742179,11.4099587 L18.8742179,11.4099587 C19.2145701,11.4096762 19.4907146,11.6792704 19.4910048,12.0121148 C19.4910048,12.0124564 19.4910048,12.0127981 19.4910048,12.0131397 L19.4910048,12.0131581 C19.491428,12.3460025 19.2158616,12.6161612 18.8755094,12.6165773 C18.8750727,12.6165773 18.8746359,12.6165773 18.8741992,12.6165773 M18.8742149,15.5512966 L12.0955798,15.5512966 L12.0955798,15.5512966 C11.755154,15.5512966 11.4791862,15.2814164 11.4791862,14.9485 C11.4791862,14.6155835 11.755154,14.3457033 12.0955798,14.3457033 C12.0955798,14.3457033 12.0955798,14.3457033 12.0955798,14.3457033 L18.874215,14.3457033 L18.8742149,14.3457033 C19.2146408,14.3457033 19.4906085,14.6155835 19.4906085,14.9485 C19.4906085,15.2814164 19.2146408,15.5512966 18.8742149,15.5512966 C18.8742149,15.5512966 18.8742149,15.5512966 18.8742149,15.5512966 M18.8742149,18.4870254 L12.0955798,18.4870254 L12.0955798,18.4870254 C11.7552276,18.4874495 11.4789652,18.2179707 11.4785301,17.8851263 C11.4785301,17.8846137 11.4785301,17.8841011 11.4785301,17.8835885 L11.4785301,17.8835855 C11.4782428,17.5507411 11.7539189,17.280688 12.0942711,17.2804069 C12.0947078,17.2804069 12.0951446,17.2804069 12.0955813,17.2804069 L18.8742164,17.2804069 L18.8742164,17.2804069 C19.2145686,17.2801243 19.4907131,17.5497185 19.4910034,17.8825629 C19.4910034,17.8829045 19.4910034,17.8832462 19.4910034,17.8835878 L19.4910034,17.8836062 C19.4914266,18.2164506 19.2158601,18.4866093 18.875508,18.4870254 C18.8750712,18.4870254 18.8746345,18.4870254 18.8741977,18.4870254" fill-rule="nonzero"></path>
                </g>
            </g>
        </g>
    </g>
</svg>