<?xml version="1.0" encoding="UTF-8"?>
<svg width="17px" height="18px" viewBox="0 0 17 18" version="1.1" xmlns="http://www.w3.org/2000/svg" xmlns:xlink="http://www.w3.org/1999/xlink">
    <!-- Generator: Sketch 63.1 (92452) - https://sketch.com -->
    <title>运营</title>
    <desc>Created with Sketch.</desc>
    <g id="页面-1" stroke="none" stroke-width="1" fill="none" fill-rule="evenodd">
        <g id="画板" transform="translate(-179.000000, -96.000000)" fill="#666666">
            <g id="运营" transform="translate(179.000000, 96.000000)">
                <g id="形状">
                    <path d="M5.68370221,12.8318001 C5.68370221,12.2100787 5.77240209,11.6171151 5.9494714,11.0534191 C6.12669724,10.4896177 6.37684829,9.97055262 6.70002891,9.49622394 C7.02310518,9.02193042 7.40618431,8.60042407 7.84923152,8.23151153 C8.29231351,7.86268688 8.77967587,7.56754982 9.31123164,7.34639917 C9.31123164,7.34639917 9.50496261,7.07782269 9.53005946,7.00174448 C9.63436008,6.97012139 9.73339089,6.91214867 9.82716927,6.8279142 C9.91063412,6.75412114 9.98609859,6.65132415 10.0539627,6.51964626 C10.1216529,6.38795079 10.1659506,6.20615761 10.1869082,5.9741964 C10.2077265,5.8055341 10.2050655,5.66329175 10.1790121,5.54738146 C10.1529761,5.43147116 10.1190614,5.33665465 10.0773377,5.26280886 C10.0356662,5.17843376 9.97842866,5.10998446 9.9053817,5.05725003 C9.9053817,4.62519679 9.87938046,4.19827637 9.82718666,3.77682275 C9.77518419,3.40789264 9.68655387,3.02062851 9.56141747,2.61488976 C9.43626368,2.20925648 9.23834121,1.8376369 8.96726742,1.50045292 C8.85267065,1.35286681 8.69356741,1.20535101 8.4904273,1.05785279 C8.28711326,0.910249106 8.0553283,0.778536062 7.79463761,0.66253788 C7.53412085,0.546645167 7.25523799,0.454465373 6.95809339,0.38596334 C6.66100097,0.317461307 6.36140408,0.283201501 6.05907662,0.283201501 C5.81937824,0.283201501 5.57187079,0.301553085 5.31643253,0.338502347 C5.06099427,0.375434031 4.8031385,0.446484895 4.54260434,0.55202408 C4.28191366,0.657299593 4.0317626,0.802266559 3.79197726,0.986731617 C3.55227888,1.1711791 3.32814646,1.41090984 3.11961478,1.70599417 C2.90076956,2.01159023 2.73926621,2.359409 2.6349482,2.74939773 C2.53075193,3.13933373 2.45772236,3.50279704 2.41610298,3.84020955 L2.41610256,3.84021363 C2.37444249,4.23929202 2.35356079,4.64030929 2.3535434,5.04160253 C2.25971284,5.14687804 2.19207484,5.25763794 2.15021197,5.37351307 C2.09810514,5.48940578 2.06692105,5.62124188 2.05645098,5.76882798 C2.04598092,5.9163262 2.06692105,6.07973264 2.11901048,6.25874848 C2.17113471,6.43794009 2.23358986,6.57503205 2.30658464,6.66983099 C2.37952725,6.76480571 2.44721743,6.8385636 2.50982911,6.89110468 C2.58284129,6.94389185 2.6557665,6.98075322 2.72881346,7.00175911 C2.87654224,7.35286498 2.9199704,7.42843343 3.29155333,7.88384802 C3.46884874,8.03134624 3.63028252,8.17638352 3.77630687,8.31864345 C3.92224426,8.46090338 4.00553519,8.65315556 4.02645792,8.89550545 C4.03692799,9.06423807 4.04209345,9.21690426 4.04209345,9.35394348 C4.04209345,9.49096513 4.0161096,9.62276606 3.96386364,9.74917051 C3.91186116,9.875698 3.82575271,10.0048271 3.70588612,10.1365049 C3.58601954,10.2681828 3.41651581,10.4025502 3.19775755,10.5396246 C3.01007904,10.6555876 2.12414116,10.9848614 1.88442539,11.0533634 C1.64462266,11.121883 1.05889039,11.4380436 0.871264055,11.5593328 C0.683585544,11.6805517 0.524708406,11.8253077 0.394354367,11.9940755 C0.264139465,12.1625796 0.17801362,12.3787029 0.136376853,12.6422872 C0.0321457982,13.3271493 0.00880555528,13.8883843 0.0660778503,14.3258692 C0.123454498,14.7631431 0.209389029,15.0238973 0.324055364,15.1082197 C0.386493123,15.1610596 0.537735114,15.2137765 0.777555241,15.2662472 C1.01721884,15.3191223 0.993026381,15.3717688 1.33711235,15.4244154 C1.68109396,15.4770092 2.06408613,15.5272475 2.48629756,15.5746382 L2.48629805,15.5746383 C2.91048522,15.6221487 3.33524634,15.6642659 3.76048226,15.7009796 C4.18785915,15.7378234 4.60222673,15.7668801 5.00351542,15.7879387 C5.40485629,15.8090149 5.75661219,15.8195442 6.05885268,15.8195442 L6.48102932,15.8195442 C6.23087827,15.3769089 6.03535591,14.9052521 5.89470572,14.4046441 C5.7539338,13.9040537 5.68354783,13.3798558 5.68354783,12.8317341 L5.68370221,12.8318001 Z M14.0405701,12.2957721 C13.8082286,12.2957721 13.5992447,12.3971804 13.4547161,12.558583 L12.1296268,11.8889435 C12.2383451,11.7329199 12.3025046,11.5429177 12.3025046,11.3375874 C12.3025046,10.8083973 11.8780496,10.3793675 11.3544769,10.3793675 C10.8308867,10.3793675 10.4063969,10.8083622 10.4063969,11.3375874 C10.4063969,11.5580525 10.4803656,11.760957 10.6041802,11.9228693 L9.57861829,13.3049862 L9.5786183,13.3049862 C9.48968919,13.2711254 9.39542696,13.2538246 9.30039634,13.2539217 C8.86413207,13.2539217 8.51037608,13.6114084 8.51037608,14.0523914 C8.51037608,14.4933743 8.86414946,14.8508259 9.30039634,14.8508259 C9.73671279,14.8508259 10.0904166,14.4933567 10.0904166,14.0523914 L10.0904166,14.0523882 C10.0906997,13.8795729 10.0352267,13.7113757 9.93240717,13.5732959 L10.9488382,12.2036595 L10.9488381,12.2036595 C11.0756087,12.2644479 11.2141951,12.2959026 11.3545096,12.2957338 L11.3545096,12.2957338 C11.5596811,12.2960514 11.7593619,12.2287544 11.9232845,12.1040441 L13.3051939,12.8024239 L13.3051938,12.802424 C13.2690314,12.8953522 13.2504935,12.9943281 13.2505478,13.094186 C13.2505478,13.535169 13.604269,13.8926557 14.040568,13.8926557 C14.4768845,13.8926557 14.8305883,13.535169 14.8305883,13.094186 C14.8305883,12.6531679 14.4769366,12.2956988 14.0406028,12.2956988 L14.0405701,12.2957721 Z M16.8497301,16.9104923 L15.4112963,15.7703738 C15.6524035,15.4464438 15.856274,15.0915234 16.0224733,14.7048745 C16.2813726,14.1034031 16.4106483,13.4626797 16.4106483,12.7827395 C16.4106483,12.1026938 16.2814073,11.4620583 16.0224733,10.8604287 C15.7639044,10.2590276 15.414566,9.73338828 14.9745798,9.28352838 C14.5348719,8.83370364 14.0172299,8.47809776 13.4221406,8.2164998 C12.8269644,7.9550073 12.193056,7.82419075 11.5202413,7.82419075 C10.8371652,7.82419075 10.1979522,7.95502488 9.60286293,8.2164998 C9.00780848,8.47811533 8.49023598,8.83368606 8.05030197,9.28352838 C7.61050709,9.73335312 7.26111653,10.25901 7.00240854,10.8604287 C6.7436136,11.4620407 6.61421613,12.1026762 6.61421613,12.7827395 C6.61421613,13.4627149 6.74359621,14.1034207 7.00240854,14.7048745 C7.26113392,15.3062756 7.61050709,15.8319501 8.05030197,16.2817396 C8.49021859,16.7316699 9.00779109,17.0846742 9.60286293,17.3409987 C10.1979696,17.5971474 10.8371305,17.7253624 11.5202413,17.7253624 C12.193056,17.7253624 12.826947,17.5973056 13.4221406,17.3409987 C13.9463743,17.115348 14.4103964,16.8143047 14.81412,16.4382379 L16.2169521,17.5500028 C16.3697942,17.7045147 16.6176842,17.7045147 16.7705611,17.5500028 L16.8497127,17.4701102 C17.0026417,17.3155807 17.0026417,17.065057 16.8497127,16.9104748 L16.8497301,16.9104923 Z M11.5125366,16.7672129 C9.33091953,16.7672129 7.56234828,14.9797967 7.56234828,12.7748821 C7.56234828,10.5698971 9.33093692,8.78237545 11.5125366,8.78237545 C13.6941884,8.78237545 15.4626379,10.5698971 15.4626379,12.7748821 C15.4626379,14.9798143 13.694171,16.7672129 11.5125366,16.7672129 Z" fill-rule="nonzero"></path>
                </g>
            </g>
        </g>
    </g>
</svg>