<?xml version="1.0" encoding="UTF-8"?>
<svg width="17px" height="19px" viewBox="0 0 17 19" version="1.1" xmlns="http://www.w3.org/2000/svg" xmlns:xlink="http://www.w3.org/1999/xlink">
    <!-- Generator: Sketch 63.1 (92452) - https://sketch.com -->
    <title>角色管理_green</title>
    <desc>Created with Sketch.</desc>
    <g id="页面-1" stroke="none" stroke-width="1" fill="none" fill-rule="evenodd">
        <g id="画板" transform="translate(-615.000000, -96.000000)" fill="#6ABF4B">
            <g id="角色管理_green" transform="translate(615.000000, 96.000000)">
                <g id="角色管理">
                    <path d="M14.2918995,14.2457056 C15.0557678,13.7058155 15.5562815,12.8143396 15.5562815,11.8039541 C15.5562815,10.1557708 14.228024,8.81974086 12.5894792,8.81974086 C10.9509547,8.81974086 9.62271749,10.1557708 9.62271749,11.8039541 C9.62271749,12.8143396 10.1232109,13.7058155 10.8870792,14.2457056 C9.35820633,14.9093018 8.28768284,16.4386978 8.28768284,18.2200575 C8.28768284,18.3711744 8.29549481,18.5205361 8.31057089,18.6676935 L16.8684281,18.6676935 L16.8684281,18.6676935 C16.8836718,18.5189739 16.8913161,18.3695659 16.8913161,18.2200572 C16.8913161,16.4386771 15.8207724,14.9092607 14.2918995,14.2457054 L14.2918995,14.2457056 Z" id="路径" fill-rule="nonzero"></path>
                    <path d="M5.98840803,5.0894539 C5.45589569,5.0894539 5.02420845,5.52368048 5.02420845,6.05932525 C5.02420845,6.59497001 5.45589569,7.02919659 5.98840803,7.02919659 C6.52094066,7.02919659 6.95260761,6.59499042 6.95260761,6.05932525 C6.95260761,5.52368048 6.52092037,5.0894539 5.98840803,5.0894539 Z M8.28766255,0.314675983 C3.94554834,0.314675983 0.425699409,3.85525032 0.425699409,8.22286556 C0.425699409,12.5463336 3.87473337,16.0592317 8.15619831,16.1298509 C8.53792955,15.3124232 9.13658997,14.6177832 9.87750934,14.1207749 C9.34950157,13.4961213 9.02933268,12.6881231 9.02933268,11.8039133 C9.02933268,9.82616684 10.6232782,8.22284515 12.5894589,8.22284515 C14.0508242,8.22284515 15.3062985,9.10860614 15.8548,10.3754048 C16.0468121,9.69105144 16.1496054,8.96902092 16.1496054,8.22284515 C16.1496054,3.85527073 12.6297565,0.314675983 8.28766255,0.314675983 Z M5.98840803,12.400809 C4.96437081,12.400809 4.13419211,11.5657265 4.13419211,10.5356655 C4.13419211,9.50560455 4.96439111,8.67052203 5.98840803,8.67052203 C7.01242496,8.67052203 7.84264424,9.50562496 7.84264424,10.5356655 C7.84264424,11.5657061 7.01244525,12.400809 5.98840803,12.400809 Z M5.98840803,7.92446873 C4.96437081,7.92446873 4.13419211,7.0893658 4.13419211,6.05932525 C4.13419211,5.02928469 4.96439111,4.19418177 5.98840803,4.19418177 C7.01242496,4.19418177 7.84264424,5.02926428 7.84264424,6.05932525 C7.84264424,7.08938621 7.01244525,7.92446873 5.98840803,7.92446873 Z M10.4385912,7.92446873 C9.41455394,7.92446873 8.58433466,7.0893658 8.58433466,6.05932525 C8.58433466,5.02928469 9.41455394,4.19418177 10.4385912,4.19418177 C11.4626284,4.19418177 12.2928071,5.02926428 12.2928071,6.05932525 C12.2928071,7.08938621 11.4626081,7.92446873 10.4385912,7.92446873 Z M10.4385912,5.0894539 C9.90605853,5.0894539 9.47439158,5.52368048 9.47439158,6.05932525 C9.47439158,6.59497001 9.90603824,7.02919659 10.4385912,7.02919659 C10.9710832,7.02919659 11.4027907,6.59499042 11.4027907,6.05932525 C11.4027705,5.52368048 10.9710832,5.0894539 10.4385912,5.0894539 Z" id="形状" fill-rule="nonzero"></path>
                </g>
            </g>
        </g>
    </g>
</svg>