<?xml version="1.0" encoding="UTF-8"?>
<svg width="19px" height="19px" viewBox="0 0 19 19" version="1.1" xmlns="http://www.w3.org/2000/svg" xmlns:xlink="http://www.w3.org/1999/xlink">
    <!-- Generator: Sketch 63.1 (92452) - https://sketch.com -->
    <title>订单管理</title>
    <desc>Created with Sketch.</desc>
    <g id="页面-1" stroke="none" stroke-width="1" fill="none" fill-rule="evenodd">
        <g id="画板" transform="translate(-657.000000, -62.000000)" fill="#666666">
            <g id="订单管理" transform="translate(657.000000, 62.000000)">
                <g id="形状">
                    <path d="M4.00789138,6.69750779 L4.00789139,6.6975078 C3.7847135,6.47104758 3.42020995,6.46838498 3.19374972,6.69156213 C2.9672895,6.91474003 2.9646269,7.27924358 3.18780405,7.5057038 C3.29745607,7.61696916 3.44761637,7.67889698 3.60382475,7.6772753 C3.7105416,7.78494215 3.85589233,7.84510877 4.00757522,7.8454255 L13.7545866,7.8454255 L13.7545865,7.8454255 C14.0705194,7.84402956 14.3257469,7.58724414 14.3252207,7.27130754 C14.3252207,6.95147446 14.0693523,6.69718959 13.7545865,6.69718959 L4.00789062,6.69718959 L4.00789138,6.69750779 Z M8.84371244,17.8520979 L1.62782318,17.8520979 L1.62782319,17.8520979 C1.47061062,17.8503626 1.34408087,17.7224198 1.34409014,17.5651976 L1.34409014,2.58336472 C1.34409014,2.42503127 1.47360702,2.29646439 1.62782319,2.29646439 L5.24543482,2.29646439 L5.24543482,3.44311573 C5.24543482,3.7613661 5.5003524,4.01849911 5.81385277,4.01849911 L11.9486519,4.01849911 C12.262785,4.01849911 12.5170698,3.76104881 12.5170698,3.44311573 L12.5170698,2.29646439 L16.1349969,2.29646439 C16.2920638,2.29646439 16.41873,2.42724781 16.41873,2.58336472 L16.41873,8.49617532 C16.41873,8.81284297 16.6742802,9.07029327 16.9899979,9.07029327 L16.9899979,9.07029327 C17.3060551,9.06907138 17.5614755,8.81223438 17.5609543,8.49617532 L17.5609543,1.72392915 L17.5609543,1.72392912 C17.5623514,1.40762328 17.3072537,1.14997259 16.9909479,1.14822845 L12.5170736,1.14822845 L12.5170736,0.576010498 L12.5170736,0.576008381 C12.5191769,0.260162701 12.264839,0.00241552645 11.9489933,0.000309259947 C11.94888,0.000309259947 11.9487667,0.000309259947 11.9486534,0.000309259947 L5.81387284,0.000309259947 C5.49973976,0.000309259947 5.24545489,0.258076845 5.24545489,0.57600993 L5.24545489,1.14822788 L0.771895977,1.14822788 L0.771895962,1.14822788 C0.620244799,1.14852048 0.47499835,1.2094009 0.368462777,1.31732808 L0.368462738,1.31732812 C0.261514323,1.42560672 0.201650894,1.5717373 0.201892755,1.72392859 L0.201892755,18.424948 L0.201892755,18.4249483 C0.200843622,18.7410074 0.45583946,18.9982703 0.771896664,19.0000163 L8.84373321,19.0000163 L8.84373322,19.0000163 C9.15966611,18.9986203 9.41489356,18.7418349 9.4143666,18.4258983 L9.41436662,18.4258933 C9.41523952,18.1098677 9.15975704,17.8529703 8.84373138,17.8520982 C8.84372993,17.8520982 8.84372847,17.8520982 8.84372702,17.8520982 L8.84371244,17.8520979 Z M6.38795902,1.43259053 C6.38859291,1.35659045 6.41962635,1.28375709 6.47345968,1.2302403 L6.47345968,1.2302403 C6.52726945,1.17700462 6.60012006,1.14747684 6.67580991,1.14820966 L11.0876188,1.14820966 C11.2472189,1.14820966 11.3751518,1.27774036 11.3751518,1.43259109 L11.3751518,2.58620972 L11.3751518,2.5862106 C11.374857,2.6622875 11.3440567,2.73506668 11.2896511,2.78824354 L11.2896511,2.78824355 C11.2359811,2.84169095 11.1630379,2.87125639 11.0873009,2.87026038 L6.67549206,2.87026038 L6.67549207,2.87026038 C6.51797169,2.87044362 6.38969575,2.74372097 6.38795902,2.58621005 L6.38795902,1.43259142 L6.38795902,1.43259053 Z M7.52732819,14.725648 L7.52732821,14.725648 C7.8436322,14.7247747 8.09943855,14.4678359 8.09891303,14.15153 L8.09891303,14.1515283 C8.09961116,13.8351 7.84375466,13.5779689 7.52732636,13.5770968 L4.01137598,13.5770968 L4.011376,13.5770968 C3.6937769,13.5783543 3.43733227,13.8368386 3.43858567,14.1544359 C3.43918913,14.3056842 3.49935027,14.450608 3.60604245,14.5578134 C3.7137093,14.6657968 3.85969274,14.7259636 4.01137563,14.7253303 L7.52732601,14.7253303 L7.52732819,14.725648 Z M8.88392977,9.86353492 L4.00662038,9.86353492 C3.6924873,9.86353492 3.43756972,10.1203525 3.43756972,10.4376529 C3.43756972,10.7568532 3.6924873,11.0117708 4.00662038,11.0117708 L8.88361434,11.0117708 C9.19743199,11.0117708 9.45236535,10.7549532 9.45236535,10.4376529 L9.45236535,10.4376514 C9.45479612,10.123034 9.20173298,9.86599932 8.88711377,9.86355195 C8.88605201,9.86353492 8.88499024,9.86353492 8.88392845,9.86353492 L8.88392977,9.86353492 Z M18.4491792,13.7088314 L18.026746,13.7088314 C17.8345285,13.7088314 17.6296455,13.5571479 17.5713782,13.3718983 L17.3303952,12.7803649 C17.2388783,12.6099979 17.2759284,12.3576144 17.4127285,12.2201815 L17.7119789,11.9199812 L17.7119789,11.9199811 C17.8487844,11.7818749 17.8487844,11.559337 17.7119789,11.4212306 L17.214811,10.9221627 L17.214811,10.9221627 C17.0787118,10.7849619 16.8571579,10.7840689 16.7199569,10.9201682 C16.7198189,10.9203052 16.7196809,10.9204422 16.7195431,10.9205794 L16.7182765,10.9221627 L16.4190261,11.2220458 C16.2828592,11.3588459 16.031743,11.3962127 15.8610582,11.3046959 L15.2739575,11.0614956 C15.089974,11.0041788 14.9386071,10.7983453 14.9386071,10.603595 L14.9386071,10.1805273 C14.9386071,9.98640976 14.7796402,9.82744414 14.587424,9.82744414 L13.8856905,9.82744414 C13.6928402,9.82744414 13.5345073,9.98641105 13.5345073,10.1805273 L13.5345073,10.603595 C13.5345073,10.7992953 13.3837739,11.0048128 13.1988397,11.0621283 L12.610789,11.3046959 C12.4407388,11.3962127 12.1908885,11.3588459 12.0540883,11.2220458 L11.7545207,10.9215281 L11.7545207,10.9215281 C11.6185663,10.7846764 11.3974131,10.783949 11.2605609,10.9199033 C11.2600176,10.9204431 11.259476,10.9209848 11.2589361,10.9215281 L10.7627183,11.4199614 L10.7627183,11.4199614 C10.6255307,11.5580339 10.6255307,11.7809563 10.7627183,11.9190293 L11.0603859,12.2195469 C11.1978193,12.3569804 11.2348694,12.6087301 11.1433527,12.7803649 L10.9007852,13.3718983 C10.8437851,13.5571485 10.6385849,13.7088314 10.4454174,13.7088314 L10.0242496,13.7088314 C9.83076664,13.7088314 9.67306587,13.8668483 9.67306587,14.0612818 L9.67306587,14.7664999 L9.67306587,14.7665032 C9.67271769,14.9609102 9.82984799,15.1188868 10.0242533,15.1195845 L10.4454211,15.1195845 C10.6382713,15.1202178 10.8431542,15.2715847 10.9007889,15.4565176 L11.1433564,16.0474183 C11.2339233,16.2184185 11.1978232,16.4720688 11.0603896,16.6082362 L10.761772,16.9081193 L10.761772,16.9081193 C10.6248922,17.0464419 10.6248922,17.2691809 10.761772,17.4075026 L11.2589398,17.9065704 L11.2589398,17.9065704 C11.39539,18.0434222 11.6169455,18.0437476 11.7537976,17.9072974 C11.7540403,17.9070555 11.7542826,17.9068131 11.7545246,17.9065705 L12.0540922,17.6060528 C12.1889924,17.4692527 12.44011,17.4322026 12.6101602,17.5243527 L13.1988436,17.767553 C13.3837771,17.8251864 13.5345112,18.0310206 13.5345112,18.2251363 L13.5345112,18.6469368 L13.5345112,18.6469309 C13.5350256,18.8408759 13.6917477,18.9981679 13.8856888,18.9993869 L14.5874223,18.9993869 L14.5874223,18.9993869 C14.7812912,18.9979996 14.9379171,18.8408098 14.9386055,18.6469365 L14.9386055,18.225136 C14.9386055,18.0310185 15.0899724,17.8248683 15.2739558,17.7675528 L15.8613738,17.5243525 C16.032374,17.4322024 16.283807,17.4692524 16.4199745,17.6060526 L16.7173248,17.9065702 L16.7173248,17.9065702 C16.8543425,18.0435968 17.0764995,18.043604 17.213526,17.9065864 C17.2135314,17.906581 17.2135368,17.9065756 17.2135422,17.9065702 L17.7107101,17.4075023 L17.7107101,17.4075023 C17.8475899,17.2691797 17.8475899,17.0464407 17.7107101,16.908119 L17.4111425,16.608236 C17.2752923,16.4717525 17.2382422,16.2184182 17.3291256,16.047418 L17.5701086,15.4565173 C17.6290087,15.2715838 17.8342089,15.1198996 18.0257919,15.1198996 L18.4475924,15.1198996 L18.4475923,15.1198996 C18.641502,15.1186802 18.7980036,14.9610467 18.7978327,14.767132 L18.7978327,14.0612811 L18.7978327,14.0612808 C18.7990515,13.8678554 18.6432434,13.7100605 18.4498189,13.7088341 C18.4496043,13.7088327 18.4493896,13.7088315 18.449175,13.7088306 L18.4491792,13.7088314 Z M16.6283443,14.3836495 L16.6283443,14.3836455 C16.6283443,15.0288837 16.3731243,15.6479281 15.9183799,16.1056821 L15.9183799,16.1056822 C14.977311,17.0517515 13.4474864,17.0558057 12.5014189,16.1147368 C12.4982871,16.1116215 12.4951638,16.1084977 12.4920492,16.1053653 L12.492049,16.1053651 C12.0371098,15.6476112 11.7818619,15.0283867 11.7820802,14.3830131 L11.7820802,14.3828634 C11.7814808,13.5140688 12.2430205,12.7105293 12.9937775,12.2733043 L12.9937773,12.2733044 C13.7428977,11.8382187 14.6677924,11.8382187 15.416911,12.2733042 L15.4169111,12.2733043 C16.167785,12.7104347 16.6293278,13.5140948 16.628481,14.3829376 L16.628481,14.3835709 L16.6283443,14.3836495 Z" fill-rule="nonzero"></path>
                </g>
            </g>
        </g>
    </g>
</svg>