<?xml version="1.0" encoding="UTF-8"?>
<svg width="19px" height="18px" viewBox="0 0 19 18" version="1.1" xmlns="http://www.w3.org/2000/svg" xmlns:xlink="http://www.w3.org/1999/xlink">
    <!-- Generator: Sketch 63.1 (92452) - https://sketch.com -->
    <title>费用审批</title>
    <desc>Created with Sketch.</desc>
    <g id="页面-1" stroke="none" stroke-width="1" fill="none" fill-rule="evenodd">
        <g id="画板" transform="translate(-937.000000, -62.000000)" fill="#6ABF4B">
            <g id="费用审批" transform="translate(937.000000, 62.000000)">
                <g id="形状">
                    <path d="M10.2600119,16.6560199 L1.92532939,16.6560199 C1.57066169,16.6560199 1.27932864,16.3668773 1.27932864,16.0148763 L1.27932864,1.98514567 C1.27932864,1.63314464 1.57066169,1.34400206 1.92532939,1.34400206 L12.8440149,1.34400206 C13.1986826,1.34400206 13.4900157,1.63314464 13.4900157,1.97257361 L13.4900157,3.99656983 C13.4900157,4.34857085 13.7813488,4.63771343 14.1360164,4.63771343 C14.4906841,4.63771343 14.7820172,4.34857085 14.7820172,3.99656983 L14.7820172,1.97257361 C14.7693505,0.91657238 13.9206835,0.0742795472 12.8566878,0.0742795472 L1.92534794,0.0742795472 C0.861346705,0.0742795472 1.85547091e-05,0.929137071 1.85547091e-05,1.98513278 L1.85547091e-05,16.0148634 C1.85547091e-05,17.0708646 0.861352272,17.9257166 1.92534794,17.9257166 L10.2600305,17.9257166 C10.6146982,17.9257166 10.9060312,17.636574 10.9060312,17.284573 C10.9060312,16.932572 10.6146982,16.6560015 10.2600305,16.6560015 L10.2600119,16.6560199 Z M8.11934216,14.7325891 C8.11934216,14.380588 7.82800354,14.0914455 7.47333584,14.0914455 L2.98933063,14.0914455 C2.63466293,14.0914455 2.34332988,14.380588 2.34332988,14.7325891 C2.34332988,15.0845901 2.63466293,15.3737327 2.98933063,15.3737327 L7.48600871,15.3737327 C7.84067641,15.3737327 8.11934216,15.0845901 8.11934216,14.7325891 L8.11934216,14.7325891 Z M3.21733089,10.9108642 C2.86266319,10.9108642 2.57133014,11.2000068 2.57133014,11.5520078 C2.57133014,11.9040088 2.86266319,12.1931514 3.21733089,12.1931514 L5.78866103,12.1931514 C6.14332873,12.1931514 6.43466178,11.9040088 6.43466178,11.5520078 C6.43466178,11.2000068 6.14332873,10.9108642 5.78866103,10.9108642 L3.21733089,10.9108642 L3.21733089,10.9108642 Z M17.2393472,11.9794375 L16.0233458,11.9794375 C16.466679,10.7474367 17.2393472,8.48458241 17.2393472,8.20800453 C17.2393472,6.59886041 15.9346784,5.30400115 14.3133438,5.30400115 C12.6920092,5.30400115 11.3873404,6.61143063 11.3873404,8.20800453 C11.3873404,8.57257576 12.1220085,10.7474422 12.5906745,11.9794375 L11.3873404,11.9794375 C10.4120065,11.9794375 9.62667107,12.7588663 9.62667107,13.7268687 L9.62667107,14.3051557 C9.62667107,15.2731562 10.4120047,16.0525869 11.3873404,16.0525869 L17.2393472,16.0525869 C18.2146811,16.0525869 19.0000165,15.2731581 19.0000165,14.3051557 L19.0000165,13.7268687 C19.0000165,12.7714384 18.2146829,11.9794375 17.2393472,11.9794375 L17.2393472,11.9794375 Z M13.1986697,10.1942919 C12.844002,9.17600504 12.5653362,8.29599788 12.5653362,8.20801005 C12.5653362,7.24000954 13.3506698,6.46057883 14.3260055,6.46057883 C15.3013394,6.46057883 16.0866749,7.2400077 16.0866749,8.20801005 C16.0866749,8.32115304 15.1366738,11.0868767 14.7946734,11.979443 L13.8573396,11.979443 C13.7053394,11.6148718 13.4393391,10.9108697 13.1986715,10.1942975 L13.1986697,10.1942919 Z M17.834675,14.3051539 C17.834675,14.6320108 17.5686747,14.8834409 17.2520071,14.8834409 L11.3873274,14.8834409 C11.0579943,14.8834409 10.8046594,14.6194406 10.8046594,14.3051539 L10.8046594,13.7268669 C10.8046594,13.40001 11.0706598,13.1485799 11.3873274,13.1485799 L17.2393342,13.1485799 C17.5686673,13.1485799 17.8220022,13.4125802 17.8220022,13.7268669 L17.834675,14.3051539 L17.834675,14.3051539 Z M9.53799254,7.08913933 L7.95465799,7.08913933 L7.95465799,6.12113882 L9.5253271,6.12113882 C9.84199475,6.12113882 10.0953278,5.86971057 10.0953278,5.55542387 C10.0953278,5.24113718 9.84199475,4.98970893 9.5253271,4.98970893 L8.19532555,4.98970893 L9.68999458,3.50627802 C9.91799484,3.27999204 9.91799484,2.92799102 9.68999458,2.70170504 C9.46199431,2.47541906 9.10732661,2.47541906 8.87932635,2.70170504 L7.38465732,4.18513595 L5.8899883,2.71427709 C5.66198803,2.48799112 5.30732034,2.48799112 5.07932007,2.71427709 C4.85131981,2.94056307 4.85131981,3.2925641 5.07932007,3.51885007 L6.5739891,5.00228098 L5.24398755,5.00228098 C4.92731989,5.00228098 4.67398688,5.25370923 4.67398688,5.56799593 C4.67398688,5.88228262 4.92731989,6.13371087 5.24398755,6.13371087 L6.81465666,6.13371087 L6.81465666,7.10171139 L5.24398755,7.10171139 C4.92731989,7.10171139 4.67398688,7.35313964 4.67398688,7.66742633 C4.67398688,7.98171302 4.92731989,8.23314127 5.24398755,8.23314127 L6.81465666,8.23314127 L6.81465666,8.82399849 C6.81465666,9.11314107 7.06798967,9.3519991 7.38465732,9.3519991 C7.70132498,9.3519991 7.95465799,9.11314107 7.95465799,8.82399849 L7.95465799,8.23314127 L9.5253271,8.23314127 C9.84199475,8.23314127 10.0953278,7.98171302 10.0953278,7.66742633 C10.1079945,7.34056942 9.8546602,7.08913933 9.5379944,7.08913933 L9.53799254,7.08913933 Z" fill-rule="nonzero"></path>
                </g>
            </g>
        </g>
    </g>
</svg>