<?xml version="1.0" encoding="UTF-8"?>
<svg width="23px" height="19px" viewBox="0 0 23 19" version="1.1" xmlns="http://www.w3.org/2000/svg" xmlns:xlink="http://www.w3.org/1999/xlink">
    <!-- Generator: Sketch 63.1 (92452) - https://sketch.com -->
    <title>销售信息管理_grey</title>
    <desc>Created with Sketch.</desc>
    <g id="页面-1" stroke="none" stroke-width="1" fill="none" fill-rule="evenodd">
        <g id="画板" transform="translate(-643.000000, -96.000000)" fill="#666666">
            <g id="销售信息管理_grey" transform="translate(643.000000, 96.000000)">
                <g id="形状">
                    <path d="M14.1833573,2.14629369 L23.0000268,2.14629369 L23.0000268,5.04907485 L14.1833573,5.04907485 L14.1833573,2.14629369 Z M16.1000255,8.4356453 L23.0000335,8.4356453 L23.0000335,11.3384265 L16.1000255,11.3384265 L16.1000255,8.4356453 L16.1000255,8.4356453 Z M18.0166936,14.7249969 L23.0000402,14.7249969 L23.0000402,17.6277781 L18.0166936,17.6277781 L18.0166936,14.7249969 L18.0166936,14.7249969 Z M5.75002017,9.30647965 L7.66668832,11.2416663 L9.58335646,9.30647965 L12.7937694,9.30647965 C15.3333632,9.30647965 15.3333632,11.0481483 15.3333632,13.2736063 L15.3333632,18.7888905 L4.49219273e-06,18.7888905 L4.49219273e-06,13.2736063 C4.49219273e-06,11.1448994 4.49219273e-06,9.30647965 2.53959827,9.30647965 L5.75001118,9.30647965 L5.75002017,9.30647965 Z M11.6916863,4.08147357 C11.6916863,6.21018051 9.96668425,8.04860026 7.85834098,7.951856 C5.75000444,7.951856 4.0249957,6.30694744 4.0249957,4.08147357 C4.0249957,1.95276663 5.65416351,0.211091135 7.85834098,0.211091135 C9.96667752,0.211091135 11.6916863,1.8559997 11.6916863,4.08147357 Z M7.67627241,11.2416595 L6.23877074,15.112042 L7.66668832,17.0472286 L9.11185592,15.112042 L7.67435424,11.2416595 L7.67627241,11.2416595 Z" fill-rule="nonzero"></path>
                </g>
            </g>
        </g>
    </g>
</svg>