<?xml version="1.0" encoding="UTF-8"?>
<svg width="19px" height="16px" viewBox="0 0 19 16" version="1.1" xmlns="http://www.w3.org/2000/svg" xmlns:xlink="http://www.w3.org/1999/xlink">
    <!-- Generator: Sketch 63.1 (92452) - https://sketch.com -->
    <title>home</title>
    <desc>Created with Sketch.</desc>
    <g id="Page" stroke="none" stroke-width="1" fill="none" fill-rule="evenodd">
        <g id="画板" transform="translate(-82.000000, -63.000000)" fill="#6ABF4B" fill-rule="nonzero">
            <g id="home" transform="translate(82.000000, 63.000000)">
                <g id="liuliangyunpingtaitubiao02">
                    <path d="M3.32063419,9.2693662 L3.32063419,15.9088028 L7.21842831,15.9088028 L7.21842831,12.5369718 C7.21842831,11.8130282 7.79960478,11.2271127 8.51769301,11.2271127 L10.4903401,11.2271127 C11.2084283,11.2271127 11.7896048,11.8130282 11.7896048,12.5369718 L11.7896048,15.9059859 L15.6873989,15.9059859 L15.6873989,9.2693662 L9.50122243,2.64119718 L3.32063419,9.2693662 Z" id="路径"></path>
                    <path d="M10.4512224,0.41584507 C10.1941636,0.156690141 9.85328125,0.0158450704 9.49004596,0.0158450704 C9.12681066,0.0158450704 8.78592831,0.159507042 8.51769301,0.429929577 L0.00401654412,9.53697183 L1.59386949,9.53697183 L9.35034007,1.24119718 C9.40063419,1.19049296 9.46210478,1.18204225 9.49284007,1.18204225 C9.52357537,1.18204225 9.58225184,1.19049296 9.6241636,1.22992958 L17.3973989,9.53697183 L18.9872518,9.53697183 L10.4512224,0.41584507 Z" id="路径"></path>
                </g>
            </g>
        </g>
    </g>
</svg>