<?xml version="1.0" encoding="UTF-8"?>
<svg width="44px" height="36px" viewBox="0 0 44 36" version="1.1" xmlns="http://www.w3.org/2000/svg" xmlns:xlink="http://www.w3.org/1999/xlink">
    <!-- Generator: Sketch 60 (88103) - https://sketch.com -->
    <title>天然</title>
    <desc>Created with Sketch.</desc>
    <g id="Page" stroke="none" stroke-width="1" fill="none" fill-rule="evenodd">
        <g id="汇农苹果网站首页0918" transform="translate(-659.000000, -2378.000000)" fill="#564F24" fill-rule="nonzero">
            <g id="编组-21" transform="translate(0.000000, 2350.000000)">
                <g id="tips">
                    <g id="编组-20" transform="translate(659.000000, 18.000000)">
                        <g id="天然" transform="translate(0.000000, 10.000000)">
                            <path d="M43.3598161,1.99431948 L43.3598161,1.42468209 L42.7901787,1.25379518 C42.3344946,1.13984192 31.9109082,-2.1637713 24.2212977,3.4751962 C19.1518387,7.06369256 16.4747965,13.6140283 16.3039096,22.7845155 C3.88669984,19.8795668 2.51960449,6.03837106 2.40569421,2.84862516 C4.79798215,2.27898778 13.4558946,0.684157794 18.2974471,6.55098884 C18.5822013,6.89276268 19.1518387,6.9497393 19.4936125,6.6649421 C19.8353864,6.38018786 19.892363,5.81055048 19.6075658,5.46877664 C13.2850076,-2.2207909 1.7221895,1.19681855 1.26654835,1.36770546 L0.640020276,1.53859238 L0.640020276,2.16512046 C0.640020276,2.33600737 0.810907194,21.75928 16.9304806,24.6642287 L17.1013676,24.6642287 C17.2153208,24.6642287 17.2722545,24.6642287 17.3861218,24.607252 L17.4430984,24.607252 C17.5000751,24.5502754 17.6139853,24.5502754 17.670919,24.4932988 L17.7278956,24.4932988 L17.8987825,24.3224119 L17.8987825,24.2654352 C17.9557592,24.2084586 17.9557592,24.0945483 18.0127358,24.0376147 L18.0127358,23.9236614 C18.0127358,14.7531312 20.4050237,8.31670574 25.132666,4.89909629 C31.1703839,0.51314197 39.3726122,2.16503452 41.6509899,2.73462893 C41.6509899,6.20917204 40.6257113,22.4996754 24.1073874,25.1767605 C23.6517033,25.2337371 23.3099724,25.6893783 23.4238827,26.1450624 C23.4808594,26.5438129 23.8795668,26.8855438 24.2782743,26.8855438 L24.3922276,26.8855438 C43.9863871,23.5819305 43.3598161,2.16499155 43.3598161,1.99410463 L43.3598161,1.99431948 Z M34.4740401,34.1766186 L20.0632499,34.1766186 C20.9746182,13.1584731 33.220941,9.05731598 33.3348943,9.00042528 C33.6196485,8.88647203 33.7905784,8.60167482 33.7336447,8.25994395 C33.6196915,7.97518972 33.3348943,7.80425983 32.9931634,7.86119349 C32.423526,8.03208041 19.8354723,12.1901282 18.9241041,34.119642 L16.9874573,34.119642 C16.5317731,34.119642 16.1330656,34.5183925 16.1330656,34.9740336 C16.1330656,35.4296748 16.5318161,35.8284253 16.9874573,35.8284253 L34.4740831,35.8284253 C34.9297672,35.8284253 35.3284747,35.4296748 35.3284747,34.9740336 C35.3284747,34.5183925 34.9297242,34.1766186 34.4740831,34.1766186 L34.4740401,34.1766186 Z M13.4558946,34.1766186 L9.69655425,34.1766186 C9.24087013,34.1766186 8.84216263,34.5753691 8.84216263,35.0310103 C8.84216263,35.4866514 9.2409131,35.8854019 9.69655425,35.8854019 L13.4558946,35.8854019 C13.9115787,35.8854019 14.3102862,35.4866514 14.3102862,35.0310103 C14.3102862,34.5753691 13.9115357,34.1766186 13.4558946,34.1766186 Z" id="形状"></path>
                        </g>
                    </g>
                </g>
            </g>
        </g>
    </g>
</svg>