<?xml version="1.0" encoding="UTF-8"?>
<svg width="36px" height="39px" viewBox="0 0 36 39" version="1.1" xmlns="http://www.w3.org/2000/svg" xmlns:xlink="http://www.w3.org/1999/xlink">
    <!-- Generator: Sketch 60 (88103) - https://sketch.com -->
    <title>安全</title>
    <desc>Created with Sketch.</desc>
    <g id="Page" stroke="none" stroke-width="1" fill="none" fill-rule="evenodd">
        <g id="汇农苹果网站首页0918" transform="translate(-237.000000, -2376.000000)" fill="#564F24" fill-rule="nonzero">
            <g id="编组-21" transform="translate(0.000000, 2350.000000)">
                <g id="tips">
                    <g id="编组-19" transform="translate(237.000000, 18.000000)">
                        <g id="安全" transform="translate(0.000000, 8.000000)">
                            <path d="M18.1200973,38.4008289 C27.6427512,38.4008289 35.3249425,30.7186376 35.3249425,21.1957961 L35.3249425,8.15220043 C35.3249425,7.83204511 35.1649609,7.59197813 34.8448056,7.43199499 C34.5246502,7.2718213 34.2046855,7.35190815 33.964617,7.59197663 L17.9599266,22.9563593 L10.9979407,15.9943734 C10.6777854,15.6742181 10.1976499,15.6742181 9.87768364,15.9943734 C9.55752831,16.3145288 9.55752831,16.7946642 9.87768364,17.1146305 L17.3997043,24.6368387 C17.7198596,24.956994 18.1999951,24.956994 18.5201527,24.6368387 L33.7243647,9.99266143 L33.7243647,21.1957946 C33.7243647,29.8382599 26.6822934,36.8002458 18.1199135,36.8002458 L17.7999502,36.8002458 C9.15748495,36.8002458 2.19549903,29.8382599 2.19549903,21.1957946 L2.19549903,5.27137717 L5.39628331,5.27137717 C8.91741647,5.27137717 12.4383546,4.47108639 15.6393302,2.87069237 L17.9599296,1.67034997 L20.3606144,2.87069237 C23.56159,4.47108639 27.0825319,5.27137717 30.6036613,5.27137717 L34.6047401,5.27137717 C35.084877,5.27137717 35.4050309,4.95122185 35.4050309,4.47108639 C35.4050309,3.99094943 35.0848755,3.6707956 34.6047401,3.6707956 L30.6036613,3.6707956 C27.3225966,3.6707956 24.0415394,2.87069612 21.0808199,1.43028524 L18.3601725,0.0697684016 L18.3601725,0.0697683863 C18.1267513,-0.0101264039 17.8733886,-0.010126779 17.639967,0.0697683615 L14.9191284,1.4302852 C11.9582213,2.87069608 8.67734794,3.67079556 5.39647457,3.67079556 L1.3952082,3.67079556 C0.915071239,3.67079556 0.595108719,3.99095089 0.595108719,4.47108635 L0.595108719,21.1957946 C0.595108719,30.718636 8.27730008,38.4008289 17.7999539,38.4008289 L18.1201093,38.4008289 L18.1200973,38.4008289 Z" id="路径"></path>
                        </g>
                    </g>
                </g>
            </g>
        </g>
    </g>
</svg>