<?xml version="1.0" encoding="UTF-8"?>
<svg width="44px" height="44px" viewBox="0 0 44 44" version="1.1" xmlns="http://www.w3.org/2000/svg" xmlns:xlink="http://www.w3.org/1999/xlink">
    <!-- Generator: Sketch 60 (88103) - https://sketch.com -->
    <title>售后</title>
    <desc>Created with Sketch.</desc>
    <g id="Page" stroke="none" stroke-width="1" fill="none" fill-rule="evenodd">
        <g id="汇农苹果网站首页0918" transform="translate(-1511.000000, -2374.000000)" fill="#564F24" fill-rule="nonzero">
            <g id="编组-21" transform="translate(0.000000, 2350.000000)">
                <g id="tips">
                    <g id="编组-14" transform="translate(1511.000000, 18.000000)">
                        <g id="售后" transform="translate(0.000000, 6.000000)">
                            <path d="M21.9786933,1.46534924 C33.2899051,1.46534924 42.4919944,10.6672239 42.4919944,21.9786933 C42.4919944,33.2891754 33.2898622,42.4912647 21.9786933,42.4912647 C10.6675244,42.4912647 1.46534924,33.2892612 1.46534924,21.9787362 C1.46534924,10.6673098 10.6674815,1.46534924 21.9786933,1.46534924 M21.9786933,4.88021215e-15 C9.840325,4.88021215e-15 4.88021215e-15,9.840325 4.88021215e-15,21.9786933 C4.88021215e-15,34.1176626 9.840325,43.9564852 21.9786933,43.9564852 C34.1170616,43.9564852 43.957172,34.1176626 43.957172,21.9786933 C43.957172,9.840325 34.1170616,4.88021215e-15 21.9786504,4.88021215e-15 L21.9786933,4.88021215e-15 Z M34.5161521,11.5589853 C34.1398557,11.224285 33.6449527,11.0396569 33.1338233,11.0396569 C33.0868613,11.0396569 33.0409726,11.0419749 32.9937102,11.0439495 C32.9651639,11.0469544 32.6402509,11.064769 32.1309674,11.064769 C31.2866831,11.064769 29.6382939,11.0104666 28.0786774,10.6455888 C26.0624486,10.1739092 23.7373184,7.98747553 23.0591609,7.55691973 C22.7184079,7.34013939 22.3264004,7.23217848 21.9328046,7.23217848 C21.5408399,7.23217848 21.1287427,7.31369648 20.808337,7.55554607 C20.2358652,7.98747553 18.2912383,10.0881414 15.9088438,10.644902 C14.3492273,11.0104666 12.669287,11.0647261 11.8264193,11.0647261 C11.3171357,11.0647261 10.9921798,11.0469544 10.9592979,11.0439925 C10.9148257,11.0418891 10.8705682,11.0396569 10.8263107,11.0396569 C10.3140222,11.0396569 9.81748794,11.2249289 9.43990381,11.5605736 C9.03055384,11.9247646 8.79733254,12.4347779 8.79733254,12.9687014 L8.79733254,17.7906259 C8.79733254,35.6211738 21.0543076,37.9177146 21.5750526,38.0077751 C21.6939598,38.0278219 21.8142407,38.036536 21.9342211,38.036536 C22.0531284,38.036536 22.1746971,38.0278219 22.2919731,38.0077751 C22.8129327,37.9176288 35.160097,35.6211308 35.160097,17.7906259 L35.160097,12.9687014 C35.160097,12.4334042 34.9268328,11.9240777 34.5161091,11.5589853 L34.5161521,11.5589853 Z M33.1338233,17.7912698 C33.1338233,34.2130889 21.9328046,36.1076203 21.9328046,36.1076203 C21.9328046,36.1076203 10.8235634,34.2130889 10.8235634,17.7912698 L10.8235634,12.9686585 C10.8235634,12.9686585 11.205526,12.9941999 11.8263334,12.9941999 C12.8894585,12.9941999 14.6768017,12.9198078 16.3909118,12.5177554 C19.196865,11.8631217 21.9327616,9.16096546 21.9327616,9.16096546 C21.9327616,9.16096546 24.7918153,11.8631217 27.5948495,12.5177554 C29.3105478,12.9198078 31.0677993,12.9941999 32.1309244,12.9941999 C32.7490704,12.9941999 33.1338233,12.9686585 33.1338233,12.9686585 L33.1338233,17.7912698 L33.1338233,17.7912698 Z M27.5677627,19.2359283 L21.0814803,25.4260588 L17.8218766,22.3152823 C17.4298262,21.9416904 16.7902598,21.9416904 16.399583,22.3152823 C16.008992,22.6887455 16.008992,23.2983061 16.399583,23.6717692 L20.3701832,27.460832 C20.7608171,27.8342952 21.400641,27.8342952 21.7926915,27.460832 L28.9886397,20.5922864 C29.3806473,20.2196389 29.3806473,19.6092627 28.9886397,19.2359283 C28.9886397,19.2359283 28.0827984,18.7695287 27.5677627,19.2359283 L27.5677627,19.2359283 Z" id="形状"></path>
                        </g>
                    </g>
                </g>
            </g>
        </g>
    </g>
</svg>