<?xml version="1.0" encoding="UTF-8"?>
<svg width="44px" height="44px" viewBox="0 0 44 44" version="1.1" xmlns="http://www.w3.org/2000/svg" xmlns:xlink="http://www.w3.org/1999/xlink">
    <!-- Generator: Sketch 60 (88103) - https://sketch.com -->
    <title>产地</title>
    <desc>Created with Sketch.</desc>
    <g id="Page" stroke="none" stroke-width="1" fill="none" fill-rule="evenodd">
        <g id="汇农苹果网站首页0918" transform="translate(-1085.000000, -2374.000000)" fill="#564F24" fill-rule="nonzero">
            <g id="编组-21" transform="translate(0.000000, 2350.000000)">
                <g id="tips">
                    <g id="编组-17" transform="translate(1085.000000, 18.000000)">
                        <g id="产地" transform="translate(0.000000, 6.000000)">
                            <path d="M22.0000256,0.0866205793 C25.7262327,0.0866205793 29.0998464,1.59703901 31.5418062,4.03909771 C33.9838649,6.48111344 35.4943257,9.85470994 35.4943257,13.5809213 C35.4943257,15.3753886 35.1386953,17.0957176 34.4936511,18.6752163 L34.493651,18.6752164 C33.831171,20.2965968 32.8599085,21.7737739 31.6338755,23.0246042 L31.3332077,23.3313839 L12.6668735,23.3313839 L12.3661615,23.0246042 L12.3661608,23.0246035 C11.1401277,21.773756 10.1688524,20.2965789 9.50634223,18.6752156 C8.8612989,17.0957212 8.50566763,15.375388 8.50566763,13.5809207 C8.50566763,9.85467062 10.0162186,6.48105693 12.4581441,4.03909705 C14.9002028,1.59708562 18.2737563,0.0866205793 22.0000107,0.0866205793 L22.0000256,0.0866205793 Z M30.0994725,5.48139704 C28.026808,3.40859932 25.1630879,2.12656072 22.0000256,2.12656072 C18.8368989,2.12656072 15.9732217,3.40864229 13.9004498,5.48139704 C11.827695,7.5541518 10.5456607,10.4177817 10.5456607,13.5809299 C10.5456607,15.1210305 10.844614,16.5822877 11.3869425,17.9102084 C11.897876,19.1614212 12.6265924,20.3039014 13.5264407,21.2914233 L30.4735503,21.2914233 C31.3733127,20.3038971 32.1020721,19.1614212 32.6130485,17.9102084 C33.1553749,16.5822662 33.4543303,15.1210477 33.4543303,13.5809299 C33.4543303,10.4178032 32.1723347,7.55416899 30.099451,5.48139704 L30.0994725,5.48139704 Z M22.0000256,6.34760938 C23.9973271,6.34760938 25.8056863,7.1572318 27.1146448,8.4662677 C28.4235905,9.7753036 29.2333032,11.5836198 29.2333032,13.5809299 C29.2333032,15.5782314 28.4236378,17.3865906 27.1146448,18.6955921 C25.8056519,20.004585 23.9973357,20.8142504 22.0000256,20.8142504 C20.0026811,20.8142504 18.1943649,20.004585 16.8852775,18.6955921 C15.5762845,17.3865562 14.7666191,15.57824 14.7666191,13.5809299 C14.7666191,11.5836284 15.5762845,9.77526923 16.8852775,8.4662677 C18.1943563,7.1572318 20.0027155,6.34760938 22.0000256,6.34760938 L22.0000256,6.34760938 Z M25.6724142,9.90857563 C24.7326393,8.96880071 23.4342468,8.38756175 22.0000256,8.38756175 C20.5658087,8.38756175 19.2674119,8.96880501 18.327637,9.90857563 C17.387862,10.8483076 16.8066231,12.1467001 16.8066231,13.580917 C16.8066231,15.0150909 17.3878663,16.3135307 18.327637,17.2532584 C19.2673689,18.1929903 20.5657614,18.7742293 22.0000256,18.7742293 C23.4341995,18.7742293 24.7325964,18.1929431 25.6724142,17.2532584 C26.612013,16.3135264 27.1933422,15.0150909 27.1933422,13.580917 C27.1933422,12.1467001 26.612013,10.8483033 25.6724142,9.90857563 Z M7.12033407,17.6457956 L2.71366878,22.5536919 L9.15288721,41.8734956 L34.8483156,41.8734956 L41.288823,22.5498247 L36.8826304,17.628651 L38.3967005,16.2739737 L43.1957999,21.6340737 L43.5887173,22.0729398 L43.4029434,22.6300861 L36.5430605,43.2121413 L36.3093149,43.9133793 L7.6919652,43.9133793 L7.45826391,43.2121413 L0.598252024,22.6300861 L0.411290908,22.0691156 L0.805439414,21.6300733 L5.6062575,16.2831217 L7.12033407,17.6457956 Z M12.1188946,27.8450418 L14.1588469,27.8450418 L14.1588469,37.424635 L12.1188946,37.424635 L12.1188946,27.8450418 Z M20.9533658,27.8450418 L22.9933182,27.8450418 L22.9933182,37.424635 L20.9533658,37.424635 L20.9533658,27.8450418 Z M29.8410753,27.8450418 L31.8809848,27.8450418 L31.8809848,37.424635 L29.8410753,37.424635 L29.8410753,27.8450418 Z M1.56240572,21.2914834 L42.4386681,21.2914834 L42.4386681,23.3314358 L1.56240572,23.3314358 L1.56240572,21.2914834 Z" id="形状"></path>
                        </g>
                    </g>
                </g>
            </g>
        </g>
    </g>
</svg>