<?xml version="1.0" encoding="UTF-8"?>
<svg width="29px" height="33px" viewBox="0 0 29 33" version="1.1" xmlns="http://www.w3.org/2000/svg" xmlns:xlink="http://www.w3.org/1999/xlink">
    <!-- Generator: Sketch 63.1 (92452) - https://sketch.com -->
    <title>icon_service</title>
    <desc>Created with Sketch.</desc>
    <g id="Page" stroke="none" stroke-width="1" fill="none" fill-rule="evenodd">
        <g id="在线客服_normal" transform="translate(-21.000000, -10.000000)" fill="#666666" fill-rule="nonzero">
            <g id="icon_service" transform="translate(21.000000, 10.000000)">
                <path d="M26.1,16.5 C25.8825,16.5 25.5925,16.4282609 25.375,16.4282609 L25.375,12.1956522 C25.375,6.24130434 20.5175,1.43478262 14.5,1.43478262 C8.48249999,1.43478262 3.62500001,6.24130434 3.62500001,12.1956522 L3.62500001,16.4282609 C3.40750001,16.4282609 3.11750002,16.5 2.90000002,16.5 C1.30500003,16.5 0,15.2086957 0,13.6304348 C0,12.2673913 0.942499988,11.1195652 2.24750002,10.8326087 C2.97250001,4.73478261 8.1925,-4.68958206e-14 14.5,-4.68958206e-14 C20.8075,-4.68958206e-14 26.0275,4.73478261 26.7525,10.8326087 C28.0575,11.1195652 29,12.2673913 29,13.6304348 C29,15.2086957 27.695,16.5 26.1,16.5 Z M14.5,21.5217391 C9.28,21.5217391 5.07500002,17.3608696 5.07500002,12.1956522 C5.07500002,7.03043479 9.28,2.86956524 14.5,2.86956524 C19.72,2.86956524 23.925,7.03043479 23.925,12.1956522 C23.925,17.3608696 19.72,21.5217391 14.5,21.5217391 Z M6.81500002,19.8 C8.77250002,21.7369565 11.455,22.9565217 14.5,22.9565217 C17.4725,22.9565217 20.155,21.8086957 22.1125,19.8717391 C24.2875,21.5217391 26.0275,23.7456522 26.8975,26.4717391 C27.4775,28.1217391 27.695,29.4847826 27.55,31.0630435 C27.4775,32.1391304 26.4625,33 25.375,33 L3.62500001,33 C2.53750001,33 1.5225,32.1391304 1.45000001,31.0630435 L1.45000001,30.1304348 C1.45000001,25.8978261 3.55250002,22.0956522 6.81500002,19.8 Z" id="形状"></path>
            </g>
        </g>
    </g>
</svg>