<?xml version="1.0" encoding="utf-8"?>
<!-- Generator: Adobe Illustrator 24.0.1, SVG Export Plug-In . SVG Version: 6.00 Build 0)  -->
<svg version="1.1" id="图层_1" xmlns="http://www.w3.org/2000/svg" xmlns:xlink="http://www.w3.org/1999/xlink" x="0px" y="0px"
	 viewBox="0 0 297.5 123" style="enable-background:new 0 0 297.5 123;" xml:space="preserve">
<style type="text/css">
	.st0{fill:#564F24;}
	.st1{fill:#6ABF4B;}
	.st2{fill:#AADA91;}
</style>
<g>
	<g>
		<path class="st0" d="M86.2,47.1c-1.9-2-6-5-9.1-6.9l4.5-5.2c3,1.7,7.3,4.3,9.4,6.3L86.2,47.1z M78.3,63.6
			c2.7-3.9,6.5-10.2,9.5-16.3l5.7,5c-2.7,5.5-5.6,11.1-8.7,16.3L78.3,63.6z M84.5,21.1c3,1.7,7.1,4.5,9.1,6.5l-5,5.6
			c-1.8-2-5.8-5.1-8.9-7L84.5,21.1z M126.8,59.8v7.4H93.7V22.8h32.2v7.4h-24.3v29.6C101.6,59.8,126.8,59.8,126.8,59.8z"/>
		<path class="st0" d="M176.2,43.8c-2.9,2.5-6.4,5.1-9.4,7c3.4,4.5,7.6,8.2,12.3,10.8c-1.8,1.5-4.3,4.5-5.6,6.5
			c-9.6-6-16.1-15.7-20.6-27.5c-1.6,2.3-3.3,4.4-5.2,6.4v12.1l11.1-2.7c0,2.1,0.3,5.2,0.6,6.8c-15,4.1-17.7,5-19.4,6.1
			c-0.5-1.8-2-5-3.3-6.6c1.5-0.7,3.4-2.5,3.4-4.9v-5c-1.9,1.2-4,2.3-6.3,3.3c-1-1.7-3.8-4.9-5.4-6.4c9.3-3.3,15.7-8.8,20-16.6h-8.7
			v5.1h-7.5V26.3h19.2c0.6-2,1.2-4.1,1.7-6.3l7.8,1.5c-0.4,1.6-0.8,3.2-1.3,4.7h17.9v12.1h-7.9v-5.1h-11.7c1.3,4.1,3,8,5.1,11.7
			c2.6-1.9,5.3-4.2,7.2-6.3L176.2,43.8z"/>
		<path class="st0" d="M230.6,57.1h-20.3v12.6h-7.7V57.1h-20v-7h9.3c-1-2.4-2.8-5.5-4.4-8l3.5-1.3h-5V34h41.1v6.8h-6.7l5,1.6
			c-1.7,2.8-3.4,5.6-5,7.7h10.1V57.1z M192.9,29.8h-9.6v-6.7h9.6v-3.2h7.5v3.2h12.2v-3.2h7.6v3.2h9.9v6.7h-9.9v3h-7.6v-3h-12.2v3
			h-7.5L192.9,29.8L192.9,29.8z M202.6,50.1v-9.3h-7.7c1.9,2.6,3.8,5.7,4.7,8.1l-3.2,1.2C196.4,50.1,202.6,50.1,202.6,50.1z
			 M210.3,50.1h6.5l-3.3-1.2c1.4-2.2,3.1-5.5,4.2-8.1h-7.4L210.3,50.1L210.3,50.1z"/>
		<path class="st0" d="M268.5,54c4.3,3.1,10,5.8,15.5,7.4c-1.7,1.5-4,4.5-5.1,6.4c-5.7-2.2-11.4-5.7-16-10v11.5h-8.1V58.2
			c-4.6,4.3-10.4,7.9-16.3,10c-1.1-1.8-3.4-4.7-5.1-6.3c5.8-1.7,11.6-4.5,15.9-7.8h-14.2v-6.9h19.7v-2.3h-14.5V22.2h37.2v22.6h-14.6
			v2.3h19.5V54C282.4,54,268.5,54,268.5,54z M248.3,30.6h6.6v-2.1h-6.6V30.6z M254.9,38.6v-2.2h-6.6v2.2H254.9z M269.2,28.4h-6.3
			v2.1h6.3V28.4z M269.2,36.4h-6.3v2.2h6.3V36.4z"/>
	</g>
	<g>
		<path class="st0" d="M54,60.8c0.2,0,0.4,0.2,0.4,0.4v6c0,2.3-0.8,4.3-2.4,5.9c-1.3,1.3-2.8,2.1-4.6,2.3c-0.2,0-0.5-0.2-0.5-0.4
			v-6.3c0-0.2-0.2-0.4-0.4-0.4H36c-0.2,0-0.4,0.1-0.4,0.3c-0.3,1.3-1.7,6.3-4.5,10.2l0,0v12.4c0,0.3,0.3,0.5,0.6,0.4l5-2
			c0.2-0.1,0.5,0.1,0.6,0.3c0.4,1.7,0.2,3.4-0.5,5.1c-0.9,2.2-2.4,3.6-4.6,4.4l0,0l-6,2.5c-0.6,0.3-1.3,0.5-2,0.6
			c-0.2,0-0.5-0.2-0.5-0.4V87.5c0-0.3-0.4-0.5-0.7-0.3l-0.7,0.5c-1.9,1.4-3.9,2-5.8,2c-0.5,0-1.1-0.1-1.6-0.2
			c-2-0.3-3.5-1.2-4.7-2.8c-0.1-0.2-0.1-0.5,0.1-0.6c0.3-0.1,0.6-0.3,0.8-0.4c9.5-4.9,15.6-13.6,17.5-24.2c0.1-0.4,0.4-0.7,0.8-0.7
			L54,60.8L54,60.8z M53.2,101.9c-0.4,0-0.8,0-1.2-0.1c-2.2-0.3-3.9-1.4-5.1-3.3L35,79.8c-0.1-0.2-0.1-0.5,0.2-0.6
			c1.2-0.7,2.5-1,3.8-1.1c0.4,0,0.8,0,1.2,0.1c2.2,0.3,3.8,1.4,5,3.2l0.1,0.2c0.1,0.2,0.3,0.2,0.5,0.2l8.3-3.5
			c0.2-0.1,0.5,0.1,0.6,0.3c0.6,3.8-0.8,6.8-4.4,9.1L49.9,88c-0.2,0.1-0.2,0.4-0.1,0.6l7.4,11.7c0.1,0.2,0.1,0.5-0.2,0.6
			C55.8,101.5,54.5,101.9,53.2,101.9z"/>
		<path class="st0" d="M29.7,57.6c-0.5,0-0.8-0.4-0.8-0.8V28.1c0-2.3,0.8-4.3,2.4-5.9s3.6-2.4,5.9-2.4h19.8c0.2,0,0.4,0.2,0.4,0.5
			c-0.2,1.8-1,3.3-2.2,4.6c-1.6,1.6-3.5,2.4-6,2.4H36.8c-0.2,0-0.4,0.2-0.4,0.4v22c0,0.2,0.2,0.4,0.4,0.4h20.3
			c0.3,0,0.4,0.2,0.4,0.5c-0.3,1.7-1,3.2-2.3,4.6c-1.7,1.6-3.7,2.4-6,2.4L29.7,57.6L29.7,57.6z"/>
		<g>
			<path class="st1" d="M14.8,70.8c-0.6,0-1.2-0.1-1.8-0.2l2.5-5.3c0.8-1.8,2.1-3.1,4-3.8c1.1-0.4,2.2-0.7,3.3-0.7
				c0.6,0,1.3,0.1,2,0.2l-2.4,5.3c-0.8,1.7-2.1,2.9-4.1,3.8C17.2,70.6,16,70.8,14.8,70.8z"/>
			<path class="st2" d="M14.8,57.6c-0.6,0-1.2,0-1.8-0.2l2.5-5.3c0.8-1.8,2.1-3.1,4-3.8c1.1-0.4,2.2-0.7,3.3-0.7
				c0.6,0,1.3,0.1,2,0.2l-2.4,5.3c-0.8,1.7-2.1,2.9-4.1,3.8C17.2,57.4,16,57.6,14.8,57.6z"/>
		</g>
		<g>
			<path class="st1" d="M18.3,20.5c2,0.8,3.4,2.1,4.1,3.8l2.4,5.3c-0.7,0.1-1.3,0.2-2,0.2c-1.2,0-2.3-0.2-3.3-0.6
				c-1.9-0.8-3.2-2-4-3.8L13,19.9c0.6-0.1,1.2-0.2,1.8-0.2C16,19.8,17.2,20,18.3,20.5z"/>
			<path class="st2" d="M18.3,33.6c2,0.8,3.4,2.1,4.1,3.8l2.4,5.3c-0.7,0.1-1.3,0.2-2,0.2c-1.2,0-2.3-0.2-3.3-0.7
				c-1.9-0.8-3.2-2-4-3.8L13,33.1c0.6-0.1,1.2-0.2,1.8-0.2C16,33,17.2,33.2,18.3,33.6z"/>
		</g>
	</g>
	<g>
		<path class="st1" d="M83.5,78.5v8.6c1.4-1.7,3.2-2.5,5.2-2.5c1,0,2,0.2,2.8,0.6c0.8,0.4,1.4,0.9,1.9,1.5c0.4,0.6,0.7,1.2,0.9,2
			c0.2,0.7,0.2,1.8,0.2,3.4v9.9h-4.5v-8.9c0-1.8-0.1-2.9-0.3-3.4c-0.2-0.5-0.5-0.9-0.9-1.1s-1-0.4-1.6-0.4c-0.7,0-1.4,0.2-2,0.5
			c-0.6,0.4-1,0.9-1.3,1.6s-0.4,1.8-0.4,3.2v8.4H79V78.5H83.5z"/>
		<path class="st1" d="M110,101.8v-2.5c-0.6,0.9-1.4,1.6-2.4,2.1c-1,0.5-2.1,0.8-3.2,0.8c-1.1,0-2.1-0.2-3-0.7s-1.6-1.2-2-2.1
			c-0.4-0.9-0.6-2.1-0.6-3.7V84.9h4.5v7.8c0,2.4,0.1,3.8,0.2,4.4c0.2,0.5,0.5,1,0.9,1.3c0.4,0.3,1,0.5,1.7,0.5c0.8,0,1.4-0.2,2-0.6
			s1-0.9,1.2-1.6c0.2-0.6,0.3-2.1,0.3-4.5v-7.1h4.5v16.9H110z"/>
		<path class="st1" d="M118.8,82.6v-4.1h4.5v4.1H118.8z M118.8,101.8V84.9h4.5v16.9H118.8z"/>
		<path class="st1" d="M131.2,90.1l-4-0.7c0.5-1.6,1.2-2.8,2.4-3.6c1.1-0.8,2.8-1.2,5-1.2c2,0,3.5,0.2,4.4,0.7
			c1,0.5,1.7,1.1,2.1,1.8c0.4,0.7,0.6,2.1,0.6,4l0,5.2c0,1.5,0.1,2.6,0.2,3.3c0.1,0.7,0.4,1.5,0.8,2.3h-4.4
			c-0.1-0.3-0.3-0.7-0.4-1.3c-0.1-0.3-0.1-0.4-0.2-0.5c-0.8,0.7-1.6,1.3-2.4,1.7s-1.8,0.6-2.8,0.6c-1.7,0-3.1-0.5-4.1-1.4
			s-1.5-2.1-1.5-3.6c0-1,0.2-1.8,0.7-2.5c0.5-0.7,1.1-1.3,1.9-1.7c0.8-0.4,2-0.7,3.5-1c2.1-0.4,3.5-0.8,4.3-1.1v-0.4
			c0-0.9-0.2-1.5-0.6-1.8c-0.4-0.4-1.2-0.5-2.4-0.5c-0.8,0-1.4,0.2-1.9,0.5C131.8,88.7,131.4,89.3,131.2,90.1z M137.1,93.7
			c-0.6,0.2-1.5,0.4-2.7,0.7s-2,0.5-2.4,0.8c-0.6,0.4-0.9,0.9-0.9,1.6c0,0.6,0.2,1.2,0.7,1.6s1.1,0.7,1.8,0.7c0.8,0,1.6-0.3,2.3-0.8
			c0.5-0.4,0.9-0.9,1.1-1.5c0.1-0.4,0.2-1.1,0.2-2.2V93.7z"/>
		<path class="st1" d="M145.8,84.9h4.2v2.5c0.5-0.8,1.3-1.5,2.2-2.1c0.9-0.5,1.9-0.8,3.1-0.8c2,0,3.6,0.8,5,2.3s2,3.7,2,6.4
			c0,2.8-0.7,5-2.1,6.6c-1.4,1.6-3,2.3-5,2.3c-0.9,0-1.8-0.2-2.5-0.6c-0.8-0.4-1.6-1-2.4-1.9v8.5h-4.5V84.9z M150.2,93.1
			c0,1.9,0.4,3.3,1.1,4.2c0.8,0.9,1.7,1.4,2.7,1.4c1,0,1.9-0.4,2.6-1.2c0.7-0.8,1-2.2,1-4.1c0-1.8-0.4-3.1-1.1-3.9
			c-0.7-0.9-1.6-1.3-2.6-1.3c-1.1,0-2,0.4-2.7,1.3C150.6,90.2,150.2,91.4,150.2,93.1z"/>
		<path class="st1" d="M165.7,84.9h4.2v2.5c0.5-0.8,1.3-1.5,2.2-2.1s1.9-0.8,3.1-0.8c2,0,3.6,0.8,5,2.3c1.4,1.5,2,3.7,2,6.4
			c0,2.8-0.7,5-2.1,6.6s-3,2.3-5,2.3c-0.9,0-1.8-0.2-2.5-0.6s-1.6-1-2.4-1.9v8.5h-4.5V84.9z M170.1,93.1c0,1.9,0.4,3.3,1.1,4.2
			c0.8,0.9,1.7,1.4,2.7,1.4c1,0,1.9-0.4,2.6-1.2c0.7-0.8,1-2.2,1-4.1c0-1.8-0.4-3.1-1.1-3.9s-1.6-1.3-2.6-1.3c-1.1,0-2,0.4-2.7,1.3
			C170.4,90.2,170.1,91.4,170.1,93.1z"/>
		<path class="st1" d="M185.6,101.8V78.5h4.5v23.3H185.6z"/>
		<path class="st1" d="M204.4,96.4l4.4,0.7c-0.6,1.6-1.5,2.9-2.7,3.7c-1.2,0.9-2.8,1.3-4.6,1.3c-2.9,0-5.1-1-6.5-2.9
			c-1.1-1.5-1.7-3.5-1.7-5.8c0-2.8,0.7-5,2.2-6.6s3.3-2.4,5.5-2.4c2.5,0,4.5,0.8,5.9,2.5s2.1,4.2,2.1,7.6H198c0,1.3,0.4,2.4,1.1,3.1
			c0.7,0.7,1.5,1.1,2.6,1.1c0.7,0,1.3-0.2,1.8-0.6C203.8,97.9,204.2,97.3,204.4,96.4z M204.7,91.9c0-1.3-0.4-2.3-1-2.9
			c-0.6-0.7-1.4-1-2.3-1c-1,0-1.8,0.4-2.4,1.1c-0.6,0.7-0.9,1.7-0.9,2.9H204.7z"/>
		<path class="st1" d="M212.8,101.8v-4.5h4.5v4.5H212.8z"/>
		<path class="st1" d="M236.5,89.9l-4.4,0.8c-0.1-0.9-0.5-1.5-1-2c-0.5-0.4-1.2-0.7-2-0.7c-1.1,0-2,0.4-2.7,1.2
			c-0.7,0.8-1,2.1-1,3.9c0,2,0.3,3.4,1,4.2c0.7,0.8,1.6,1.2,2.7,1.2c0.8,0,1.5-0.2,2.1-0.7c0.5-0.5,0.9-1.3,1.1-2.5l4.4,0.7
			c-0.5,2-1.3,3.5-2.6,4.6s-3,1.5-5.2,1.5c-2.5,0-4.4-0.8-5.9-2.3c-1.5-1.6-2.2-3.7-2.2-6.5c0-2.8,0.7-5,2.2-6.5
			c1.5-1.6,3.5-2.3,6-2.3c2.1,0,3.7,0.4,4.9,1.3C235.1,86.8,236,88.1,236.5,89.9z"/>
		<path class="st1" d="M238.9,93.1c0-1.5,0.4-2.9,1.1-4.3c0.7-1.4,1.8-2.4,3.1-3.2c1.3-0.7,2.8-1.1,4.5-1.1c2.6,0,4.6,0.8,6.3,2.5
			c1.6,1.7,2.4,3.8,2.4,6.3c0,2.6-0.8,4.7-2.5,6.3c-1.6,1.7-3.7,2.5-6.2,2.5c-1.5,0-3-0.3-4.4-1c-1.4-0.7-2.5-1.7-3.2-3.1
			C239.2,96.7,238.9,95.1,238.9,93.1z M243.4,93.4c0,1.7,0.4,3,1.2,3.8c0.8,0.9,1.8,1.3,2.9,1.3c1.2,0,2.1-0.4,2.9-1.3
			c0.8-0.9,1.2-2.2,1.2-3.9c0-1.7-0.4-2.9-1.2-3.8c-0.8-0.9-1.8-1.3-2.9-1.3c-1.2,0-2.1,0.4-2.9,1.3
			C243.8,90.4,243.4,91.7,243.4,93.4z"/>
		<path class="st1" d="M259.4,84.9h4.1v2.3c1.5-1.8,3.2-2.7,5.3-2.7c1.1,0,2,0.2,2.8,0.7c0.8,0.4,1.4,1.1,2,2c0.7-0.9,1.5-1.6,2.4-2
			s1.8-0.7,2.7-0.7c1.2,0,2.3,0.3,3.1,0.8c0.9,0.5,1.5,1.2,1.9,2.2c0.3,0.7,0.5,1.9,0.5,3.5v10.8h-4.5v-9.6c0-1.7-0.2-2.8-0.5-3.2
			c-0.4-0.6-1-1-1.9-1c-0.6,0-1.2,0.2-1.8,0.6c-0.6,0.4-0.9,0.9-1.2,1.7c-0.2,0.7-0.4,1.9-0.4,3.5v8.1h-4.5v-9.2
			c0-1.6-0.1-2.7-0.2-3.2c-0.2-0.5-0.4-0.8-0.7-1.1c-0.3-0.2-0.8-0.3-1.4-0.3c-0.7,0-1.3,0.2-1.9,0.6c-0.6,0.4-0.9,0.9-1.2,1.6
			c-0.2,0.7-0.4,1.9-0.4,3.5v8.2h-4.5V84.9z"/>
	</g>
</g>
</svg>
